<?xml version="1.0" encoding="UTF-8"?>
<svg xmlns="http://www.w3.org/2000/svg" xmlns:xlink="http://www.w3.org/1999/xlink" width="512px" height="512px" viewBox="0 0 512 512" version="1.1">
<g id="surface1">
<path style=" stroke:none;fill-rule:nonzero;fill:rgb(100%,100%,100%);fill-opacity:1;" d="M 188.640625 71.390625 C 153.214844 75.550781 120.511719 86.175781 96.574219 101.3125 C 91.105469 104.800781 84.351562 109.921875 82.078125 112.351562 C 77.40625 117.3125 72.894531 124.734375 67.199219 136.960938 C 40.257812 194.496094 20.703125 279.488281 20.449219 340.0625 C 20.414062 349.089844 20.351562 348.800781 24.191406 354.65625 C 27.9375 360.351562 31.070312 364.191406 36.480469 369.632812 C 46.847656 380.0625 57.824219 387.648438 74.078125 395.550781 C 93.601562 405.023438 117.472656 412.414062 138.238281 415.328125 C 150.59375 417.089844 154.304688 416.769531 157.503906 413.695312 C 158.113281 413.121094 164.191406 404.894531 171.007812 395.425781 C 182.65625 379.296875 183.488281 378.175781 184.289062 378.335938 C 184.734375 378.398438 188 379.070312 191.519531 379.808594 C 213.375 384.382812 233.28125 386.144531 258.71875 385.824219 C 281.3125 385.535156 297.921875 383.742188 318.175781 379.488281 C 321.632812 378.753906 324.542969 378.207031 324.574219 378.273438 C 324.640625 378.335938 330.144531 385.953125 336.800781 395.199219 C 343.457031 404.449219 349.472656 412.609375 350.207031 413.375 C 352.769531 416.0625 355.328125 416.734375 361.28125 416.289062 C 375.808594 415.199219 396.128906 410.464844 413.40625 404.160156 C 446.496094 392.128906 469.121094 376.351562 483.105469 355.617188 C 484.609375 353.375 486.238281 350.71875 486.6875 349.761719 L 487.519531 348 L 487.457031 339.519531 C 487.105469 293.921875 476.480469 235.648438 458.816406 182.878906 C 448.894531 153.183594 437.152344 126.878906 428.894531 115.9375 C 425.375 111.265625 421.886719 108.289062 413.054688 102.433594 C 391.390625 88.097656 360.929688 77.40625 327.617188 72.511719 C 319.199219 71.265625 314.527344 70.878906 312.734375 71.328125 C 309.632812 72.128906 307.328125 74.015625 305.761719 77.121094 C 304.703125 79.230469 301.695312 88.289062 300.769531 92.222656 C 300.160156 94.816406 299.9375 95.359375 299.425781 95.359375 C 299.105469 95.359375 296.351562 95.007812 293.34375 94.59375 C 279.96875 92.671875 270.113281 91.871094 258.078125 91.617188 C 244.511719 91.359375 229.886719 92.351562 213.984375 94.65625 L 208 95.519531 L 207.710938 94.398438 C 204.511719 81.953125 202.625 76.894531 200.160156 74.273438 C 197.566406 71.488281 194.433594 70.71875 188.640625 71.390625 Z M 186.496094 95.425781 C 187.777344 99.839844 188.414062 99.136719 181.375 100.929688 C 158.71875 106.6875 137.632812 115.230469 119.039062 126.207031 C 113.089844 129.726562 112.449219 130.273438 111.167969 132.574219 C 110.335938 134.078125 110.238281 134.527344 110.238281 137.28125 C 110.238281 139.839844 110.367188 140.542969 110.976562 141.695312 C 113.28125 145.984375 117.855469 148.257812 122.175781 147.199219 C 123.136719 146.976562 125.855469 145.601562 128.832031 143.808594 C 159.425781 125.472656 200.414062 114.273438 245.28125 111.96875 C 272.257812 110.59375 309.34375 116 338.65625 125.632812 C 354.078125 130.6875 371.457031 138.65625 381.3125 145.152344 C 383.9375 146.910156 385.214844 147.328125 387.839844 147.328125 C 390.71875 147.328125 392.542969 146.625 394.6875 144.640625 C 399.617188 140.097656 398.6875 131.839844 392.863281 128.511719 C 392.128906 128.097656 389.375 126.496094 386.785156 124.992188 C 381.824219 122.078125 372.351562 117.246094 366.847656 114.785156 C 354.71875 109.3125 338.65625 103.871094 324.800781 100.480469 C 322.433594 99.902344 320.449219 99.390625 320.382812 99.359375 C 320.351562 99.328125 320.734375 97.953125 321.214844 96.289062 L 322.113281 93.28125 L 324.160156 93.375 C 325.3125 93.441406 329.121094 93.953125 332.640625 94.558594 C 361.054688 99.328125 384.480469 107.808594 402.71875 119.871094 C 409.632812 124.449219 410.625 125.503906 415.105469 132.640625 C 430.945312 157.855469 449.824219 215.070312 459.007812 265.664062 C 463.617188 290.910156 466.238281 314.046875 466.785156 334.433594 L 466.976562 341.984375 L 465.601562 344.03125 C 453.023438 362.753906 428.351562 378.625 396.800781 388.191406 C 389.886719 390.304688 381.566406 392.351562 375.199219 393.566406 C 369.953125 394.558594 362.273438 395.679688 362.113281 395.488281 C 362.078125 395.425781 358.335938 390.335938 353.792969 384.191406 C 349.246094 378.046875 345.472656 372.863281 345.40625 372.640625 C 345.3125 372.449219 346.238281 371.96875 347.585938 371.550781 C 348.863281 371.136719 352.449219 369.855469 355.519531 368.734375 C 371.390625 362.847656 385.855469 355.585938 398.238281 347.359375 C 408.960938 340.222656 410.847656 338.175781 411.136719 333.441406 C 411.328125 329.824219 410.6875 328.0625 408.191406 325.601562 C 405.953125 323.390625 404 322.558594 400.992188 322.558594 C 398.273438 322.558594 396.640625 323.265625 393.28125 325.953125 C 381.824219 335.039062 364.097656 344.320312 345.761719 350.785156 C 338.398438 353.375 329.886719 355.839844 328.289062 355.839844 C 326.464844 355.839844 324.191406 356.511719 322.910156 357.40625 C 322.335938 357.824219 320.128906 358.496094 317.054688 359.199219 C 282.558594 366.910156 240.128906 367.808594 204.160156 361.566406 C 195.105469 360 186.558594 358.078125 184.640625 357.183594 C 183.359375 356.574219 182.238281 356.320312 180.480469 356.222656 C 174.878906 355.96875 155.167969 348.832031 140.960938 341.953125 C 130.945312 337.089844 121.40625 331.328125 115.359375 326.433594 C 111.039062 322.945312 110.527344 322.71875 106.71875 322.71875 C 103.777344 322.71875 103.390625 322.785156 101.824219 323.648438 C 98.464844 325.535156 96.480469 328.863281 96.511719 332.640625 C 96.574219 336.574219 97.921875 338.785156 102.367188 342.175781 C 117.441406 353.632812 136.289062 363.230469 159.425781 371.230469 C 161.152344 371.839844 162.558594 372.414062 162.558594 372.542969 C 162.558594 372.734375 146.71875 394.398438 145.921875 395.296875 C 145.3125 396 130.71875 393.40625 120.894531 390.910156 C 94.59375 384.191406 73.246094 373.984375 57.28125 360.449219 C 51.679688 355.710938 45.535156 348.929688 42.273438 343.871094 L 40.832031 341.695312 L 41.214844 332.191406 C 42.816406 293.121094 50.304688 249.921875 62.753906 207.679688 C 73.632812 170.847656 85.921875 141.40625 96.257812 127.457031 C 97.824219 125.34375 98.878906 124.351562 101.984375 122.113281 C 120.449219 108.734375 148 98.625 178.71875 93.953125 C 186.335938 92.800781 185.695312 92.671875 186.496094 95.425781 Z M 186.496094 95.425781 "/>
<path style=" stroke:none;fill-rule:nonzero;fill:rgb(100%,100%,100%);fill-opacity:1;" d="M 180.734375 213.953125 C 174.558594 215.070312 167.679688 218.078125 162.558594 221.921875 C 156.769531 226.207031 150.910156 233.40625 147.679688 240.160156 C 141.632812 252.734375 140.640625 267.902344 144.960938 281.34375 C 146.464844 285.953125 149.984375 292.769531 152.929688 296.671875 C 159.839844 305.855469 169.054688 311.839844 179.839844 314.144531 C 183.679688 314.945312 192.351562 314.945312 196.160156 314.113281 C 211.167969 310.847656 223.457031 300.128906 229.566406 284.894531 C 235.488281 270.144531 234.847656 253.601562 227.839844 239.519531 C 225.3125 234.464844 222.335938 230.335938 218.398438 226.398438 C 211.617188 219.617188 203.710938 215.425781 194.910156 213.953125 C 191.199219 213.3125 184.160156 213.3125 180.734375 213.953125 Z M 191.679688 234.046875 C 209.152344 237.183594 218.71875 260.574219 210.078125 278.976562 C 203.871094 292.191406 190.335938 298.015625 178.71875 292.480469 C 173.246094 289.886719 168.449219 284.769531 165.632812 278.65625 C 161.566406 269.792969 161.601562 258.273438 165.695312 249.472656 C 167.902344 244.769531 170.59375 241.34375 174.175781 238.59375 C 179.742188 234.398438 185.375 232.929688 191.679688 234.046875 Z M 191.679688 234.046875 "/>
<path style=" stroke:none;fill-rule:nonzero;fill:rgb(100%,100%,100%);fill-opacity:1;" d="M 313.121094 213.886719 C 304.769531 215.519531 298.6875 218.398438 292.0625 223.9375 C 279.9375 234.113281 272.832031 252.382812 274.527344 269.121094 C 275.9375 282.71875 281.28125 293.984375 290.59375 302.878906 C 298.464844 310.367188 307.617188 314.335938 318.238281 314.785156 C 336 315.550781 352.222656 305.089844 360.511719 287.519531 C 368.640625 270.304688 367.105469 249.503906 356.542969 233.726562 C 349.953125 223.9375 340.703125 217.28125 329.855469 214.527344 C 327.070312 213.824219 325.664062 213.664062 320.960938 213.566406 C 317.121094 213.503906 314.65625 213.601562 313.121094 213.886719 Z M 325.441406 234.398438 C 326.398438 234.65625 328.351562 235.425781 329.761719 236.128906 C 339.296875 240.863281 345.28125 251.585938 345.28125 263.9375 C 345.28125 276.257812 339.871094 286.496094 330.558594 291.777344 C 326.015625 294.335938 319.710938 295.230469 314.878906 293.953125 C 302.910156 290.816406 294.71875 278.71875 294.71875 264.160156 C 294.71875 248.480469 304.03125 235.9375 317.28125 233.792969 C 318.878906 233.566406 323.550781 233.886719 325.441406 234.398438 Z M 325.441406 234.398438 "/>
</g>
</svg>
