<?xml version="1.0" encoding="UTF-8"?>
<!DOCTYPE svg PUBLIC "-//W3C//DTD SVG 1.1//EN" "http://www.w3.org/Graphics/SVG/1.1/DTD/svg11.dtd">
<svg xmlns="http://www.w3.org/2000/svg" version="1.1" width="310px" height="310px" style="shape-rendering:geometricPrecision; text-rendering:geometricPrecision; image-rendering:optimizeQuality; fill-rule:evenodd; clip-rule:evenodd" xmlns:xlink="http://www.w3.org/1999/xlink">
<g><path style="opacity:1" fill="#1a72e8" d="M 309.5,122.5 C 309.5,143.833 309.5,165.167 309.5,186.5C 308.647,202.62 306.147,218.62 302,234.5C 297.107,245.059 289.274,252.559 278.5,257C 264.619,259.617 250.619,261.283 236.5,262C 181.833,264 127.167,264 72.5,262C 57.6079,261.457 42.9412,259.457 28.5,256C 14.412,249.668 6.24531,238.834 4,223.5C 2.16134,211.058 0.661339,198.725 -0.5,186.5C -0.5,165.167 -0.5,143.833 -0.5,122.5C 0.352918,106.38 2.85292,90.3804 7,74.5C 13.3322,60.412 24.1655,52.2453 39.5,50C 77.7338,46.1503 116.067,44.6503 154.5,45.5C 181.845,45.4634 209.179,45.9634 236.5,47C 250.625,47.7175 264.625,49.3841 278.5,52C 293.659,58.1592 302.492,69.3259 305,85.5C 306.839,97.9415 308.339,110.275 309.5,122.5 Z"/></g>
<g><path style="opacity:1" fill="#fefffe" d="M 127.5,109.5 C 151.66,120.247 175.327,132.08 198.5,145C 203.977,149.049 204.81,153.882 201,159.5C 178.07,172.049 154.903,184.216 131.5,196C 126.262,197.035 122.429,195.202 120,190.5C 119.333,165.833 119.333,141.167 120,116.5C 121.211,112.666 123.711,110.333 127.5,109.5 Z"/></g>
</svg>
