<?xml version="1.0" encoding="UTF-8"?>
<!DOCTYPE svg PUBLIC "-//W3C//DTD SVG 1.1//EN" "http://www.w3.org/Graphics/SVG/1.1/DTD/svg11.dtd">
<svg xmlns="http://www.w3.org/2000/svg" version="1.1" width="764px" height="134px" style="shape-rendering:geometricPrecision; text-rendering:geometricPrecision; image-rendering:optimizeQuality; fill-rule:evenodd; clip-rule:evenodd" xmlns:xlink="http://www.w3.org/1999/xlink">
<g><path style="opacity:0.975" fill="#1a73e8" d="M 159.5,133.5 C 116.5,133.5 73.5,133.5 30.5,133.5C 22.2083,132.549 14.7083,129.549 8,124.5C 6.66667,121.833 5.33333,119.167 4,116.5C 2.28494,109.741 0.784944,103.075 -0.5,96.5C -0.5,77.1667 -0.5,57.8333 -0.5,38.5C 0.718639,29.9715 3.05197,21.6382 6.5,13.5C 11.6354,7.09884 18.302,3.59884 26.5,3C 32.4727,2.09338 38.4727,1.42671 44.5,1C 78.5,0.333333 112.5,0.333333 146.5,1C 155.614,1.59748 164.614,2.93082 173.5,5C 176.418,6.70876 179.252,8.54209 182,10.5C 183.634,13.48 185.3,16.48 187,19.5C 192.985,51.8252 192.985,84.1585 187,116.5C 184.731,120.038 182.731,123.705 181,127.5C 178.159,130.609 174.826,131.609 171,130.5C 167.083,131.561 163.249,132.561 159.5,133.5 Z"/></g>
<g><path style="opacity:0.917" fill="#fefffe" d="M 217.5,17.5 C 223.346,16.1834 229.346,16.1834 235.5,17.5C 244,31.1667 252.5,44.8333 261,58.5C 269.167,44.8333 277.333,31.1667 285.5,17.5C 291.472,16.3364 297.472,16.1697 303.5,17C 291.624,35.2482 280.124,53.7482 269,72.5C 268.5,89.1633 268.333,105.83 268.5,122.5C 263.5,122.5 258.5,122.5 253.5,122.5C 253.667,105.83 253.5,89.1633 253,72.5C 241.304,53.9919 229.47,35.6586 217.5,17.5 Z"/></g>
<g><path style="opacity:0.978" fill="#fefffe" d="M 454.5,16.5 C 479.167,16.5 503.833,16.5 528.5,16.5C 528.5,20.8333 528.5,25.1667 528.5,29.5C 518.5,29.5 508.5,29.5 498.5,29.5C 498.5,60.5 498.5,91.5 498.5,122.5C 493.833,122.5 489.167,122.5 484.5,122.5C 484.5,91.5 484.5,60.5 484.5,29.5C 474.5,29.5 464.5,29.5 454.5,29.5C 454.5,25.1667 454.5,20.8333 454.5,16.5 Z"/></g>
<g><path style="opacity:0.936" fill="#fefffe" d="M 610.5,16.5 C 615.167,16.5 619.833,16.5 624.5,16.5C 624.333,30.504 624.5,44.504 625,58.5C 633.536,48.4335 644.369,44.9335 657.5,48C 674.569,54.7629 683.569,67.4295 684.5,86C 683.906,100.859 677.573,112.526 665.5,121C 652.583,126.477 640.25,125.477 628.5,118C 626.951,116.786 625.785,115.286 625,113.5C 624.502,116.482 624.335,119.482 624.5,122.5C 619.833,122.5 615.167,122.5 610.5,122.5C 610.5,87.1667 610.5,51.8333 610.5,16.5 Z M 640.5,60.5 C 658.707,59.2038 668.374,67.7038 669.5,86C 667.5,107.658 656.166,115.324 635.5,109C 623.459,97.5446 621.292,84.3779 629,69.5C 632.183,65.4622 636.016,62.4622 640.5,60.5 Z"/></g>
<g><path style="opacity:0.008" fill="#1a72e8" d="M 196.5,24.5 C 198.085,25.4737 199.085,26.9737 199.5,29C 198.167,29.6667 196.833,29.6667 195.5,29C 196.38,27.6439 196.714,26.1439 196.5,24.5 Z"/></g>
<g><path style="opacity:1" fill="#fafafe" d="M 75.5,38.5 C 77.2624,38.3573 78.9291,38.6906 80.5,39.5C 95.8333,48.8333 111.167,58.1667 126.5,67.5C 118.409,73.5011 109.742,78.6678 100.5,83C 92.9948,89.0851 84.6615,93.5851 75.5,96.5C 75.5,77.1667 75.5,57.8333 75.5,38.5 Z"/></g>
<g><path style="opacity:0.921" fill="#fefffe" d="M 321.5,47.5 C 354.831,45.4818 370.331,61.1485 368,94.5C 361.466,118.036 345.966,127.869 321.5,124C 306.564,120.064 297.398,110.564 294,95.5C 290.117,71.5598 299.283,55.5598 321.5,47.5 Z M 324.5,60.5 C 342.571,59.399 352.571,67.899 354.5,86C 351.756,107.427 340.09,115.094 319.5,109C 308.387,99.8006 305.22,88.3006 310,74.5C 312.871,67.6746 317.704,63.0079 324.5,60.5 Z"/></g>
<g><path style="opacity:0.933" fill="#fefffe" d="M 763.5,81.5 C 763.5,83.8333 763.5,86.1667 763.5,88.5C 744.5,88.5 725.5,88.5 706.5,88.5C 708.227,106.046 717.894,113.546 735.5,111C 741.257,108.233 746.091,104.4 750,99.5C 754.251,101.039 758.085,103.206 761.5,106C 756.388,115.77 748.388,121.77 737.5,124C 708.837,127.33 693.504,114.663 691.5,86C 694.009,55.5013 710.342,43.168 740.5,49C 754.927,55.0123 762.594,65.8456 763.5,81.5 Z M 721.5,60.5 C 730.36,58.7422 737.86,61.0756 744,67.5C 746.035,70.5612 747.201,73.8945 747.5,77.5C 734.167,77.5 720.833,77.5 707.5,77.5C 709.294,69.3803 713.961,63.7136 721.5,60.5 Z"/></g>
<g><path style="opacity:0.935" fill="#fefffe" d="M 378.5,49.5 C 383.5,49.5 388.5,49.5 393.5,49.5C 393.333,66.5033 393.5,83.5033 394,100.5C 396.403,108.372 401.737,112.039 410,111.5C 419.028,111.485 425.028,107.152 428,98.5C 429.423,82.2153 429.923,65.882 429.5,49.5C 434.167,49.5 438.833,49.5 443.5,49.5C 443.5,73.8333 443.5,98.1667 443.5,122.5C 438.833,122.5 434.167,122.5 429.5,122.5C 429.664,119.813 429.497,117.146 429,114.5C 419.378,124.457 407.878,127.29 394.5,123C 385.05,118.535 379.883,111.035 379,100.5C 378.5,83.5033 378.333,66.5033 378.5,49.5 Z"/></g>
<g><path style="opacity:0.935" fill="#fefffe" d="M 529.5,49.5 C 534.5,49.5 539.5,49.5 544.5,49.5C 544.333,66.5033 544.5,83.5033 545,100.5C 547.403,108.372 552.737,112.039 561,111.5C 570.028,111.485 576.028,107.152 579,98.5C 580.423,82.2153 580.923,65.882 580.5,49.5C 585.167,49.5 589.833,49.5 594.5,49.5C 594.5,73.8333 594.5,98.1667 594.5,122.5C 589.833,122.5 585.167,122.5 580.5,122.5C 580.664,119.813 580.497,117.146 580,114.5C 570.378,124.457 558.878,127.29 545.5,123C 536.05,118.535 530.883,111.035 530,100.5C 529.5,83.5033 529.333,66.5033 529.5,49.5 Z"/></g>
<g><path style="opacity:0.004" fill="#1a72e8" d="M 200.5,69.5 C 201.833,70.1667 201.833,70.1667 200.5,69.5 Z"/></g>
<g><path style="opacity:0.008" fill="#1a72e8" d="M 199.5,82.5 C 199.83,86.5288 200.163,90.6954 200.5,95C 200.158,97.4922 198.825,98.4922 196.5,98C 197.981,92.954 198.981,87.7873 199.5,82.5 Z"/></g>
<g><path style="opacity:0.004" fill="#1a72e8" d="M 194.5,104.5 C 195.376,104.369 196.043,104.702 196.5,105.5C 196.113,108.206 195.113,110.539 193.5,112.5C 193.167,112.333 192.833,112.167 192.5,112C 193.867,109.699 194.534,107.199 194.5,104.5 Z"/></g>
</svg>
