<?xml version="1.0" encoding="UTF-8"?>
<!DOCTYPE svg PUBLIC "-//W3C//DTD SVG 1.1//EN" "http://www.w3.org/Graphics/SVG/1.1/DTD/svg11.dtd">
<svg xmlns="http://www.w3.org/2000/svg" version="1.1" width="785px" height="134px" style="shape-rendering:geometricPrecision; text-rendering:geometricPrecision; image-rendering:optimizeQuality; fill-rule:evenodd; clip-rule:evenodd" xmlns:xlink="http://www.w3.org/1999/xlink">
<g><path style="opacity:0.972" fill="#1a73e8" d="M 44.5,-0.5 C 78.5,-0.5 112.5,-0.5 146.5,-0.5C 155.427,0.579991 164.427,2.07999 173.5,4C 176.418,5.70876 179.252,7.54209 182,9.5C 183.634,12.48 185.3,15.48 187,18.5C 192.985,50.8252 192.985,83.1585 187,115.5C 184.5,122 180,126.5 173.5,129C 165.782,130.949 158.116,132.449 150.5,133.5C 113.167,133.5 75.8333,133.5 38.5,133.5C 31.2387,132.34 23.9054,130.84 16.5,129C 14.404,127.234 12.0707,125.901 9.5,125C 8.18107,122.715 6.68107,120.548 5,118.5C 2.69968,110.806 0.866349,103.14 -0.5,95.5C -0.5,76.1667 -0.5,56.8333 -0.5,37.5C 0.784944,30.9252 2.28494,24.2585 4,17.5C 6.46017,11.4078 10.6268,6.90782 16.5,4C 25.9114,2.06283 35.2447,0.56283 44.5,-0.5 Z"/></g>
<g><path style="opacity:0.917" fill="#fefffe" d="M 238.5,17.5 C 244.346,16.1834 250.346,16.1834 256.5,17.5C 265,31.1667 273.5,44.8333 282,58.5C 290.167,44.8333 298.333,31.1667 306.5,17.5C 312.472,16.3364 318.472,16.1697 324.5,17C 312.624,35.2482 301.124,53.7482 290,72.5C 289.5,89.1633 289.333,105.83 289.5,122.5C 284.5,122.5 279.5,122.5 274.5,122.5C 274.667,105.83 274.5,89.1633 274,72.5C 262.304,53.9919 250.47,35.6586 238.5,17.5 Z"/></g>
<g><path style="opacity:0.978" fill="#fefffe" d="M 475.5,16.5 C 500.167,16.5 524.833,16.5 549.5,16.5C 549.5,20.8333 549.5,25.1667 549.5,29.5C 539.5,29.5 529.5,29.5 519.5,29.5C 519.5,60.5 519.5,91.5 519.5,122.5C 514.833,122.5 510.167,122.5 505.5,122.5C 505.5,91.5 505.5,60.5 505.5,29.5C 495.5,29.5 485.5,29.5 475.5,29.5C 475.5,25.1667 475.5,20.8333 475.5,16.5 Z"/></g>
<g><path style="opacity:0.936" fill="#fefffe" d="M 631.5,16.5 C 636.167,16.5 640.833,16.5 645.5,16.5C 645.333,30.504 645.5,44.504 646,58.5C 654.536,48.4335 665.369,44.9335 678.5,48C 695.569,54.7629 704.569,67.4295 705.5,86C 704.906,100.859 698.573,112.526 686.5,121C 673.583,126.477 661.25,125.477 649.5,118C 647.951,116.786 646.785,115.286 646,113.5C 645.502,116.482 645.335,119.482 645.5,122.5C 640.833,122.5 636.167,122.5 631.5,122.5C 631.5,87.1667 631.5,51.8333 631.5,16.5 Z M 661.5,60.5 C 679.707,59.2038 689.374,67.7038 690.5,86C 688.5,107.658 677.166,115.324 656.5,109C 644.459,97.5446 642.292,84.3779 650,69.5C 653.183,65.4622 657.016,62.4622 661.5,60.5 Z"/></g>
<g><path style="opacity:1" fill="#fafafe" d="M 75.5,37.5 C 77.2624,37.3573 78.9291,37.6906 80.5,38.5C 95.8333,47.8333 111.167,57.1667 126.5,66.5C 118.409,72.5011 109.742,77.6678 100.5,82C 92.9948,88.0851 84.6615,92.5851 75.5,95.5C 75.5,76.1667 75.5,56.8333 75.5,37.5 Z"/></g>
<g><path style="opacity:0.921" fill="#fefffe" d="M 342.5,47.5 C 375.831,45.4818 391.331,61.1485 389,94.5C 382.466,118.036 366.966,127.869 342.5,124C 327.564,120.064 318.398,110.564 315,95.5C 311.08,71.6427 320.247,55.6427 342.5,47.5 Z M 345.5,60.5 C 363.571,59.399 373.571,67.899 375.5,86C 372.756,107.427 361.09,115.094 340.5,109C 329.387,99.8006 326.22,88.3006 331,74.5C 333.871,67.6746 338.704,63.0079 345.5,60.5 Z"/></g>
<g><path style="opacity:0.933" fill="#fefffe" d="M 784.5,81.5 C 784.5,83.8333 784.5,86.1667 784.5,88.5C 765.5,88.5 746.5,88.5 727.5,88.5C 729.227,106.046 738.894,113.546 756.5,111C 762.257,108.233 767.091,104.4 771,99.5C 775.251,101.039 779.085,103.206 782.5,106C 777.388,115.77 769.388,121.77 758.5,124C 729.837,127.33 714.504,114.663 712.5,86C 715.009,55.5013 731.342,43.168 761.5,49C 775.927,55.0123 783.594,65.8456 784.5,81.5 Z M 742.5,60.5 C 751.36,58.7422 758.86,61.0756 765,67.5C 767.035,70.5612 768.201,73.8945 768.5,77.5C 755.167,77.5 741.833,77.5 728.5,77.5C 730.294,69.3803 734.961,63.7136 742.5,60.5 Z"/></g>
<g><path style="opacity:0.935" fill="#fefffe" d="M 399.5,49.5 C 404.5,49.5 409.5,49.5 414.5,49.5C 414.333,66.5033 414.5,83.5033 415,100.5C 417.403,108.372 422.737,112.039 431,111.5C 440.028,111.485 446.028,107.152 449,98.5C 450.423,82.2153 450.923,65.882 450.5,49.5C 455.167,49.5 459.833,49.5 464.5,49.5C 464.5,73.8333 464.5,98.1667 464.5,122.5C 459.833,122.5 455.167,122.5 450.5,122.5C 450.664,119.813 450.497,117.146 450,114.5C 440.378,124.457 428.878,127.29 415.5,123C 406.05,118.535 400.883,111.035 400,100.5C 399.5,83.5033 399.333,66.5033 399.5,49.5 Z"/></g>
<g><path style="opacity:0.935" fill="#fefffe" d="M 550.5,49.5 C 555.5,49.5 560.5,49.5 565.5,49.5C 565.333,66.5033 565.5,83.5033 566,100.5C 568.403,108.372 573.737,112.039 582,111.5C 591.028,111.485 597.028,107.152 600,98.5C 601.423,82.2153 601.923,65.882 601.5,49.5C 606.167,49.5 610.833,49.5 615.5,49.5C 615.5,73.8333 615.5,98.1667 615.5,122.5C 610.833,122.5 606.167,122.5 601.5,122.5C 601.664,119.813 601.497,117.146 601,114.5C 591.378,124.457 579.878,127.29 566.5,123C 557.05,118.535 551.883,111.035 551,100.5C 550.5,83.5033 550.333,66.5033 550.5,49.5 Z"/></g>
</svg>
