<?xml version="1.0" encoding="UTF-8"?>
<!DOCTYPE svg PUBLIC "-//W3C//DTD SVG 1.1//EN" "http://www.w3.org/Graphics/SVG/1.1/DTD/svg11.dtd">
<svg xmlns="http://www.w3.org/2000/svg" version="1.1" width="191px" height="134px" style="shape-rendering:geometricPrecision; text-rendering:geometricPrecision; image-rendering:optimizeQuality; fill-rule:evenodd; clip-rule:evenodd" xmlns:xlink="http://www.w3.org/1999/xlink">
<g><path style="opacity:0.971" fill="#1a73e8" d="M 45.5,-0.5 C 78.5,-0.5 111.5,-0.5 144.5,-0.5C 154.099,0.468348 163.766,1.96835 173.5,4C 176.167,5.66667 178.833,7.33333 181.5,9C 183.333,12.1667 185.167,15.3333 187,18.5C 188.044,25.6637 189.211,32.6637 190.5,39.5C 190.5,58.1667 190.5,76.8333 190.5,95.5C 189.211,102.336 188.044,109.336 187,116.5C 184.746,120.007 182.746,123.673 181,127.5C 180.097,128.701 178.931,129.535 177.5,130C 171.794,130.047 166.461,131.214 161.5,133.5C 116.5,133.5 71.5,133.5 26.5,133.5C 19.5164,131.761 13.0164,128.761 7,124.5C 3.41173,117.769 0.911726,110.769 -0.5,103.5C -0.5,78.8333 -0.5,54.1667 -0.5,29.5C 1.53473,23.5712 3.70139,17.5712 6,11.5C 9.72052,7.44949 14.2205,4.61616 19.5,3C 28.2922,1.65238 36.9588,0.485717 45.5,-0.5 Z"/></g>
<g><path style="opacity:0.988" fill="#8ab6f2" d="M 77.5,38.5 C 75.5126,57.1373 74.846,76.1373 75.5,95.5C 74.503,76.3405 74.1697,57.0072 74.5,37.5C 75.791,37.2627 76.791,37.596 77.5,38.5 Z"/></g>
<g><path style="opacity:1" fill="#f8f8fd" d="M 77.5,38.5 C 93.94,47.2215 109.94,56.7215 125.5,67C 112.833,75 100.167,83 87.5,91C 83.5885,92.7913 79.5885,94.2913 75.5,95.5C 74.846,76.1373 75.5126,57.1373 77.5,38.5 Z"/></g>
</svg>
