<svg id="svg" version="1.1" xmlns="http://www.w3.org/2000/svg" xmlns:xlink="http://www.w3.org/1999/xlink" width="400" height="81.27853881278538" viewBox="0, 0, 400,81.27853881278538"><g id="svgg"><path id="path0" d="M150.500 17.583 C 150.500 17.843,150.594 18.000,150.750 18.000 C 150.887 18.000,151.000 18.112,151.000 18.250 C 151.000 18.387,151.075 18.500,151.167 18.500 C 151.258 18.500,151.333 18.688,151.333 18.917 C 151.333 19.176,151.428 19.333,151.583 19.333 C 151.721 19.333,151.833 19.438,151.833 19.566 C 151.833 19.693,151.946 19.841,152.083 19.894 C 152.221 19.946,152.333 20.142,152.333 20.328 C 152.333 20.514,152.390 20.667,152.458 20.668 C 152.527 20.669,152.731 21.007,152.912 21.418 C 153.093 21.830,153.337 22.167,153.454 22.167 C 153.571 22.167,153.667 22.354,153.667 22.583 C 153.667 22.843,153.761 23.000,153.917 23.000 C 154.054 23.000,154.167 23.113,154.167 23.250 C 154.167 23.387,154.242 23.500,154.333 23.500 C 154.425 23.500,154.500 23.652,154.500 23.839 C 154.500 24.025,154.612 24.220,154.750 24.273 C 154.887 24.326,155.000 24.494,155.000 24.647 C 155.000 24.800,155.225 25.172,155.500 25.473 C 155.775 25.774,156.000 26.139,156.000 26.283 C 156.000 26.427,156.188 26.719,156.417 26.931 C 156.646 27.144,156.833 27.471,156.833 27.659 C 156.833 27.851,156.943 28.000,157.083 28.000 C 157.224 28.000,157.333 28.149,157.333 28.339 C 157.333 28.525,157.446 28.720,157.583 28.773 C 157.721 28.826,157.833 28.973,157.833 29.101 C 157.833 29.229,157.908 29.333,158.000 29.333 C 158.092 29.333,158.167 29.478,158.167 29.655 C 158.167 29.832,158.279 30.089,158.417 30.226 C 158.554 30.364,158.667 30.557,158.667 30.655 C 158.667 30.753,158.779 30.833,158.917 30.833 C 159.072 30.833,159.167 30.991,159.167 31.250 C 159.167 31.479,159.260 31.667,159.375 31.668 C 159.590 31.669,160.000 32.401,160.000 32.783 C 160.000 32.902,160.112 33.000,160.250 33.000 C 160.406 33.000,160.500 33.158,160.500 33.422 C 160.500 33.654,160.612 33.887,160.750 33.940 C 160.887 33.992,161.000 34.132,161.000 34.250 C 161.000 34.368,161.112 34.508,161.250 34.560 C 161.387 34.613,161.500 34.809,161.500 34.995 C 161.500 35.181,161.575 35.333,161.667 35.333 C 161.758 35.333,161.833 35.446,161.833 35.583 C 161.833 35.721,161.946 35.833,162.083 35.833 C 162.239 35.833,162.333 35.991,162.333 36.250 C 162.333 36.509,162.428 36.667,162.583 36.667 C 162.728 36.667,162.833 36.817,162.833 37.023 C 162.833 37.218,163.021 37.552,163.250 37.765 C 163.479 37.977,163.667 38.307,163.667 38.497 C 163.667 38.688,163.779 38.887,163.917 38.940 C 164.054 38.992,164.167 39.140,164.167 39.268 C 164.167 39.396,164.279 39.500,164.417 39.500 C 164.572 39.500,164.667 39.657,164.667 39.917 C 164.667 40.146,164.734 40.333,164.815 40.333 C 164.897 40.333,165.011 40.521,165.068 40.750 C 165.126 40.979,165.247 41.167,165.337 41.167 C 165.426 41.167,165.500 41.279,165.500 41.417 C 165.500 41.554,165.612 41.667,165.750 41.667 C 165.906 41.667,166.000 41.825,166.000 42.089 C 166.000 42.321,166.112 42.554,166.250 42.606 C 166.387 42.659,166.500 42.807,166.500 42.934 C 166.500 43.062,166.575 43.167,166.667 43.167 C 166.776 43.167,166.833 47.056,166.833 54.500 L 166.833 65.833 170.500 65.833 L 174.167 65.833 174.167 54.437 C 174.167 44.510,174.199 43.014,174.417 42.833 C 174.554 42.719,174.667 42.531,174.667 42.414 C 174.667 42.298,174.779 42.159,174.917 42.106 C 175.054 42.054,175.167 41.858,175.167 41.672 C 175.167 41.486,175.242 41.333,175.333 41.333 C 175.425 41.333,175.500 41.229,175.500 41.101 C 175.500 40.973,175.612 40.826,175.750 40.773 C 175.887 40.720,176.000 40.487,176.000 40.255 C 176.000 39.991,176.094 39.833,176.250 39.833 C 176.406 39.833,176.500 39.676,176.500 39.417 C 176.500 39.157,176.594 39.000,176.750 39.000 C 176.887 39.000,177.000 38.887,177.000 38.750 C 177.000 38.612,177.075 38.500,177.167 38.500 C 177.258 38.500,177.333 38.313,177.333 38.083 C 177.333 37.840,177.429 37.667,177.564 37.667 C 177.691 37.667,177.842 37.535,177.900 37.375 C 178.042 36.981,178.420 36.347,178.647 36.119 C 178.750 36.017,178.833 35.798,178.833 35.633 C 178.833 35.468,178.908 35.333,179.000 35.333 C 179.092 35.333,179.167 35.221,179.167 35.083 C 179.167 34.946,179.279 34.833,179.417 34.833 C 179.572 34.833,179.667 34.676,179.667 34.417 C 179.667 34.157,179.761 34.000,179.917 34.000 C 180.054 34.000,180.167 33.882,180.167 33.739 C 180.167 33.595,180.354 33.232,180.583 32.931 C 180.813 32.631,181.000 32.224,181.000 32.026 C 181.000 31.818,181.105 31.667,181.250 31.667 C 181.387 31.667,181.500 31.562,181.500 31.434 C 181.500 31.307,181.612 31.159,181.750 31.106 C 181.887 31.054,182.000 30.866,182.000 30.690 C 182.000 30.513,182.112 30.326,182.250 30.273 C 182.387 30.220,182.500 30.005,182.500 29.795 C 182.500 29.582,182.684 29.274,182.917 29.100 C 183.155 28.921,183.333 28.618,183.333 28.393 C 183.333 28.155,183.432 28.000,183.583 28.000 C 183.721 28.000,183.833 27.887,183.833 27.750 C 183.833 27.613,183.908 27.500,184.000 27.500 C 184.092 27.500,184.167 27.313,184.167 27.083 C 184.167 26.824,184.261 26.667,184.417 26.667 C 184.554 26.667,184.667 26.519,184.667 26.339 C 184.667 26.159,184.892 25.781,185.167 25.500 C 185.442 25.219,185.667 24.841,185.667 24.661 C 185.667 24.481,185.742 24.333,185.833 24.333 C 185.925 24.333,186.000 24.221,186.000 24.083 C 186.000 23.946,186.074 23.833,186.163 23.833 C 186.253 23.833,186.374 23.646,186.432 23.417 C 186.489 23.188,186.641 23.000,186.768 23.000 C 186.896 23.000,187.000 22.854,187.000 22.675 C 187.000 22.497,187.188 22.148,187.417 21.901 C 187.646 21.654,187.833 21.275,187.833 21.059 C 187.833 20.821,187.932 20.667,188.083 20.667 C 188.239 20.667,188.333 20.509,188.333 20.250 C 188.333 19.991,188.428 19.833,188.583 19.833 C 188.721 19.833,188.833 19.721,188.833 19.583 C 188.833 19.446,188.907 19.333,188.997 19.333 C 189.087 19.333,189.207 19.146,189.265 18.917 C 189.322 18.687,189.436 18.500,189.518 18.500 C 189.600 18.500,189.667 18.391,189.667 18.258 C 189.667 18.125,189.791 17.947,189.942 17.862 C 190.108 17.769,190.177 17.600,190.114 17.437 C 190.022 17.197,189.528 17.167,185.755 17.167 L 181.500 17.167 181.500 17.583 C 181.500 17.843,181.406 18.000,181.250 18.000 C 181.112 18.000,181.000 18.112,181.000 18.250 C 181.000 18.387,180.925 18.500,180.833 18.500 C 180.742 18.500,180.667 18.688,180.667 18.917 C 180.667 19.176,180.572 19.333,180.417 19.333 C 180.250 19.333,180.167 19.500,180.167 19.833 C 180.167 20.167,180.083 20.333,179.917 20.333 C 179.779 20.333,179.667 20.446,179.667 20.583 C 179.667 20.721,179.593 20.833,179.503 20.833 C 179.413 20.833,179.293 21.021,179.235 21.250 C 179.178 21.479,179.064 21.667,178.982 21.667 C 178.900 21.667,178.833 21.812,178.833 21.990 C 178.833 22.167,178.608 22.559,178.333 22.860 C 178.058 23.161,177.833 23.533,177.833 23.686 C 177.833 23.839,177.721 24.008,177.583 24.060 C 177.446 24.113,177.333 24.309,177.333 24.495 C 177.333 24.681,177.258 24.833,177.167 24.833 C 177.075 24.833,177.000 24.938,177.000 25.066 C 177.000 25.193,176.887 25.341,176.750 25.394 C 176.612 25.446,176.500 25.634,176.500 25.810 C 176.500 25.987,176.387 26.174,176.250 26.227 C 176.112 26.280,176.000 26.471,176.000 26.653 C 176.000 26.834,175.813 27.185,175.583 27.432 C 175.354 27.680,175.167 28.021,175.167 28.191 C 175.167 28.361,175.054 28.500,174.917 28.500 C 174.762 28.500,174.667 28.656,174.667 28.908 C 174.667 29.133,174.572 29.377,174.457 29.450 C 174.341 29.523,174.099 29.865,173.919 30.208 C 173.738 30.552,173.533 30.833,173.462 30.833 C 173.391 30.833,173.333 31.021,173.333 31.250 C 173.333 31.509,173.239 31.667,173.083 31.667 C 172.936 31.667,172.832 31.821,172.830 32.042 C 172.829 32.248,172.641 32.593,172.414 32.809 C 172.186 33.025,172.000 33.381,172.000 33.601 C 172.000 33.845,171.903 34.000,171.750 34.000 C 171.610 34.000,171.500 34.149,171.500 34.339 C 171.500 34.525,171.387 34.720,171.250 34.773 C 171.112 34.826,171.000 34.936,171.000 35.018 C 171.000 35.163,170.398 35.833,170.268 35.833 C 170.232 35.833,170.156 35.646,170.098 35.417 C 170.041 35.188,169.920 35.000,169.830 35.000 C 169.740 35.000,169.667 34.887,169.667 34.750 C 169.667 34.612,169.554 34.500,169.417 34.500 C 169.250 34.500,169.167 34.333,169.167 34.000 C 169.167 33.667,169.083 33.500,168.917 33.500 C 168.779 33.500,168.667 33.387,168.667 33.250 C 168.667 33.112,168.592 33.000,168.500 33.000 C 168.408 33.000,168.333 32.848,168.333 32.661 C 168.333 32.475,168.221 32.280,168.083 32.227 C 167.946 32.174,167.833 31.952,167.833 31.732 C 167.833 31.489,167.736 31.333,167.583 31.333 C 167.446 31.333,167.333 31.221,167.333 31.083 C 167.333 30.946,167.221 30.833,167.083 30.833 C 166.917 30.833,166.833 30.667,166.833 30.333 C 166.833 30.058,166.760 29.833,166.670 29.833 C 166.580 29.833,166.459 29.646,166.402 29.417 C 166.344 29.188,166.230 29.000,166.149 29.000 C 166.067 29.000,166.000 28.887,166.000 28.750 C 166.000 28.613,165.887 28.500,165.750 28.500 C 165.594 28.500,165.500 28.343,165.500 28.083 C 165.500 27.824,165.406 27.667,165.250 27.667 C 165.099 27.667,165.000 27.512,165.000 27.274 C 165.000 27.059,164.813 26.680,164.583 26.432 C 164.354 26.185,164.167 25.837,164.167 25.658 C 164.167 25.479,164.062 25.333,163.935 25.333 C 163.807 25.333,163.656 25.146,163.598 24.917 C 163.541 24.688,163.420 24.500,163.330 24.500 C 163.240 24.500,163.167 24.387,163.167 24.250 C 163.167 24.113,163.092 24.000,163.000 24.000 C 162.908 24.000,162.833 23.810,162.833 23.578 C 162.833 23.346,162.721 23.113,162.583 23.060 C 162.446 23.008,162.333 22.868,162.333 22.750 C 162.333 22.632,162.221 22.492,162.083 22.440 C 161.946 22.387,161.833 22.191,161.833 22.005 C 161.833 21.815,161.724 21.667,161.583 21.667 C 161.428 21.667,161.333 21.509,161.333 21.250 C 161.333 21.021,161.258 20.833,161.167 20.833 C 161.075 20.833,161.000 20.721,161.000 20.583 C 161.000 20.446,160.887 20.333,160.750 20.333 C 160.583 20.333,160.500 20.167,160.500 19.833 C 160.500 19.500,160.417 19.333,160.250 19.333 C 160.106 19.333,160.000 19.183,160.000 18.977 C 160.000 18.782,159.813 18.448,159.583 18.235 C 159.354 18.023,159.167 17.696,159.167 17.508 C 159.167 17.173,159.089 17.167,154.833 17.167 L 150.500 17.167 150.500 17.583 M258.667 20.333 L 258.667 23.500 265.500 23.500 L 272.333 23.500 272.333 44.667 L 272.333 65.833 275.750 65.833 L 279.167 65.833 279.167 44.667 L 279.167 23.500 286.083 23.500 L 293.000 23.500 293.000 20.333 L 293.000 17.167 275.833 17.167 L 258.667 17.167 258.667 20.333 M329.833 41.500 L 329.833 65.833 333.333 65.833 L 336.833 65.833 336.833 64.250 C 336.833 62.425,336.801 62.461,337.647 63.333 C 338.003 63.700,338.453 64.000,338.647 64.000 C 338.850 64.000,339.000 64.107,339.000 64.250 C 339.000 64.387,339.112 64.500,339.250 64.500 C 339.387 64.500,339.500 64.612,339.500 64.750 C 339.500 64.906,339.658 65.000,339.922 65.000 C 340.154 65.000,340.387 65.113,340.440 65.250 C 340.492 65.388,340.715 65.500,340.934 65.500 C 341.154 65.500,341.333 65.575,341.333 65.667 C 341.333 65.758,341.523 65.833,341.755 65.833 C 341.987 65.833,342.220 65.946,342.273 66.083 C 342.335 66.245,342.593 66.333,343.000 66.333 C 343.407 66.333,343.665 66.422,343.727 66.583 C 343.808 66.796,344.413 66.833,347.750 66.833 C 351.087 66.833,351.692 66.796,351.773 66.583 C 351.836 66.420,352.095 66.333,352.518 66.333 C 352.983 66.333,353.167 66.263,353.167 66.083 C 353.167 65.916,353.334 65.833,353.669 65.833 C 354.205 65.833,354.831 65.550,355.050 65.208 C 355.123 65.094,355.332 65.000,355.514 65.000 C 355.695 65.000,355.887 64.887,355.940 64.750 C 355.992 64.612,356.180 64.500,356.356 64.500 C 356.533 64.500,356.720 64.387,356.773 64.250 C 356.826 64.112,356.942 64.000,357.031 64.000 C 357.251 64.000,358.167 63.070,358.167 62.846 C 358.167 62.747,358.279 62.667,358.417 62.667 C 358.554 62.667,358.667 62.554,358.667 62.417 C 358.667 62.279,358.747 62.167,358.846 62.167 C 359.070 62.167,360.000 61.251,360.000 61.031 C 360.000 60.942,360.113 60.826,360.250 60.773 C 360.387 60.720,360.500 60.525,360.500 60.339 C 360.500 60.149,360.610 60.000,360.750 60.000 C 360.887 60.000,361.000 59.887,361.000 59.750 C 361.000 59.612,361.075 59.500,361.167 59.500 C 361.258 59.500,361.333 59.321,361.333 59.101 C 361.333 58.882,361.446 58.659,361.583 58.606 C 361.721 58.554,361.833 58.321,361.833 58.089 C 361.833 57.825,361.927 57.667,362.083 57.667 C 362.240 57.667,362.333 57.509,362.333 57.245 C 362.333 57.013,362.446 56.780,362.583 56.727 C 362.746 56.664,362.833 56.405,362.833 55.982 C 362.833 55.625,362.908 55.333,363.000 55.333 C 363.092 55.333,363.167 55.041,363.167 54.684 C 363.167 54.262,363.254 54.002,363.417 53.940 C 363.617 53.863,363.667 53.497,363.667 52.106 C 363.667 50.716,363.717 50.350,363.917 50.273 C 364.106 50.200,364.167 49.893,364.167 49.000 C 364.167 48.107,364.106 47.800,363.917 47.727 C 363.719 47.651,363.667 47.305,363.667 46.077 C 363.667 44.919,363.603 44.460,363.417 44.274 C 363.276 44.133,363.167 43.726,363.167 43.345 C 363.167 42.972,363.092 42.667,363.000 42.667 C 362.908 42.667,362.833 42.402,362.833 42.078 C 362.833 41.709,362.740 41.454,362.583 41.394 C 362.441 41.339,362.333 41.090,362.333 40.816 C 362.333 40.498,362.248 40.333,362.083 40.333 C 361.928 40.333,361.833 40.176,361.833 39.917 C 361.833 39.657,361.739 39.500,361.583 39.500 C 361.431 39.500,361.333 39.345,361.333 39.101 C 361.333 38.881,361.147 38.525,360.920 38.309 C 360.692 38.093,360.504 37.783,360.503 37.620 C 360.501 37.456,360.387 37.280,360.250 37.227 C 360.113 37.174,360.000 37.039,360.000 36.927 C 360.000 36.815,359.813 36.623,359.583 36.500 C 359.354 36.377,359.167 36.177,359.167 36.055 C 359.167 35.933,359.054 35.833,358.917 35.833 C 358.779 35.833,358.667 35.721,358.667 35.583 C 358.667 35.446,358.554 35.333,358.417 35.333 C 358.279 35.333,358.167 35.234,358.167 35.111 C 358.167 34.989,357.979 34.789,357.750 34.667 C 357.521 34.544,357.332 34.363,357.331 34.264 C 357.330 34.164,357.035 33.942,356.674 33.769 C 356.314 33.597,355.979 33.353,355.931 33.228 C 355.883 33.102,355.654 33.000,355.422 33.000 C 355.190 33.000,355.000 32.925,355.000 32.833 C 355.000 32.742,354.920 32.667,354.821 32.667 C 354.723 32.667,354.530 32.554,354.393 32.417 C 354.255 32.279,353.923 32.167,353.655 32.167 C 353.332 32.167,353.167 32.082,353.167 31.917 C 353.167 31.737,352.983 31.667,352.514 31.667 C 352.140 31.667,351.831 31.578,351.792 31.458 C 351.739 31.299,350.780 31.250,347.750 31.250 C 344.720 31.250,343.761 31.299,343.708 31.458 C 343.669 31.576,343.364 31.667,343.004 31.667 C 342.593 31.667,342.335 31.755,342.273 31.917 C 342.220 32.054,341.987 32.167,341.755 32.167 C 341.491 32.167,341.333 32.260,341.333 32.417 C 341.333 32.571,341.177 32.667,340.927 32.667 C 340.703 32.667,340.473 32.742,340.417 32.833 C 340.360 32.925,340.166 33.000,339.985 33.000 C 339.804 33.000,339.613 33.112,339.560 33.250 C 339.508 33.387,339.360 33.500,339.232 33.500 C 339.104 33.500,339.000 33.612,339.000 33.750 C 339.000 33.906,338.843 34.000,338.583 34.000 C 338.324 34.000,338.167 34.094,338.167 34.250 C 338.167 34.387,338.082 34.500,337.977 34.500 C 337.873 34.500,337.614 34.688,337.402 34.917 C 337.190 35.146,336.975 35.333,336.925 35.333 C 336.874 35.333,336.833 31.246,336.833 26.250 L 336.833 17.167 333.333 17.167 L 329.833 17.167 329.833 41.500 M46.836 40.683 C 46.837 50.070,46.894 57.670,46.961 57.571 C 47.028 57.473,47.196 57.342,47.333 57.281 C 47.471 57.219,47.696 57.103,47.833 57.022 C 47.971 56.941,48.421 56.705,48.833 56.497 C 49.246 56.289,49.733 55.994,49.917 55.842 C 50.100 55.690,50.550 55.420,50.917 55.241 C 51.283 55.063,51.808 54.755,52.083 54.557 C 52.358 54.359,53.183 53.883,53.917 53.499 C 54.650 53.115,55.352 52.717,55.476 52.615 C 55.750 52.391,56.325 52.050,56.667 51.911 C 56.804 51.855,57.029 51.739,57.167 51.654 C 57.304 51.568,57.529 51.449,57.667 51.388 C 57.804 51.328,58.140 51.123,58.413 50.931 C 59.011 50.512,59.496 50.218,59.833 50.070 C 60.962 49.573,61.486 49.287,61.794 49.001 C 61.991 48.817,62.259 48.667,62.389 48.667 C 62.519 48.667,62.719 48.554,62.833 48.417 C 62.947 48.279,63.112 48.167,63.198 48.167 C 63.285 48.167,63.601 47.979,63.902 47.750 C 64.202 47.521,64.526 47.333,64.620 47.333 C 64.715 47.333,64.886 47.221,65.000 47.083 C 65.114 46.946,65.339 46.833,65.500 46.833 C 65.661 46.833,65.886 46.721,66.000 46.583 C 66.114 46.446,66.335 46.333,66.491 46.333 C 66.647 46.333,66.951 46.146,67.167 45.917 C 67.382 45.688,67.648 45.500,67.759 45.500 C 67.869 45.500,68.053 45.387,68.167 45.250 C 68.281 45.112,68.506 45.000,68.667 45.000 C 68.828 45.000,69.053 44.887,69.167 44.750 C 69.281 44.612,69.497 44.500,69.647 44.500 C 69.797 44.500,70.107 44.328,70.335 44.117 C 70.563 43.907,71.106 43.563,71.541 43.353 C 71.976 43.143,72.374 42.903,72.426 42.819 C 72.477 42.735,72.647 42.667,72.803 42.667 C 72.959 42.667,73.289 42.479,73.536 42.250 C 73.783 42.021,74.101 41.833,74.243 41.833 C 74.384 41.833,74.500 41.760,74.500 41.670 C 74.500 41.580,74.682 41.461,74.904 41.405 C 76.044 41.119,75.936 40.229,74.720 39.901 C 74.521 39.847,74.323 39.714,74.282 39.605 C 74.218 39.440,73.213 38.881,72.167 38.428 C 71.874 38.302,71.588 38.127,70.300 37.287 C 69.777 36.946,69.242 36.667,69.112 36.667 C 68.981 36.667,68.781 36.554,68.667 36.417 C 68.553 36.279,68.388 36.167,68.302 36.167 C 68.215 36.167,67.899 35.979,67.598 35.750 C 67.298 35.521,66.974 35.333,66.880 35.333 C 66.785 35.333,66.614 35.221,66.500 35.083 C 66.386 34.946,66.186 34.833,66.055 34.833 C 65.924 34.833,65.390 34.555,64.867 34.215 C 64.344 33.875,63.560 33.422,63.125 33.208 C 62.690 32.995,62.333 32.767,62.333 32.702 C 62.333 32.601,61.170 31.958,60.333 31.595 C 60.027 31.463,59.568 31.190,58.912 30.750 C 58.092 30.200,57.763 30.003,57.500 29.904 C 57.362 29.852,57.137 29.739,57.000 29.654 C 56.862 29.568,56.637 29.450,56.500 29.391 C 56.362 29.332,56.025 29.126,55.750 28.933 C 55.475 28.740,54.725 28.322,54.083 28.003 C 53.442 27.684,52.730 27.253,52.502 27.045 C 52.273 26.837,51.964 26.667,51.814 26.667 C 51.664 26.667,51.447 26.554,51.333 26.417 C 51.219 26.279,51.032 26.167,50.917 26.167 C 50.802 26.167,50.620 26.061,50.513 25.932 C 50.406 25.803,50.078 25.576,49.784 25.427 C 49.490 25.279,49.137 25.090,49.000 25.007 C 48.862 24.925,48.637 24.812,48.500 24.755 C 48.067 24.579,47.515 24.232,47.168 23.918 L 46.833 23.615 46.836 40.683 M198.292 31.278 C 198.131 31.322,198.000 31.427,198.000 31.512 C 198.000 31.597,197.705 31.667,197.345 31.667 C 196.985 31.667,196.578 31.779,196.440 31.917 C 196.303 32.054,195.960 32.167,195.679 32.167 C 195.335 32.167,195.167 32.249,195.167 32.417 C 195.167 32.572,195.009 32.667,194.750 32.667 C 194.521 32.667,194.333 32.742,194.333 32.833 C 194.333 32.925,194.143 33.000,193.911 33.000 C 193.679 33.000,193.446 33.112,193.394 33.250 C 193.341 33.387,193.118 33.500,192.899 33.500 C 192.655 33.500,192.500 33.597,192.500 33.750 C 192.500 33.887,192.387 34.000,192.250 34.000 C 192.112 34.000,192.000 34.112,192.000 34.250 C 192.000 34.387,191.887 34.500,191.750 34.500 C 191.612 34.500,191.500 34.575,191.500 34.667 C 191.500 34.758,191.390 34.833,191.255 34.833 C 190.977 34.833,189.333 36.369,189.333 36.628 C 189.333 36.721,189.221 36.841,189.083 36.894 C 188.946 36.946,188.833 37.142,188.833 37.328 C 188.833 37.518,188.724 37.667,188.583 37.667 C 188.446 37.667,188.333 37.738,188.333 37.825 C 188.333 37.912,188.146 38.185,187.917 38.432 C 187.688 38.680,187.500 39.021,187.500 39.191 C 187.500 39.361,187.387 39.500,187.250 39.500 C 187.097 39.500,187.000 39.655,187.000 39.899 C 187.000 40.118,186.887 40.341,186.750 40.394 C 186.612 40.446,186.498 40.661,186.495 40.870 C 186.492 41.079,186.379 41.396,186.245 41.574 C 186.110 41.751,186.000 42.066,186.000 42.272 C 186.000 42.478,185.925 42.693,185.833 42.750 C 185.742 42.807,185.667 43.216,185.667 43.659 C 185.667 44.221,185.591 44.493,185.417 44.560 C 185.203 44.642,185.167 45.293,185.167 49.000 C 185.167 52.707,185.203 53.358,185.417 53.440 C 185.591 53.507,185.667 53.779,185.667 54.341 C 185.667 54.784,185.742 55.193,185.833 55.250 C 185.925 55.307,186.000 55.522,186.000 55.728 C 186.000 55.934,186.110 56.249,186.245 56.426 C 186.379 56.604,186.492 56.921,186.495 57.130 C 186.498 57.339,186.612 57.554,186.750 57.606 C 186.887 57.659,187.000 57.882,187.000 58.101 C 187.000 58.345,187.097 58.500,187.250 58.500 C 187.387 58.500,187.500 58.604,187.500 58.731 C 187.500 59.098,187.914 59.799,188.393 60.243 C 188.635 60.467,188.833 60.717,188.833 60.798 C 188.833 60.878,189.133 61.269,189.500 61.667 C 189.867 62.064,190.167 62.451,190.167 62.528 C 190.167 62.604,190.279 62.667,190.417 62.667 C 190.554 62.667,190.667 62.744,190.667 62.837 C 190.667 62.931,190.854 63.080,191.083 63.167 C 191.313 63.254,191.500 63.402,191.500 63.496 C 191.500 63.590,191.612 63.667,191.750 63.667 C 191.887 63.667,192.000 63.742,192.000 63.833 C 192.000 63.925,192.112 64.000,192.250 64.000 C 192.387 64.000,192.500 64.112,192.500 64.250 C 192.500 64.406,192.657 64.500,192.917 64.500 C 193.176 64.500,193.333 64.594,193.333 64.750 C 193.333 64.917,193.500 65.000,193.833 65.000 C 194.167 65.000,194.333 65.083,194.333 65.250 C 194.333 65.406,194.491 65.500,194.750 65.500 C 194.979 65.500,195.167 65.575,195.167 65.667 C 195.167 65.758,195.382 65.833,195.646 65.833 C 195.910 65.833,196.219 65.946,196.333 66.083 C 196.458 66.234,196.823 66.333,197.253 66.333 C 197.732 66.333,197.996 66.415,198.060 66.583 C 198.204 66.959,206.796 66.959,206.940 66.583 C 207.005 66.414,207.271 66.333,207.768 66.333 C 208.308 66.333,208.500 66.268,208.500 66.083 C 208.500 65.903,208.685 65.833,209.167 65.833 C 209.533 65.833,209.833 65.758,209.833 65.667 C 209.833 65.575,210.021 65.500,210.250 65.500 C 210.509 65.500,210.667 65.406,210.667 65.250 C 210.667 65.083,210.833 65.000,211.167 65.000 C 211.500 65.000,211.667 64.917,211.667 64.750 C 211.667 64.610,211.815 64.500,212.005 64.500 C 212.191 64.500,212.387 64.387,212.440 64.250 C 212.492 64.112,212.640 64.000,212.768 64.000 C 212.896 64.000,213.000 63.925,213.000 63.833 C 213.000 63.742,213.112 63.667,213.250 63.667 C 213.387 63.667,213.500 63.554,213.500 63.417 C 213.500 63.279,213.612 63.167,213.750 63.167 C 213.887 63.167,214.002 63.073,214.004 62.958 C 214.006 62.844,214.306 62.539,214.670 62.281 C 215.035 62.023,215.333 61.704,215.333 61.573 C 215.333 61.441,215.446 61.333,215.583 61.333 C 215.721 61.333,215.833 61.261,215.833 61.174 C 215.833 61.086,216.133 60.699,216.500 60.313 C 216.867 59.928,217.167 59.475,217.167 59.306 C 217.167 59.138,217.242 59.000,217.333 59.000 C 217.425 59.000,217.500 58.848,217.500 58.661 C 217.500 58.475,217.612 58.280,217.750 58.227 C 217.887 58.174,218.000 58.021,218.000 57.887 C 218.000 57.753,218.112 57.530,218.250 57.393 C 218.387 57.255,218.500 56.969,218.500 56.756 C 218.500 56.543,218.612 56.326,218.750 56.273 C 218.907 56.213,219.000 55.958,219.000 55.589 C 219.000 55.265,219.075 55.000,219.167 55.000 C 219.258 55.000,219.333 54.596,219.333 54.101 C 219.333 53.456,219.404 53.175,219.583 53.106 C 219.796 53.025,219.833 52.412,219.833 49.005 C 219.833 45.556,219.799 45.000,219.583 45.000 C 219.391 45.000,219.333 44.787,219.333 44.083 C 219.333 43.579,219.258 43.167,219.167 43.167 C 219.075 43.167,219.000 42.864,219.000 42.495 C 219.000 42.051,218.915 41.790,218.750 41.727 C 218.612 41.674,218.500 41.452,218.500 41.232 C 218.500 40.989,218.403 40.833,218.250 40.833 C 218.083 40.833,218.000 40.667,218.000 40.333 C 218.000 40.000,217.917 39.833,217.750 39.833 C 217.594 39.833,217.500 39.676,217.500 39.417 C 217.500 39.188,217.433 39.000,217.351 39.000 C 217.270 39.000,217.156 38.813,217.098 38.583 C 217.041 38.354,216.920 38.167,216.830 38.167 C 216.740 38.167,216.667 38.054,216.667 37.917 C 216.667 37.779,216.554 37.667,216.417 37.667 C 216.279 37.667,216.167 37.587,216.167 37.489 C 216.167 37.315,215.555 36.591,214.937 36.033 C 214.765 35.877,214.339 35.469,213.992 35.125 C 213.644 34.781,213.279 34.500,213.180 34.500 C 213.081 34.500,213.000 34.387,213.000 34.250 C 213.000 34.112,212.887 34.000,212.750 34.000 C 212.612 34.000,212.500 33.926,212.500 33.837 C 212.500 33.747,212.318 33.627,212.095 33.571 C 211.873 33.516,211.650 33.364,211.601 33.235 C 211.551 33.106,211.321 33.000,211.089 33.000 C 210.857 33.000,210.667 32.925,210.667 32.833 C 210.667 32.742,210.479 32.667,210.250 32.667 C 209.991 32.667,209.833 32.572,209.833 32.417 C 209.833 32.237,209.650 32.167,209.184 32.167 C 208.762 32.167,208.502 32.080,208.440 31.917 C 208.377 31.753,208.117 31.667,207.686 31.667 C 207.307 31.667,206.998 31.578,206.958 31.458 C 206.889 31.250,198.990 31.085,198.292 31.278 M379.407 31.411 C 379.229 31.546,378.807 31.658,378.470 31.661 C 378.133 31.664,377.745 31.779,377.607 31.917 C 377.470 32.054,377.164 32.167,376.929 32.167 C 376.659 32.167,376.500 32.259,376.500 32.417 C 376.500 32.571,376.344 32.667,376.093 32.667 C 375.869 32.667,375.640 32.742,375.583 32.833 C 375.527 32.925,375.332 33.000,375.152 33.000 C 374.971 33.000,374.780 33.112,374.727 33.250 C 374.674 33.387,374.535 33.500,374.417 33.500 C 374.299 33.500,374.159 33.612,374.106 33.750 C 374.054 33.887,373.858 34.000,373.672 34.000 C 373.482 34.000,373.333 34.110,373.333 34.250 C 373.333 34.387,373.221 34.500,373.083 34.500 C 372.946 34.500,372.833 34.575,372.833 34.667 C 372.833 34.758,372.721 34.833,372.583 34.833 C 372.446 34.833,372.333 34.946,372.333 35.083 C 372.333 35.221,372.258 35.333,372.167 35.333 C 372.075 35.333,372.000 35.446,372.000 35.583 C 372.000 35.721,371.887 35.833,371.750 35.833 C 371.613 35.833,371.500 35.946,371.500 36.083 C 371.500 36.221,371.419 36.333,371.321 36.333 C 371.028 36.333,370.167 37.282,370.160 37.612 C 370.156 37.780,369.931 38.101,369.660 38.326 C 369.375 38.561,369.167 38.896,369.167 39.117 C 369.167 39.346,369.066 39.500,368.917 39.500 C 368.761 39.500,368.667 39.657,368.667 39.917 C 368.667 40.146,368.592 40.333,368.500 40.333 C 368.408 40.333,368.333 40.558,368.333 40.833 C 368.333 41.167,368.250 41.333,368.083 41.333 C 367.904 41.333,367.833 41.517,367.833 41.982 C 367.833 42.405,367.746 42.664,367.583 42.727 C 367.408 42.794,367.333 43.068,367.333 43.648 C 367.333 44.159,367.254 44.499,367.125 44.542 C 366.965 44.595,366.917 45.637,366.917 49.000 C 366.917 52.363,366.965 53.405,367.125 53.458 C 367.254 53.501,367.333 53.841,367.333 54.352 C 367.333 54.932,367.408 55.206,367.583 55.273 C 367.746 55.336,367.833 55.595,367.833 56.018 C 367.833 56.483,367.904 56.667,368.083 56.667 C 368.250 56.667,368.333 56.833,368.333 57.167 C 368.333 57.442,368.408 57.667,368.500 57.667 C 368.592 57.667,368.667 57.846,368.667 58.066 C 368.667 58.285,368.779 58.508,368.917 58.560 C 369.054 58.613,369.167 58.811,369.167 59.000 C 369.167 59.189,369.279 59.387,369.417 59.440 C 369.554 59.492,369.667 59.640,369.667 59.768 C 369.667 59.896,369.761 60.000,369.876 60.000 C 369.991 60.000,370.191 60.244,370.320 60.542 C 370.571 61.123,371.538 62.167,371.825 62.167 C 371.921 62.167,372.000 62.247,372.000 62.346 C 372.000 62.636,372.870 63.423,373.544 63.743 C 373.886 63.905,374.167 64.142,374.167 64.269 C 374.167 64.405,374.340 64.500,374.589 64.500 C 374.821 64.500,375.054 64.612,375.106 64.750 C 375.159 64.887,375.307 65.000,375.434 65.000 C 375.562 65.000,375.667 65.061,375.667 65.135 C 375.667 65.339,376.886 65.833,377.389 65.833 C 377.673 65.833,377.833 65.924,377.833 66.083 C 377.833 66.275,378.046 66.333,378.750 66.333 C 379.454 66.333,379.667 66.391,379.667 66.583 C 379.667 66.799,380.259 66.833,384.000 66.833 C 387.741 66.833,388.333 66.799,388.333 66.583 C 388.333 66.391,388.546 66.333,389.250 66.333 C 389.954 66.333,390.167 66.275,390.167 66.083 C 390.167 65.903,390.352 65.833,390.833 65.833 C 391.200 65.833,391.500 65.758,391.500 65.667 C 391.500 65.575,391.645 65.500,391.821 65.500 C 391.998 65.500,392.255 65.388,392.393 65.250 C 392.530 65.112,392.763 65.000,392.910 65.000 C 393.057 65.000,393.220 64.887,393.273 64.750 C 393.326 64.612,393.473 64.500,393.601 64.500 C 393.729 64.500,393.833 64.387,393.833 64.250 C 393.833 64.094,393.991 64.000,394.250 64.000 C 394.479 64.000,394.667 63.925,394.667 63.833 C 394.667 63.742,394.779 63.667,394.917 63.667 C 395.054 63.667,395.167 63.554,395.167 63.417 C 395.167 63.279,395.279 63.167,395.417 63.167 C 395.554 63.167,395.667 63.054,395.667 62.917 C 395.667 62.779,395.779 62.667,395.917 62.667 C 396.054 62.667,396.167 62.567,396.167 62.445 C 396.167 62.323,396.354 62.123,396.583 62.000 C 396.813 61.877,397.000 61.677,397.000 61.555 C 397.000 61.433,397.113 61.333,397.250 61.333 C 397.387 61.333,397.500 61.221,397.500 61.083 C 397.500 60.946,397.585 60.833,397.690 60.833 C 397.948 60.833,398.322 60.318,398.328 59.953 C 398.331 59.790,398.446 59.613,398.583 59.560 C 398.721 59.508,398.833 59.360,398.833 59.232 C 398.833 59.104,398.950 59.000,399.092 59.000 C 399.630 59.000,399.341 57.260,398.792 57.197 C 398.540 57.168,398.333 57.075,398.333 56.989 C 398.333 56.903,398.146 56.833,397.917 56.833 C 397.657 56.833,397.500 56.739,397.500 56.583 C 397.500 56.417,397.333 56.333,397.000 56.333 C 396.667 56.333,396.500 56.250,396.500 56.083 C 396.500 55.931,396.345 55.833,396.101 55.833 C 395.882 55.833,395.659 55.721,395.606 55.583 C 395.554 55.446,395.321 55.333,395.089 55.333 C 394.857 55.333,394.667 55.258,394.667 55.167 C 394.667 55.075,394.330 55.000,393.919 55.000 C 393.060 55.000,392.500 55.376,392.500 55.954 C 392.500 56.180,392.399 56.333,392.250 56.333 C 392.113 56.333,392.000 56.446,392.000 56.583 C 392.000 56.721,391.920 56.833,391.821 56.833 C 391.591 56.833,391.167 57.257,391.167 57.488 C 391.167 57.586,391.054 57.667,390.917 57.667 C 390.779 57.667,390.667 57.779,390.667 57.917 C 390.667 58.054,390.554 58.167,390.417 58.167 C 390.279 58.167,390.167 58.279,390.167 58.417 C 390.167 58.554,390.054 58.667,389.917 58.667 C 389.779 58.667,389.667 58.734,389.667 58.815 C 389.667 58.897,389.479 59.011,389.250 59.068 C 389.021 59.126,388.833 59.247,388.833 59.337 C 388.833 59.426,388.681 59.500,388.495 59.500 C 388.309 59.500,388.113 59.612,388.060 59.750 C 388.006 59.893,387.757 60.000,387.482 60.000 C 387.165 60.000,387.000 60.085,387.000 60.250 C 387.000 60.462,386.583 60.500,384.250 60.500 C 381.917 60.500,381.500 60.462,381.500 60.250 C 381.500 60.069,381.315 60.000,380.833 60.000 C 380.352 60.000,380.167 59.931,380.167 59.750 C 380.167 59.583,380.000 59.500,379.667 59.500 C 379.333 59.500,379.167 59.417,379.167 59.250 C 379.167 59.112,379.054 59.000,378.917 59.000 C 378.779 59.000,378.667 58.925,378.667 58.833 C 378.667 58.742,378.479 58.667,378.250 58.667 C 377.991 58.667,377.833 58.572,377.833 58.417 C 377.833 58.279,377.721 58.167,377.583 58.167 C 377.446 58.167,377.333 58.086,377.333 57.987 C 377.333 57.754,376.413 56.833,376.179 56.833 C 376.081 56.833,376.000 56.643,376.000 56.411 C 376.000 56.179,375.887 55.946,375.750 55.894 C 375.613 55.841,375.500 55.693,375.500 55.566 C 375.500 55.438,375.425 55.333,375.333 55.333 C 375.242 55.333,375.167 55.155,375.167 54.937 C 375.167 54.719,375.054 54.447,374.917 54.333 C 374.779 54.219,374.667 53.915,374.667 53.658 C 374.667 53.401,374.554 53.078,374.417 52.940 C 374.242 52.765,374.167 52.337,374.167 51.512 L 374.167 50.333 387.083 50.333 L 400.000 50.333 399.986 48.958 C 399.958 46.156,399.756 43.780,399.542 43.708 C 399.412 43.665,399.333 43.326,399.333 42.814 C 399.333 42.235,399.259 41.961,399.083 41.894 C 398.943 41.840,398.833 41.592,398.833 41.327 C 398.833 41.069,398.721 40.745,398.583 40.607 C 398.446 40.470,398.333 40.164,398.333 39.929 C 398.333 39.693,398.258 39.500,398.167 39.500 C 398.075 39.500,398.000 39.360,398.000 39.189 C 398.000 39.018,397.776 38.625,397.503 38.314 C 397.229 38.004,397.004 37.619,397.003 37.458 C 397.001 37.298,396.887 37.167,396.750 37.167 C 396.613 37.167,396.500 37.086,396.500 36.988 C 396.500 36.890,396.406 36.705,396.292 36.577 C 395.805 36.035,395.667 35.839,395.667 35.693 C 395.667 35.608,395.460 35.405,395.208 35.243 C 394.956 35.080,394.690 34.847,394.617 34.724 C 394.543 34.601,394.337 34.500,394.158 34.500 C 393.980 34.500,393.833 34.387,393.833 34.250 C 393.833 34.112,393.721 34.000,393.583 34.000 C 393.446 34.000,393.333 33.887,393.333 33.750 C 393.333 33.609,393.184 33.500,392.992 33.500 C 392.804 33.500,392.477 33.313,392.265 33.083 C 392.049 32.851,391.692 32.667,391.457 32.667 C 391.225 32.667,390.992 32.554,390.940 32.417 C 390.880 32.260,390.625 32.167,390.255 32.167 C 389.843 32.167,389.667 32.092,389.667 31.917 C 389.667 31.725,389.456 31.667,388.768 31.667 C 388.123 31.667,387.842 31.596,387.773 31.417 C 387.632 31.049,379.893 31.044,379.407 31.411 M224.000 44.000 C 224.000 54.407,224.030 55.833,224.250 55.833 C 224.451 55.833,224.500 56.093,224.500 57.167 C 224.500 57.944,224.569 58.500,224.667 58.500 C 224.758 58.500,224.833 58.711,224.833 58.968 C 224.833 59.226,224.943 59.582,225.078 59.760 C 225.213 59.938,225.325 60.252,225.328 60.458 C 225.331 60.678,225.437 60.833,225.583 60.833 C 225.750 60.833,225.833 61.000,225.833 61.333 C 225.833 61.608,225.914 61.833,226.012 61.833 C 226.273 61.833,226.667 62.270,226.667 62.560 C 226.667 62.857,227.707 64.000,227.978 64.000 C 228.082 64.000,228.167 64.112,228.167 64.250 C 228.167 64.390,228.315 64.500,228.505 64.500 C 228.691 64.500,228.887 64.612,228.940 64.750 C 228.992 64.887,229.132 65.000,229.250 65.000 C 229.368 65.000,229.508 65.112,229.560 65.250 C 229.613 65.387,229.809 65.500,229.995 65.500 C 230.181 65.500,230.333 65.575,230.333 65.667 C 230.333 65.758,230.558 65.833,230.833 65.833 C 231.167 65.833,231.333 65.917,231.333 66.083 C 231.333 66.260,231.516 66.335,231.958 66.339 C 232.302 66.342,232.729 66.454,232.907 66.589 C 233.392 66.956,240.632 66.951,240.773 66.583 C 240.836 66.420,241.095 66.333,241.518 66.333 C 241.983 66.333,242.167 66.263,242.167 66.083 C 242.167 65.917,242.333 65.833,242.667 65.833 C 242.942 65.833,243.167 65.758,243.167 65.667 C 243.167 65.575,243.319 65.500,243.505 65.500 C 243.691 65.500,243.887 65.387,243.940 65.250 C 243.992 65.112,244.140 65.000,244.268 65.000 C 244.396 65.000,244.500 64.887,244.500 64.750 C 244.500 64.598,244.655 64.500,244.893 64.500 C 245.118 64.500,245.421 64.322,245.600 64.083 C 245.772 63.854,246.007 63.667,246.123 63.667 C 246.239 63.667,246.333 63.554,246.333 63.417 C 246.333 63.279,246.446 63.167,246.583 63.167 C 246.721 63.167,246.833 63.054,246.833 62.917 C 246.833 62.779,246.946 62.667,247.083 62.667 C 247.288 62.667,247.333 62.954,247.333 64.250 L 247.333 65.833 250.750 65.833 L 254.167 65.833 254.167 49.000 L 254.167 32.167 250.750 32.167 L 247.333 32.167 247.333 42.339 C 247.333 51.227,247.302 52.523,247.083 52.606 C 246.904 52.675,246.833 52.956,246.833 53.601 C 246.833 54.289,246.775 54.500,246.583 54.500 C 246.427 54.500,246.333 54.658,246.333 54.922 C 246.333 55.154,246.221 55.387,246.083 55.440 C 245.946 55.492,245.833 55.715,245.833 55.934 C 245.833 56.154,245.758 56.333,245.667 56.333 C 245.575 56.333,245.500 56.446,245.500 56.583 C 245.500 56.721,245.426 56.833,245.337 56.833 C 245.247 56.833,245.126 57.021,245.068 57.250 C 245.011 57.479,244.859 57.667,244.732 57.667 C 244.604 57.667,244.500 57.779,244.500 57.917 C 244.500 58.054,244.387 58.167,244.250 58.167 C 244.112 58.167,244.000 58.247,244.000 58.345 C 244.000 58.576,243.576 59.000,243.345 59.000 C 243.247 59.000,243.167 59.112,243.167 59.250 C 243.167 59.406,243.009 59.500,242.745 59.500 C 242.513 59.500,242.280 59.612,242.227 59.750 C 242.174 59.887,241.952 60.000,241.732 60.000 C 241.489 60.000,241.333 60.097,241.333 60.250 C 241.333 60.462,240.917 60.500,238.583 60.500 C 236.250 60.500,235.833 60.462,235.833 60.250 C 235.833 60.083,235.667 60.000,235.333 60.000 C 235.000 60.000,234.833 59.917,234.833 59.750 C 234.833 59.594,234.676 59.500,234.417 59.500 C 234.157 59.500,234.000 59.406,234.000 59.250 C 234.000 59.112,233.922 59.000,233.828 59.000 C 233.612 59.000,232.667 58.045,232.667 57.828 C 232.667 57.739,232.554 57.667,232.417 57.667 C 232.261 57.667,232.167 57.509,232.167 57.250 C 232.167 56.991,232.072 56.833,231.917 56.833 C 231.737 56.833,231.667 56.649,231.667 56.177 C 231.667 55.815,231.592 55.473,231.500 55.417 C 231.391 55.350,231.333 51.276,231.333 43.740 L 231.333 32.167 227.667 32.167 L 224.000 32.167 224.000 44.000 M293.000 44.000 C 293.000 51.778,293.057 55.833,293.167 55.833 C 293.262 55.833,293.333 56.329,293.333 56.988 C 293.333 57.792,293.409 58.219,293.583 58.393 C 293.721 58.530,293.833 58.903,293.833 59.220 C 293.833 59.580,293.928 59.834,294.083 59.894 C 294.221 59.946,294.333 60.171,294.333 60.394 C 294.333 60.616,294.446 60.841,294.583 60.894 C 294.721 60.946,294.833 61.147,294.833 61.340 C 294.833 61.713,295.192 62.167,295.488 62.167 C 295.586 62.167,295.667 62.357,295.667 62.589 C 295.667 62.821,295.779 63.054,295.917 63.106 C 296.054 63.159,296.167 63.307,296.167 63.434 C 296.167 63.562,296.261 63.667,296.377 63.667 C 296.493 63.667,296.728 63.854,296.900 64.083 C 297.073 64.313,297.334 64.502,297.482 64.505 C 297.629 64.507,297.969 64.732,298.236 65.005 C 298.503 65.277,298.860 65.500,299.028 65.500 C 299.196 65.500,299.333 65.575,299.333 65.667 C 299.333 65.758,299.513 65.833,299.732 65.833 C 299.952 65.833,300.174 65.946,300.227 66.083 C 300.288 66.242,300.543 66.333,300.923 66.333 C 301.254 66.333,301.636 66.446,301.774 66.583 C 301.982 66.791,302.671 66.833,305.850 66.833 C 309.098 66.833,309.692 66.796,309.773 66.583 C 309.836 66.420,310.095 66.333,310.518 66.333 C 310.983 66.333,311.167 66.263,311.167 66.083 C 311.167 65.946,311.291 65.833,311.444 65.833 C 311.818 65.833,313.000 65.303,313.000 65.135 C 313.000 65.061,313.112 65.000,313.250 65.000 C 313.387 65.000,313.500 64.887,313.500 64.750 C 313.500 64.594,313.657 64.500,313.917 64.500 C 314.176 64.500,314.333 64.406,314.333 64.250 C 314.333 64.112,314.446 64.000,314.583 64.000 C 314.721 64.000,314.833 63.925,314.833 63.833 C 314.833 63.742,314.946 63.667,315.083 63.667 C 315.221 63.667,315.333 63.592,315.333 63.500 C 315.333 63.331,315.931 62.667,316.083 62.667 C 316.129 62.667,316.167 63.379,316.167 64.250 L 316.167 65.833 319.583 65.833 L 323.000 65.833 323.000 49.000 L 323.000 32.167 319.583 32.167 L 316.167 32.167 316.167 42.323 C 316.167 48.915,316.108 52.516,316.000 52.583 C 315.908 52.640,315.833 53.094,315.833 53.593 C 315.833 54.288,315.775 54.500,315.583 54.500 C 315.427 54.500,315.333 54.658,315.333 54.922 C 315.333 55.154,315.221 55.387,315.083 55.440 C 314.946 55.492,314.833 55.715,314.833 55.934 C 314.833 56.154,314.740 56.334,314.625 56.335 C 314.410 56.336,314.000 57.067,314.000 57.450 C 314.000 57.569,313.887 57.667,313.750 57.667 C 313.612 57.667,313.500 57.779,313.500 57.917 C 313.500 58.054,313.387 58.167,313.250 58.167 C 313.112 58.167,313.000 58.279,313.000 58.417 C 313.000 58.554,312.920 58.667,312.821 58.667 C 312.591 58.667,312.167 59.091,312.167 59.321 C 312.167 59.420,311.942 59.500,311.667 59.500 C 311.333 59.500,311.167 59.583,311.167 59.750 C 311.167 59.906,311.009 60.000,310.750 60.000 C 310.491 60.000,310.333 60.094,310.333 60.250 C 310.333 60.462,309.917 60.500,307.583 60.500 C 305.250 60.500,304.833 60.462,304.833 60.250 C 304.833 60.083,304.667 60.000,304.333 60.000 C 304.000 60.000,303.833 59.917,303.833 59.750 C 303.833 59.609,303.684 59.500,303.492 59.500 C 303.304 59.500,302.977 59.313,302.765 59.083 C 302.552 58.854,302.293 58.667,302.189 58.667 C 302.085 58.667,302.000 58.582,302.000 58.477 C 302.000 58.373,301.813 58.114,301.583 57.902 C 301.354 57.690,301.167 57.362,301.167 57.175 C 301.167 56.982,301.057 56.833,300.917 56.833 C 300.736 56.833,300.667 56.648,300.667 56.161 C 300.667 55.718,300.582 55.457,300.417 55.394 C 300.198 55.310,300.167 53.859,300.167 43.732 L 300.167 32.167 296.583 32.167 L 293.000 32.167 293.000 44.000 M205.306 37.850 C 205.336 37.933,205.571 38.000,205.827 38.000 C 206.083 38.000,206.386 38.112,206.500 38.250 C 206.614 38.387,206.811 38.500,206.937 38.500 C 207.063 38.500,207.167 38.570,207.167 38.655 C 207.167 38.741,207.328 38.862,207.526 38.925 C 207.724 38.988,208.051 39.218,208.253 39.436 C 208.456 39.655,208.667 39.833,208.722 39.833 C 208.895 39.833,209.833 40.814,209.833 40.994 C 209.833 41.089,209.946 41.167,210.083 41.167 C 210.221 41.167,210.333 41.279,210.333 41.417 C 210.333 41.554,210.408 41.667,210.500 41.667 C 210.592 41.667,210.667 41.779,210.667 41.917 C 210.667 42.054,210.779 42.167,210.917 42.167 C 211.073 42.167,211.167 42.325,211.167 42.589 C 211.167 42.821,211.279 43.054,211.417 43.106 C 211.554 43.159,211.667 43.382,211.667 43.601 C 211.667 43.845,211.764 44.000,211.917 44.000 C 212.097 44.000,212.167 44.185,212.167 44.667 C 212.167 45.033,212.233 45.333,212.315 45.333 C 212.397 45.333,212.493 45.909,212.528 46.613 C 212.569 47.422,212.668 47.917,212.796 47.960 C 213.091 48.058,213.051 49.835,212.745 50.240 C 212.590 50.445,212.500 50.949,212.500 51.615 C 212.500 52.205,212.427 52.667,212.333 52.667 C 212.242 52.667,212.167 52.967,212.167 53.333 C 212.167 53.815,212.097 54.000,211.917 54.000 C 211.750 54.000,211.667 54.167,211.667 54.500 C 211.667 54.833,211.583 55.000,211.417 55.000 C 211.276 55.000,211.167 55.149,211.167 55.341 C 211.167 55.529,210.998 55.848,210.792 56.051 C 210.360 56.475,210.033 56.956,209.892 57.375 C 209.839 57.535,209.691 57.667,209.564 57.667 C 209.437 57.667,209.333 57.779,209.333 57.917 C 209.333 58.057,209.185 58.167,208.995 58.167 C 208.809 58.167,208.613 58.279,208.560 58.417 C 208.508 58.554,208.360 58.667,208.232 58.667 C 208.104 58.667,208.000 58.742,208.000 58.833 C 208.000 58.925,207.887 59.000,207.750 59.000 C 207.612 59.000,207.500 59.112,207.500 59.250 C 207.500 59.406,207.343 59.500,207.083 59.500 C 206.824 59.500,206.667 59.594,206.667 59.750 C 206.667 59.931,206.481 60.000,206.000 60.000 C 205.519 60.000,205.333 60.069,205.333 60.250 C 205.333 60.462,204.907 60.500,202.500 60.500 C 200.093 60.500,199.667 60.462,199.667 60.250 C 199.667 60.069,199.481 60.000,199.000 60.000 C 198.519 60.000,198.333 59.931,198.333 59.750 C 198.333 59.594,198.176 59.500,197.917 59.500 C 197.657 59.500,197.500 59.406,197.500 59.250 C 197.500 59.112,197.387 59.000,197.250 59.000 C 197.112 59.000,197.000 58.925,197.000 58.833 C 197.000 58.742,196.813 58.667,196.583 58.667 C 196.324 58.667,196.167 58.572,196.167 58.417 C 196.167 58.279,196.054 58.167,195.917 58.167 C 195.779 58.167,195.667 58.054,195.667 57.917 C 195.667 57.779,195.554 57.667,195.417 57.667 C 195.279 57.667,195.167 57.554,195.167 57.417 C 195.167 57.279,195.054 57.167,194.917 57.167 C 194.779 57.167,194.667 57.028,194.667 56.858 C 194.667 56.688,194.479 56.346,194.250 56.099 C 194.021 55.852,193.833 55.503,193.833 55.325 C 193.833 55.146,193.721 55.000,193.583 55.000 C 193.429 55.000,193.333 54.844,193.333 54.593 C 193.333 54.369,193.258 54.140,193.167 54.083 C 193.075 54.027,193.000 53.812,193.000 53.605 C 193.000 53.399,192.890 53.085,192.755 52.907 C 192.615 52.722,192.508 52.213,192.505 51.720 C 192.502 51.181,192.406 50.763,192.250 50.607 C 192.069 50.426,192.000 49.984,192.000 49.000 C 192.000 48.016,192.069 47.574,192.250 47.393 C 192.411 47.232,192.500 46.820,192.500 46.238 C 192.500 45.740,192.574 45.333,192.665 45.333 C 192.755 45.333,192.877 45.033,192.936 44.667 C 192.995 44.300,193.108 44.000,193.188 44.000 C 193.268 44.000,193.333 43.810,193.333 43.578 C 193.333 43.346,193.446 43.113,193.583 43.060 C 193.721 43.008,193.833 42.785,193.833 42.566 C 193.833 42.322,193.931 42.167,194.083 42.167 C 194.221 42.167,194.333 42.054,194.333 41.917 C 194.333 41.779,194.408 41.667,194.500 41.667 C 194.592 41.667,194.667 41.562,194.667 41.434 C 194.667 41.307,194.779 41.159,194.917 41.106 C 195.054 41.054,195.167 40.858,195.167 40.672 C 195.167 40.482,195.276 40.333,195.417 40.333 C 195.554 40.333,195.667 40.221,195.667 40.083 C 195.667 39.939,195.817 39.833,196.023 39.833 C 196.218 39.833,196.552 39.646,196.765 39.417 C 196.977 39.188,197.229 39.000,197.325 39.000 C 197.421 39.000,197.500 38.887,197.500 38.750 C 197.500 38.594,197.657 38.500,197.917 38.500 C 198.176 38.500,198.333 38.406,198.333 38.250 C 198.333 38.072,198.515 38.000,198.967 38.000 C 199.315 38.000,199.671 37.929,199.759 37.841 C 200.067 37.533,205.191 37.541,205.306 37.850 M349.472 37.851 C 349.503 37.933,349.747 38.000,350.014 38.000 C 350.335 38.000,350.500 38.085,350.500 38.250 C 350.500 38.403,350.655 38.500,350.899 38.500 C 351.118 38.500,351.341 38.612,351.394 38.750 C 351.446 38.887,351.679 39.000,351.911 39.000 C 352.152 39.000,352.333 39.096,352.333 39.222 C 352.333 39.344,352.521 39.544,352.750 39.667 C 352.979 39.789,353.167 39.989,353.167 40.111 C 353.167 40.234,353.279 40.333,353.417 40.333 C 353.554 40.333,353.667 40.446,353.667 40.583 C 353.667 40.721,353.779 40.833,353.917 40.833 C 354.054 40.833,354.167 40.946,354.167 41.083 C 354.167 41.221,354.240 41.333,354.330 41.333 C 354.420 41.333,354.541 41.521,354.598 41.750 C 354.656 41.979,354.770 42.167,354.851 42.167 C 354.933 42.167,355.000 42.279,355.000 42.417 C 355.000 42.554,355.113 42.667,355.250 42.667 C 355.406 42.667,355.500 42.824,355.500 43.083 C 355.500 43.343,355.594 43.500,355.750 43.500 C 355.931 43.500,356.000 43.685,356.000 44.167 C 356.000 44.533,356.075 44.833,356.167 44.833 C 356.258 44.833,356.333 45.165,356.333 45.571 C 356.333 46.005,356.436 46.413,356.583 46.560 C 356.899 46.875,356.956 51.265,356.646 51.368 C 356.542 51.403,356.420 51.821,356.374 52.299 C 356.328 52.776,356.225 53.167,356.145 53.167 C 356.065 53.167,356.000 53.467,356.000 53.833 C 356.000 54.315,355.931 54.500,355.750 54.500 C 355.597 54.500,355.500 54.655,355.500 54.899 C 355.500 55.118,355.404 55.335,355.287 55.380 C 355.169 55.425,354.926 55.750,354.745 56.103 C 354.363 56.850,354.095 57.167,353.845 57.167 C 353.747 57.167,353.667 57.279,353.667 57.417 C 353.667 57.554,353.554 57.667,353.417 57.667 C 353.279 57.667,353.167 57.739,353.167 57.828 C 353.167 58.131,352.178 59.000,351.834 59.000 C 351.644 59.000,351.446 59.112,351.394 59.250 C 351.341 59.387,351.153 59.500,350.977 59.500 C 350.801 59.500,350.613 59.612,350.560 59.750 C 350.506 59.893,350.257 60.000,349.982 60.000 C 349.665 60.000,349.500 60.085,349.500 60.250 C 349.500 60.462,349.083 60.500,346.750 60.500 C 344.417 60.500,344.000 60.462,344.000 60.250 C 344.000 60.069,343.815 60.000,343.333 60.000 C 342.852 60.000,342.667 59.931,342.667 59.750 C 342.667 59.609,342.518 59.500,342.325 59.500 C 342.138 59.500,341.810 59.313,341.598 59.083 C 341.386 58.854,341.127 58.667,341.023 58.667 C 340.918 58.667,340.833 58.554,340.833 58.417 C 340.833 58.279,340.753 58.167,340.654 58.167 C 340.421 58.167,339.500 57.246,339.500 57.013 C 339.500 56.914,339.387 56.833,339.250 56.833 C 339.112 56.833,339.000 56.721,339.000 56.583 C 339.000 56.446,338.925 56.333,338.833 56.333 C 338.742 56.333,338.667 56.226,338.667 56.095 C 338.667 55.964,338.573 55.755,338.458 55.629 C 338.112 55.250,337.667 54.327,337.667 53.986 C 337.667 53.811,337.554 53.667,337.417 53.667 C 337.225 53.667,337.167 53.454,337.167 52.750 C 337.167 52.246,337.092 51.833,337.000 51.833 C 336.895 51.833,336.833 50.778,336.833 49.000 C 336.833 47.222,336.895 46.167,337.000 46.167 C 337.092 46.167,337.167 45.792,337.167 45.333 C 337.167 44.704,337.228 44.500,337.417 44.500 C 337.581 44.500,337.667 44.335,337.667 44.018 C 337.667 43.743,337.774 43.494,337.917 43.440 C 338.054 43.387,338.167 43.191,338.167 43.005 C 338.167 42.819,338.234 42.667,338.315 42.667 C 338.397 42.667,338.512 42.476,338.570 42.243 C 338.629 42.010,339.049 41.448,339.505 40.995 C 339.961 40.542,340.333 40.095,340.333 40.002 C 340.333 39.909,340.418 39.833,340.523 39.833 C 340.627 39.833,340.875 39.665,341.075 39.458 C 341.501 39.019,341.967 38.696,342.375 38.559 C 342.535 38.505,342.667 38.357,342.667 38.231 C 342.667 38.073,342.877 38.000,343.333 38.000 C 343.700 38.000,344.000 37.928,344.000 37.840 C 344.000 37.530,349.357 37.541,349.472 37.851 M386.472 37.853 C 386.503 37.934,386.786 38.000,387.102 38.000 C 387.460 38.000,387.713 38.095,387.773 38.250 C 387.826 38.387,387.964 38.500,388.081 38.500 C 388.197 38.500,388.386 38.612,388.500 38.750 C 388.614 38.887,388.848 39.000,389.020 39.000 C 389.193 39.000,389.333 39.080,389.333 39.179 C 389.333 39.409,389.757 39.833,389.988 39.833 C 390.086 39.833,390.167 39.946,390.167 40.083 C 390.167 40.221,390.279 40.333,390.417 40.333 C 390.554 40.333,390.667 40.446,390.667 40.583 C 390.667 40.721,390.779 40.833,390.917 40.833 C 391.072 40.833,391.167 40.991,391.167 41.250 C 391.167 41.479,391.242 41.667,391.333 41.667 C 391.425 41.667,391.500 41.770,391.500 41.896 C 391.500 42.023,391.613 42.219,391.750 42.333 C 391.887 42.447,392.000 42.757,392.000 43.020 C 392.000 43.336,392.086 43.500,392.250 43.500 C 392.431 43.500,392.500 43.685,392.500 44.167 L 392.500 44.833 383.583 44.833 L 374.667 44.833 374.667 44.434 C 374.667 44.215,374.779 43.992,374.917 43.940 C 375.054 43.887,375.167 43.654,375.167 43.422 C 375.167 43.190,375.242 43.000,375.333 43.000 C 375.425 43.000,375.500 42.821,375.500 42.601 C 375.500 42.382,375.613 42.159,375.750 42.106 C 375.887 42.054,376.000 41.896,376.000 41.755 C 376.000 41.615,376.300 41.208,376.667 40.853 C 377.033 40.497,377.333 40.122,377.333 40.020 C 377.333 39.917,377.417 39.833,377.520 39.833 C 377.622 39.833,377.997 39.533,378.353 39.167 C 378.708 38.800,379.150 38.500,379.333 38.500 C 379.518 38.500,379.667 38.389,379.667 38.250 C 379.667 38.083,379.833 38.000,380.167 38.000 C 380.442 38.000,380.667 37.928,380.667 37.840 C 380.667 37.531,386.355 37.544,386.472 37.853 " stroke="none" fill="#fbfbfc" fill-rule="evenodd"></path><path id="path1" d="M46.667 40.583 C 46.667 50.071,46.694 57.833,46.728 57.833 C 46.902 57.833,49.777 56.292,50.072 56.040 C 50.262 55.879,50.717 55.599,51.083 55.419 C 51.450 55.239,51.979 54.924,52.259 54.718 C 52.539 54.512,53.117 54.189,53.544 54.000 C 53.971 53.812,54.365 53.584,54.420 53.495 C 54.475 53.406,54.654 53.333,54.817 53.333 C 54.981 53.333,55.256 53.177,55.429 52.986 C 55.602 52.795,56.357 52.342,57.107 51.979 C 57.858 51.616,58.557 51.215,58.662 51.089 C 58.767 50.962,59.467 50.558,60.218 50.191 C 60.969 49.823,61.749 49.367,61.951 49.178 C 62.154 48.988,62.426 48.833,62.556 48.833 C 62.686 48.833,62.886 48.721,63.000 48.583 C 63.114 48.446,63.310 48.333,63.436 48.333 C 63.561 48.333,63.839 48.181,64.053 47.995 C 64.267 47.809,65.025 47.364,65.737 47.007 C 66.449 46.649,67.168 46.233,67.333 46.083 C 67.499 45.933,68.185 45.531,68.859 45.188 C 69.532 44.846,70.511 44.288,71.034 43.950 C 71.556 43.611,72.072 43.333,72.180 43.333 C 72.288 43.333,72.816 43.033,73.353 42.667 C 73.890 42.300,74.396 42.000,74.478 42.000 C 74.559 42.000,74.719 41.887,74.833 41.750 C 74.947 41.612,75.170 41.500,75.328 41.500 C 76.071 41.500,76.426 40.424,75.766 40.173 C 75.546 40.089,75.317 39.941,75.256 39.844 C 75.196 39.746,75.009 39.667,74.841 39.667 C 74.673 39.667,74.497 39.566,74.450 39.443 C 74.402 39.319,73.646 38.860,72.768 38.421 C 71.890 37.983,71.091 37.527,70.993 37.408 C 70.894 37.289,70.193 36.884,69.434 36.508 C 68.675 36.132,67.910 35.695,67.735 35.537 C 67.560 35.378,66.894 34.996,66.255 34.688 C 65.616 34.379,64.858 33.949,64.572 33.730 C 64.286 33.512,63.999 33.333,63.935 33.333 C 63.870 33.333,63.390 33.056,62.867 32.717 C 62.344 32.378,61.363 31.819,60.686 31.475 C 60.009 31.131,59.297 30.711,59.103 30.543 C 58.909 30.374,58.185 29.960,57.496 29.623 C 56.806 29.286,56.091 28.877,55.908 28.714 C 55.724 28.550,55.276 28.277,54.912 28.107 C 54.548 27.936,54.137 27.732,54.000 27.653 C 53.862 27.574,53.510 27.388,53.216 27.239 C 52.922 27.091,52.594 26.864,52.487 26.735 C 52.380 26.606,52.198 26.500,52.083 26.500 C 51.968 26.500,51.781 26.387,51.667 26.250 C 51.553 26.113,51.330 26.000,51.172 26.000 C 51.014 26.000,50.744 25.844,50.571 25.653 C 50.399 25.463,49.654 25.019,48.917 24.667 C 48.179 24.315,47.435 23.871,47.262 23.680 C 47.090 23.489,46.885 23.333,46.808 23.333 C 46.730 23.333,46.667 31.096,46.667 40.583 M47.876 24.437 C 48.082 24.556,48.362 24.699,48.500 24.755 C 48.637 24.812,48.862 24.925,49.000 25.007 C 49.137 25.090,49.490 25.279,49.784 25.427 C 50.078 25.576,50.406 25.803,50.513 25.932 C 50.620 26.061,50.802 26.167,50.917 26.167 C 51.032 26.167,51.219 26.279,51.333 26.417 C 51.447 26.554,51.664 26.667,51.814 26.667 C 51.964 26.667,52.273 26.837,52.502 27.045 C 52.730 27.253,53.442 27.684,54.083 28.003 C 54.725 28.322,55.475 28.740,55.750 28.933 C 56.025 29.126,56.362 29.332,56.500 29.391 C 56.637 29.450,56.862 29.568,57.000 29.654 C 57.137 29.739,57.362 29.852,57.500 29.904 C 57.763 30.003,58.092 30.200,58.912 30.750 C 59.568 31.190,60.027 31.463,60.333 31.595 C 61.170 31.958,62.333 32.601,62.333 32.702 C 62.333 32.767,62.690 32.995,63.125 33.208 C 63.560 33.422,64.344 33.875,64.867 34.215 C 65.390 34.555,65.924 34.833,66.055 34.833 C 66.186 34.833,66.386 34.946,66.500 35.083 C 66.614 35.221,66.785 35.333,66.880 35.333 C 66.974 35.333,67.298 35.521,67.598 35.750 C 67.899 35.979,68.215 36.167,68.302 36.167 C 68.388 36.167,68.553 36.279,68.667 36.417 C 68.781 36.554,68.981 36.667,69.112 36.667 C 69.242 36.667,69.777 36.946,70.300 37.287 C 71.588 38.127,71.874 38.302,72.167 38.428 C 73.213 38.881,74.218 39.440,74.282 39.605 C 74.323 39.714,74.521 39.847,74.720 39.901 C 75.936 40.229,76.044 41.119,74.904 41.405 C 74.682 41.461,74.500 41.580,74.500 41.670 C 74.500 41.760,74.384 41.833,74.243 41.833 C 74.101 41.833,73.783 42.021,73.536 42.250 C 73.289 42.479,72.959 42.667,72.803 42.667 C 72.647 42.667,72.477 42.735,72.426 42.819 C 72.374 42.903,71.976 43.143,71.541 43.353 C 71.106 43.563,70.563 43.907,70.335 44.117 C 70.107 44.328,69.797 44.500,69.647 44.500 C 69.497 44.500,69.281 44.612,69.167 44.750 C 69.053 44.887,68.828 45.000,68.667 45.000 C 68.506 45.000,68.281 45.112,68.167 45.250 C 68.053 45.387,67.869 45.500,67.759 45.500 C 67.648 45.500,67.382 45.688,67.167 45.917 C 66.951 46.146,66.647 46.333,66.491 46.333 C 66.335 46.333,66.114 46.446,66.000 46.583 C 65.886 46.721,65.661 46.833,65.500 46.833 C 65.339 46.833,65.114 46.946,65.000 47.083 C 64.886 47.221,64.715 47.333,64.620 47.333 C 64.526 47.333,64.202 47.521,63.902 47.750 C 63.601 47.979,63.285 48.167,63.198 48.167 C 63.112 48.167,62.947 48.279,62.833 48.417 C 62.719 48.554,62.519 48.667,62.389 48.667 C 62.259 48.667,61.991 48.817,61.794 49.001 C 61.486 49.287,60.962 49.573,59.833 50.070 C 59.496 50.218,59.011 50.512,58.413 50.931 C 58.140 51.123,57.804 51.328,57.667 51.388 C 57.529 51.449,57.304 51.568,57.167 51.654 C 57.029 51.739,56.804 51.855,56.667 51.911 C 56.325 52.050,55.750 52.391,55.476 52.615 C 55.352 52.717,54.650 53.115,53.917 53.499 C 53.183 53.883,52.358 54.359,52.083 54.557 C 51.808 54.755,51.283 55.063,50.917 55.241 C 50.550 55.420,50.100 55.690,49.917 55.842 C 49.733 55.994,49.246 56.289,48.833 56.497 C 48.421 56.705,47.971 56.941,47.833 57.022 C 47.696 57.103,47.471 57.219,47.333 57.281 C 47.196 57.342,47.028 57.473,46.961 57.571 C 46.894 57.670,46.837 50.070,46.836 40.683 L 46.833 23.615 47.168 23.918 C 47.352 24.084,47.671 24.318,47.876 24.437 " stroke="none" fill="#cce4fc" fill-rule="evenodd"></path><path id="path2" d="M48.042 0.114 C 39.867 0.162,38.667 0.201,38.667 0.418 C 38.667 0.633,37.931 0.667,33.167 0.667 C 28.389 0.667,27.667 0.699,27.667 0.917 C 27.667 1.131,27.176 1.167,24.250 1.167 C 21.324 1.167,20.833 1.203,20.833 1.417 C 20.833 1.626,20.491 1.667,18.750 1.667 C 17.472 1.667,16.667 1.731,16.667 1.833 C 16.667 1.933,16.028 2.000,15.083 2.000 C 13.787 2.000,13.500 2.045,13.500 2.250 C 13.500 2.431,13.315 2.500,12.833 2.500 C 12.352 2.500,12.167 2.569,12.167 2.750 C 12.167 2.935,11.972 3.000,11.417 3.000 C 10.861 3.000,10.667 3.065,10.667 3.250 C 10.667 3.406,10.509 3.500,10.250 3.500 C 10.021 3.500,9.833 3.575,9.833 3.667 C 9.833 3.758,9.600 3.833,9.316 3.833 C 8.924 3.833,8.821 3.894,8.894 4.083 C 8.952 4.236,8.894 4.333,8.745 4.333 C 8.610 4.333,8.500 4.446,8.500 4.583 C 8.500 4.737,8.344 4.833,8.096 4.833 C 7.707 4.833,6.667 5.691,6.667 6.013 C 6.667 6.097,6.554 6.167,6.417 6.167 C 6.279 6.167,6.167 6.279,6.167 6.417 C 6.167 6.554,6.086 6.667,5.988 6.667 C 5.757 6.667,5.333 7.091,5.333 7.321 C 5.333 7.420,5.221 7.500,5.083 7.500 C 4.917 7.500,4.833 7.667,4.833 8.000 C 4.833 8.316,4.748 8.500,4.601 8.500 C 4.473 8.500,4.324 8.617,4.269 8.761 C 4.214 8.904,4.093 8.974,4.001 8.917 C 3.902 8.856,3.833 9.024,3.833 9.323 C 3.833 9.604,3.758 9.833,3.667 9.833 C 3.575 9.833,3.500 10.021,3.500 10.250 C 3.500 10.509,3.406 10.667,3.250 10.667 C 3.065 10.667,3.000 10.861,3.000 11.417 C 3.000 11.972,2.935 12.167,2.750 12.167 C 2.569 12.167,2.500 12.352,2.500 12.833 C 2.500 13.315,2.431 13.500,2.250 13.500 C 2.053 13.500,2.000 13.731,2.000 14.583 C 2.000 15.194,1.927 15.667,1.833 15.667 C 1.733 15.667,1.667 16.333,1.667 17.333 C 1.667 18.704,1.622 19.000,1.417 19.000 C 1.208 19.000,1.167 19.333,1.167 21.000 C 1.167 22.667,1.125 23.000,0.917 23.000 C 0.703 23.000,0.667 23.483,0.667 26.345 C 0.667 28.950,0.616 29.741,0.439 29.918 C -0.012 30.369,0.007 51.142,0.458 51.292 C 0.616 51.344,0.667 52.190,0.667 54.764 C 0.667 57.677,0.703 58.167,0.917 58.167 C 1.125 58.167,1.167 58.500,1.167 60.167 C 1.167 61.833,1.208 62.167,1.417 62.167 C 1.622 62.167,1.667 62.463,1.667 63.833 C 1.667 64.833,1.733 65.500,1.833 65.500 C 1.927 65.500,2.000 65.972,2.000 66.583 C 2.000 67.435,2.053 67.667,2.250 67.667 C 2.442 67.667,2.500 67.880,2.500 68.583 C 2.500 69.287,2.558 69.500,2.750 69.500 C 2.917 69.500,3.000 69.667,3.000 70.000 C 3.000 70.333,3.083 70.500,3.250 70.500 C 3.431 70.500,3.500 70.685,3.500 71.167 C 3.500 71.533,3.575 71.833,3.667 71.833 C 3.758 71.833,3.833 71.946,3.833 72.083 C 3.833 72.221,3.946 72.333,4.083 72.333 C 4.239 72.333,4.333 72.491,4.333 72.750 C 4.333 73.009,4.428 73.167,4.583 73.167 C 4.721 73.167,4.833 73.279,4.833 73.417 C 4.833 73.554,4.946 73.667,5.083 73.667 C 5.239 73.667,5.333 73.824,5.333 74.083 C 5.333 74.313,5.408 74.500,5.500 74.500 C 5.592 74.500,5.667 74.612,5.667 74.750 C 5.667 74.887,5.779 75.000,5.917 75.000 C 6.054 75.000,6.167 75.112,6.167 75.250 C 6.167 75.387,6.279 75.500,6.417 75.500 C 6.554 75.500,6.667 75.612,6.667 75.750 C 6.667 75.906,6.824 76.000,7.083 76.000 C 7.313 76.000,7.500 76.075,7.500 76.167 C 7.500 76.258,7.612 76.333,7.750 76.333 C 7.888 76.333,8.000 76.446,8.000 76.583 C 8.000 76.721,8.112 76.833,8.250 76.833 C 8.387 76.833,8.500 76.946,8.500 77.083 C 8.500 77.239,8.657 77.333,8.917 77.333 C 9.146 77.333,9.333 77.408,9.333 77.500 C 9.333 77.592,9.558 77.667,9.833 77.667 C 10.167 77.667,10.333 77.750,10.333 77.917 C 10.333 78.072,10.491 78.167,10.750 78.167 C 11.009 78.167,11.167 78.261,11.167 78.417 C 11.167 78.609,11.380 78.667,12.083 78.667 C 12.787 78.667,13.000 78.725,13.000 78.917 C 13.000 79.115,13.241 79.167,14.167 79.167 C 14.833 79.167,15.333 79.238,15.333 79.333 C 15.333 79.434,16.056 79.500,17.167 79.500 C 18.685 79.500,19.000 79.543,19.000 79.750 C 19.000 79.961,19.389 80.000,21.500 80.000 C 23.611 80.000,24.000 80.039,24.000 80.250 C 24.000 80.466,24.620 80.500,28.583 80.500 C 32.376 80.500,33.167 80.540,33.167 80.731 C 33.167 81.006,49.400 81.133,70.875 81.025 C 81.757 80.971,83.833 80.924,83.833 80.730 C 83.833 80.541,84.517 80.500,87.667 80.500 C 90.963 80.500,91.500 80.465,91.500 80.250 C 91.500 80.038,91.917 80.000,94.250 80.000 C 96.583 80.000,97.000 79.962,97.000 79.750 C 97.000 79.543,97.315 79.500,98.833 79.500 C 99.944 79.500,100.667 79.434,100.667 79.333 C 100.667 79.235,101.250 79.167,102.083 79.167 C 103.231 79.167,103.500 79.119,103.500 78.917 C 103.500 78.736,103.685 78.667,104.167 78.667 C 104.648 78.667,104.833 78.597,104.833 78.417 C 104.833 78.261,104.991 78.167,105.250 78.167 C 105.509 78.167,105.667 78.072,105.667 77.917 C 105.667 77.750,105.833 77.667,106.167 77.667 C 106.442 77.667,106.667 77.592,106.667 77.500 C 106.667 77.408,106.854 77.333,107.083 77.333 C 107.343 77.333,107.500 77.239,107.500 77.083 C 107.500 76.946,107.612 76.833,107.750 76.833 C 107.888 76.833,108.000 76.721,108.000 76.583 C 108.000 76.428,108.157 76.333,108.417 76.333 C 108.646 76.333,108.833 76.258,108.833 76.167 C 108.833 76.075,108.946 76.000,109.083 76.000 C 109.221 76.000,109.333 75.887,109.333 75.750 C 109.333 75.612,109.446 75.500,109.583 75.500 C 109.721 75.500,109.833 75.387,109.833 75.250 C 109.833 75.112,109.946 75.000,110.083 75.000 C 110.221 75.000,110.333 74.920,110.333 74.821 C 110.333 74.591,110.757 74.167,110.988 74.167 C 111.086 74.167,111.167 73.942,111.167 73.667 C 111.167 73.333,111.250 73.167,111.417 73.167 C 111.554 73.167,111.667 73.054,111.667 72.917 C 111.667 72.779,111.779 72.667,111.917 72.667 C 112.072 72.667,112.167 72.509,112.167 72.250 C 112.167 72.021,112.242 71.833,112.333 71.833 C 112.425 71.833,112.500 71.608,112.500 71.333 C 112.500 71.000,112.583 70.833,112.750 70.833 C 112.906 70.833,113.000 70.676,113.000 70.417 C 113.000 70.157,113.094 70.000,113.250 70.000 C 113.442 70.000,113.500 69.787,113.500 69.083 C 113.500 68.380,113.558 68.167,113.750 68.167 C 113.942 68.167,114.000 67.954,114.000 67.250 C 114.000 66.746,114.075 66.333,114.167 66.333 C 114.264 66.333,114.333 65.778,114.333 65.000 C 114.333 63.926,114.382 63.667,114.583 63.667 C 114.792 63.667,114.833 63.324,114.833 61.583 C 114.833 59.843,114.874 59.500,115.083 59.500 C 115.295 59.500,115.333 59.083,115.333 56.750 C 115.333 54.417,115.371 54.000,115.583 54.000 C 115.800 54.000,115.833 53.287,115.833 48.583 C 115.833 45.083,115.892 43.167,116.000 43.167 C 116.104 43.167,116.167 42.139,116.167 40.417 C 116.167 38.694,116.104 37.667,116.000 37.667 C 115.892 37.667,115.833 35.806,115.833 32.417 C 115.833 27.861,115.800 27.167,115.583 27.167 C 115.371 27.167,115.333 26.750,115.333 24.417 C 115.333 22.083,115.295 21.667,115.083 21.667 C 114.876 21.667,114.833 21.352,114.833 19.833 C 114.833 18.315,114.790 18.000,114.583 18.000 C 114.382 18.000,114.333 17.741,114.333 16.667 C 114.333 15.889,114.264 15.333,114.167 15.333 C 114.071 15.333,114.000 14.833,114.000 14.167 C 114.000 13.241,113.948 13.000,113.750 13.000 C 113.569 13.000,113.500 12.815,113.500 12.333 C 113.500 11.852,113.431 11.667,113.250 11.667 C 113.069 11.667,113.000 11.481,113.000 11.000 C 113.000 10.519,112.931 10.333,112.750 10.333 C 112.583 10.333,112.500 10.167,112.500 9.833 C 112.500 9.558,112.425 9.333,112.333 9.333 C 112.242 9.333,112.167 9.221,112.167 9.083 C 112.167 8.946,112.073 8.852,111.958 8.875 C 111.841 8.898,111.727 8.716,111.697 8.458 C 111.667 8.196,111.542 8.000,111.406 8.000 C 111.274 8.000,111.167 7.888,111.167 7.750 C 111.167 7.612,111.054 7.500,110.917 7.500 C 110.779 7.500,110.667 7.383,110.667 7.240 C 110.667 7.097,110.592 7.027,110.500 7.083 C 110.403 7.143,110.333 6.974,110.333 6.677 C 110.333 6.334,110.251 6.167,110.083 6.167 C 109.946 6.167,109.833 6.054,109.833 5.917 C 109.833 5.750,109.667 5.667,109.333 5.667 C 109.058 5.667,108.833 5.586,108.833 5.488 C 108.833 5.257,108.409 4.833,108.179 4.833 C 108.080 4.833,108.000 4.721,108.000 4.583 C 108.000 4.417,107.833 4.333,107.500 4.333 C 107.167 4.333,107.000 4.250,107.000 4.083 C 107.000 3.928,106.843 3.833,106.583 3.833 C 106.354 3.833,106.167 3.758,106.167 3.667 C 106.167 3.575,105.979 3.500,105.750 3.500 C 105.491 3.500,105.333 3.406,105.333 3.250 C 105.333 3.083,105.167 3.000,104.833 3.000 C 104.500 3.000,104.333 2.917,104.333 2.750 C 104.333 2.558,104.120 2.500,103.417 2.500 C 102.713 2.500,102.500 2.442,102.500 2.250 C 102.500 2.049,102.241 2.000,101.167 2.000 C 100.389 2.000,99.833 1.931,99.833 1.833 C 99.833 1.730,98.944 1.667,97.500 1.667 C 95.537 1.667,95.167 1.627,95.167 1.417 C 95.167 1.204,94.731 1.167,92.250 1.167 C 89.769 1.167,89.333 1.129,89.333 0.917 C 89.333 0.699,88.537 0.667,83.167 0.667 C 77.862 0.667,77.000 0.633,77.000 0.423 C 77.000 0.211,75.855 0.177,68.542 0.170 C 63.890 0.165,59.483 0.139,58.750 0.110 C 58.017 0.082,53.198 0.084,48.042 0.114 M47.595 23.495 C 47.955 23.768,48.384 23.993,48.547 23.995 C 48.710 23.998,48.887 24.113,48.940 24.250 C 48.992 24.387,49.215 24.500,49.434 24.500 C 49.654 24.500,49.833 24.575,49.833 24.667 C 49.833 24.758,49.927 24.836,50.042 24.840 C 50.156 24.844,50.510 25.069,50.827 25.340 C 51.144 25.611,51.498 25.833,51.614 25.833 C 51.802 25.833,53.292 26.768,53.500 27.016 C 53.546 27.071,53.790 27.166,54.042 27.228 C 54.294 27.289,54.500 27.413,54.500 27.503 C 54.500 27.593,54.641 27.667,54.813 27.667 C 54.985 27.667,55.219 27.779,55.333 27.917 C 55.447 28.054,55.612 28.167,55.698 28.167 C 55.785 28.167,56.094 28.345,56.386 28.564 C 56.678 28.783,57.085 29.013,57.292 29.075 C 57.498 29.138,57.667 29.259,57.667 29.345 C 57.667 29.430,57.848 29.500,58.069 29.500 C 58.291 29.500,58.497 29.556,58.528 29.625 C 58.629 29.852,60.171 30.833,60.427 30.833 C 60.564 30.833,60.720 30.946,60.773 31.083 C 60.826 31.221,61.017 31.333,61.199 31.333 C 61.511 31.333,63.020 32.273,63.139 32.542 C 63.169 32.610,63.341 32.667,63.519 32.667 C 63.698 32.667,63.887 32.779,63.940 32.917 C 63.992 33.054,64.145 33.167,64.279 33.167 C 64.413 33.167,64.761 33.345,65.053 33.564 C 65.345 33.783,65.752 34.013,65.958 34.075 C 66.165 34.138,66.333 34.259,66.333 34.345 C 66.333 34.430,66.455 34.500,66.605 34.500 C 66.754 34.500,67.316 34.800,67.853 35.167 C 68.390 35.533,68.945 35.833,69.087 35.833 C 69.228 35.833,69.387 35.946,69.440 36.083 C 69.492 36.221,69.681 36.333,69.858 36.333 C 70.036 36.333,70.587 36.633,71.083 37.000 C 71.580 37.367,72.104 37.667,72.248 37.667 C 72.392 37.667,72.554 37.779,72.606 37.917 C 72.659 38.054,72.842 38.167,73.013 38.167 C 73.313 38.167,74.859 39.120,74.972 39.375 C 75.003 39.444,75.162 39.500,75.327 39.500 C 75.491 39.500,75.719 39.612,75.833 39.750 C 75.947 39.887,76.144 40.000,76.270 40.000 C 76.598 40.000,76.564 40.986,76.224 41.362 C 76.072 41.530,75.847 41.667,75.724 41.667 C 75.601 41.667,75.500 41.740,75.500 41.830 C 75.500 41.920,75.294 42.044,75.042 42.106 C 74.790 42.168,74.546 42.263,74.500 42.317 C 74.283 42.576,72.798 43.500,72.599 43.500 C 72.475 43.500,72.281 43.612,72.167 43.750 C 72.053 43.887,71.818 44.000,71.646 44.000 C 71.474 44.000,71.333 44.058,71.333 44.129 C 71.333 44.200,71.052 44.405,70.708 44.585 C 70.365 44.766,70.023 45.008,69.950 45.123 C 69.877 45.239,69.714 45.333,69.589 45.333 C 69.363 45.333,68.328 45.828,68.167 46.013 C 68.121 46.065,67.822 46.253,67.503 46.429 C 67.184 46.606,66.822 46.844,66.699 46.958 C 66.577 47.073,66.332 47.167,66.155 47.167 C 65.978 47.167,65.833 47.237,65.833 47.322 C 65.833 47.408,65.665 47.529,65.458 47.591 C 65.252 47.654,64.845 47.884,64.553 48.103 C 64.261 48.321,63.951 48.500,63.865 48.500 C 63.778 48.500,63.614 48.612,63.500 48.750 C 63.386 48.887,63.158 49.000,62.993 49.000 C 62.829 49.000,62.669 49.056,62.639 49.125 C 62.526 49.380,60.979 50.333,60.680 50.333 C 60.509 50.333,60.326 50.446,60.273 50.583 C 60.220 50.721,60.031 50.833,59.852 50.833 C 59.674 50.833,59.503 50.890,59.472 50.958 C 59.355 51.221,57.808 52.167,57.495 52.167 C 57.314 52.167,57.167 52.237,57.167 52.322 C 57.167 52.408,56.998 52.529,56.792 52.591 C 56.585 52.654,56.178 52.884,55.886 53.103 C 55.594 53.321,55.285 53.500,55.198 53.500 C 55.112 53.500,54.947 53.612,54.833 53.750 C 54.719 53.887,54.485 54.000,54.313 54.000 C 54.141 54.000,54.000 54.074,54.000 54.163 C 54.000 54.253,53.796 54.378,53.547 54.441 C 53.297 54.503,52.904 54.730,52.673 54.944 C 52.442 55.158,52.129 55.333,51.978 55.333 C 51.826 55.333,51.659 55.446,51.606 55.583 C 51.554 55.721,51.364 55.833,51.186 55.833 C 51.007 55.833,50.836 55.890,50.806 55.958 C 50.692 56.213,49.146 57.167,48.846 57.167 C 48.675 57.167,48.492 57.279,48.440 57.417 C 48.387 57.554,48.235 57.667,48.102 57.667 C 47.969 57.667,47.642 57.792,47.375 57.945 C 46.256 58.588,46.333 59.884,46.333 40.602 C 46.333 23.137,46.335 23.084,46.845 23.013 C 46.898 23.006,47.235 23.223,47.595 23.495 " stroke="none" fill="#1c74ec" fill-rule="evenodd"></path><path id="path3" d="M46.500 40.583 C 46.500 55.446,46.534 58.000,46.735 58.000 C 46.947 58.000,48.374 57.359,49.000 56.983 C 49.137 56.900,49.400 56.765,49.583 56.682 C 49.767 56.600,50.082 56.375,50.285 56.183 C 50.487 55.991,50.759 55.833,50.889 55.833 C 51.019 55.833,51.219 55.721,51.333 55.583 C 51.447 55.446,51.612 55.333,51.698 55.333 C 51.785 55.333,52.094 55.154,52.386 54.935 C 52.678 54.716,53.268 54.379,53.698 54.185 C 54.128 53.992,54.526 53.759,54.583 53.667 C 54.640 53.575,54.820 53.500,54.984 53.500 C 55.148 53.500,55.423 53.344,55.595 53.153 C 55.768 52.963,56.511 52.518,57.246 52.166 C 57.982 51.814,58.749 51.370,58.951 51.180 C 59.154 50.989,59.426 50.833,59.556 50.833 C 59.686 50.833,59.886 50.721,60.000 50.583 C 60.114 50.446,60.339 50.333,60.500 50.333 C 60.661 50.333,60.886 50.221,61.000 50.083 C 61.114 49.946,61.300 49.833,61.413 49.833 C 61.526 49.833,61.820 49.646,62.068 49.417 C 62.315 49.187,62.617 49.000,62.738 49.000 C 62.860 49.000,63.053 48.887,63.167 48.750 C 63.281 48.612,63.507 48.500,63.669 48.500 C 63.832 48.500,64.004 48.397,64.053 48.270 C 64.101 48.144,64.653 47.793,65.279 47.490 C 65.905 47.187,66.442 46.878,66.472 46.803 C 66.503 46.728,66.654 46.667,66.807 46.667 C 66.961 46.667,67.275 46.498,67.506 46.292 C 67.872 45.964,68.476 45.623,69.333 45.260 C 69.636 45.131,70.090 44.862,70.754 44.417 C 71.564 43.874,71.902 43.670,72.167 43.566 C 72.833 43.304,73.589 42.891,73.835 42.654 C 73.986 42.509,74.478 42.216,74.930 42.002 C 76.332 41.336,76.821 40.379,75.958 39.989 C 75.468 39.767,75.028 39.502,74.387 39.042 C 74.100 38.835,73.792 38.667,73.703 38.667 C 73.614 38.667,73.447 38.554,73.333 38.417 C 73.219 38.279,72.994 38.167,72.833 38.167 C 72.672 38.167,72.447 38.054,72.333 37.917 C 72.219 37.779,72.019 37.667,71.889 37.667 C 71.759 37.667,71.487 37.512,71.285 37.322 C 71.082 37.133,70.302 36.677,69.552 36.309 C 68.801 35.942,68.101 35.539,67.998 35.414 C 67.894 35.288,67.233 34.909,66.529 34.571 C 65.826 34.232,65.011 33.778,64.719 33.561 C 64.428 33.344,64.118 33.167,64.032 33.167 C 63.945 33.167,63.781 33.054,63.667 32.917 C 63.553 32.779,63.353 32.667,63.222 32.667 C 63.092 32.667,62.802 32.497,62.578 32.289 C 62.169 31.910,61.733 31.664,60.324 31.017 C 59.906 30.825,59.419 30.537,59.241 30.376 C 59.062 30.215,58.317 29.783,57.585 29.417 C 56.852 29.050,56.133 28.637,55.986 28.500 C 55.618 28.155,54.690 27.667,54.403 27.667 C 54.273 27.667,54.167 27.597,54.167 27.511 C 54.167 27.426,53.998 27.305,53.792 27.242 C 53.585 27.179,53.178 26.949,52.886 26.731 C 52.594 26.512,52.285 26.333,52.198 26.333 C 52.112 26.333,51.947 26.221,51.833 26.083 C 51.719 25.946,51.503 25.833,51.353 25.833 C 51.203 25.833,50.893 25.665,50.665 25.458 C 50.437 25.252,49.895 24.910,49.462 24.699 C 49.029 24.487,48.631 24.243,48.577 24.157 C 48.524 24.071,48.353 24.000,48.197 24.000 C 48.041 24.000,47.711 23.813,47.464 23.583 C 46.434 22.628,46.500 21.457,46.500 40.583 M47.262 23.680 C 47.435 23.871,48.179 24.315,48.917 24.667 C 49.654 25.019,50.399 25.463,50.571 25.653 C 50.744 25.844,51.014 26.000,51.172 26.000 C 51.330 26.000,51.553 26.113,51.667 26.250 C 51.781 26.387,51.968 26.500,52.083 26.500 C 52.198 26.500,52.380 26.606,52.487 26.735 C 52.594 26.864,52.922 27.091,53.216 27.239 C 53.510 27.388,53.862 27.574,54.000 27.653 C 54.137 27.732,54.548 27.936,54.912 28.107 C 55.276 28.277,55.724 28.550,55.908 28.714 C 56.091 28.877,56.806 29.286,57.496 29.623 C 58.185 29.960,58.909 30.374,59.103 30.543 C 59.297 30.711,60.009 31.131,60.686 31.475 C 61.363 31.819,62.344 32.378,62.867 32.717 C 63.390 33.056,63.870 33.333,63.935 33.333 C 63.999 33.333,64.286 33.512,64.572 33.730 C 64.858 33.949,65.616 34.379,66.255 34.688 C 66.894 34.996,67.560 35.378,67.735 35.537 C 67.910 35.695,68.675 36.132,69.434 36.508 C 70.193 36.884,70.894 37.289,70.993 37.408 C 71.091 37.527,71.890 37.983,72.768 38.421 C 73.646 38.860,74.402 39.319,74.450 39.443 C 74.497 39.566,74.673 39.667,74.841 39.667 C 75.009 39.667,75.196 39.746,75.256 39.844 C 75.317 39.941,75.546 40.089,75.766 40.173 C 76.426 40.424,76.071 41.500,75.328 41.500 C 75.170 41.500,74.947 41.612,74.833 41.750 C 74.719 41.887,74.559 42.000,74.478 42.000 C 74.396 42.000,73.890 42.300,73.353 42.667 C 72.816 43.033,72.288 43.333,72.180 43.333 C 72.072 43.333,71.556 43.611,71.034 43.950 C 70.511 44.288,69.532 44.846,68.859 45.188 C 68.185 45.531,67.499 45.933,67.333 46.083 C 67.168 46.233,66.449 46.649,65.737 47.007 C 65.025 47.364,64.267 47.809,64.053 47.995 C 63.839 48.181,63.561 48.333,63.436 48.333 C 63.310 48.333,63.114 48.446,63.000 48.583 C 62.886 48.721,62.686 48.833,62.556 48.833 C 62.426 48.833,62.154 48.988,61.951 49.178 C 61.749 49.367,60.969 49.823,60.218 50.191 C 59.467 50.558,58.767 50.962,58.662 51.089 C 58.557 51.215,57.858 51.616,57.107 51.979 C 56.357 52.342,55.602 52.795,55.429 52.986 C 55.256 53.177,54.981 53.333,54.817 53.333 C 54.654 53.333,54.475 53.406,54.420 53.495 C 54.365 53.584,53.971 53.812,53.544 54.000 C 53.117 54.189,52.539 54.512,52.259 54.718 C 51.979 54.924,51.450 55.239,51.083 55.419 C 50.717 55.599,50.262 55.879,50.072 56.040 C 49.777 56.292,46.902 57.833,46.728 57.833 C 46.694 57.833,46.667 50.071,46.667 40.583 C 46.667 31.096,46.730 23.333,46.808 23.333 C 46.885 23.333,47.090 23.489,47.262 23.680 " stroke="none" fill="#4c94ec" fill-rule="evenodd"></path><path id="path4" d="M46.374 40.547 C 46.337 56.257,46.360 58.021,46.594 58.110 C 46.890 58.224,47.767 57.878,47.602 57.713 C 47.543 57.654,47.406 57.694,47.297 57.803 C 46.467 58.633,46.505 59.427,46.458 40.542 L 46.415 23.083 46.374 40.547 M47.172 23.287 C 47.179 23.453,48.000 24.056,48.093 23.963 C 48.131 23.924,47.938 23.727,47.665 23.525 C 47.391 23.322,47.169 23.215,47.172 23.287 M49.574 24.755 C 49.751 24.890,49.961 25.000,50.039 25.000 C 50.117 25.000,50.383 25.188,50.631 25.417 C 50.878 25.646,51.153 25.833,51.242 25.833 C 51.479 25.833,50.288 24.848,50.042 24.840 C 49.927 24.836,49.833 24.758,49.833 24.667 C 49.833 24.575,49.702 24.502,49.542 24.505 C 49.278 24.510,49.281 24.534,49.574 24.755 M51.833 26.083 C 51.947 26.221,52.116 26.333,52.207 26.333 C 52.300 26.333,52.282 26.223,52.167 26.083 C 52.053 25.946,51.884 25.833,51.793 25.833 C 51.700 25.833,51.718 25.944,51.833 26.083 M52.500 26.413 C 52.500 26.448,52.725 26.638,53.000 26.833 C 53.275 27.029,53.500 27.128,53.499 27.053 C 53.498 26.978,53.273 26.789,52.999 26.633 C 52.725 26.477,52.500 26.378,52.500 26.413 M54.079 27.437 C 54.228 27.585,54.400 27.656,54.461 27.594 C 54.523 27.532,54.463 27.412,54.329 27.327 C 53.935 27.078,53.786 27.143,54.079 27.437 M55.833 28.309 C 55.833 28.483,56.660 29.062,56.762 28.960 C 56.799 28.923,56.605 28.727,56.331 28.525 C 56.057 28.322,55.833 28.225,55.833 28.309 M58.240 29.755 C 58.663 30.075,58.928 30.071,58.607 29.750 C 58.470 29.613,58.258 29.502,58.137 29.505 C 57.999 29.509,58.037 29.602,58.240 29.755 M59.005 30.114 C 59.012 30.296,59.834 30.888,59.938 30.785 C 59.983 30.740,59.790 30.540,59.510 30.340 C 59.229 30.141,59.002 30.039,59.005 30.114 M60.426 31.070 C 60.775 31.325,60.934 31.297,60.757 31.011 C 60.696 30.913,60.525 30.833,60.375 30.833 C 60.147 30.833,60.156 30.872,60.426 31.070 M61.333 31.412 C 61.333 31.456,61.540 31.600,61.792 31.732 C 62.044 31.864,62.424 32.136,62.636 32.336 C 62.848 32.536,63.067 32.655,63.122 32.600 C 63.177 32.545,63.191 32.480,63.153 32.456 C 63.115 32.431,62.734 32.169,62.306 31.872 C 61.554 31.351,61.333 31.246,61.333 31.412 M64.481 33.394 C 64.742 33.708,66.333 34.518,66.333 34.337 C 66.333 34.255,66.165 34.138,65.958 34.075 C 65.752 34.013,65.345 33.783,65.053 33.564 C 64.466 33.125,64.189 33.042,64.481 33.394 M66.907 34.755 C 67.085 34.890,67.305 35.000,67.397 35.000 C 67.489 35.000,67.418 34.890,67.240 34.755 C 67.062 34.621,66.842 34.511,66.750 34.511 C 66.658 34.511,66.729 34.621,66.907 34.755 M68.037 35.428 C 68.286 35.687,68.529 35.860,68.576 35.813 C 68.624 35.765,68.420 35.553,68.123 35.341 L 67.583 34.956 68.037 35.428 M69.093 36.070 C 69.442 36.325,69.600 36.297,69.424 36.011 C 69.363 35.913,69.191 35.833,69.042 35.833 C 68.814 35.833,68.823 35.872,69.093 36.070 M70.093 36.578 C 70.516 36.898,70.764 36.901,70.500 36.583 C 70.386 36.446,70.175 36.333,70.031 36.333 C 69.822 36.333,69.834 36.382,70.093 36.578 M71.219 37.243 C 71.477 37.495,71.725 37.663,71.771 37.618 C 71.816 37.573,71.604 37.368,71.301 37.161 L 70.750 36.787 71.219 37.243 M73.333 38.417 C 73.447 38.554,73.616 38.667,73.707 38.667 C 73.800 38.667,73.782 38.556,73.667 38.417 C 73.553 38.279,73.384 38.167,73.293 38.167 C 73.200 38.167,73.218 38.277,73.333 38.417 M75.500 39.750 C 75.614 39.887,75.782 40.000,75.874 40.000 C 75.967 40.000,75.949 39.889,75.833 39.750 C 75.719 39.612,75.551 39.500,75.459 39.500 C 75.366 39.500,75.384 39.611,75.500 39.750 M76.302 40.583 C 76.340 40.907,76.296 41.167,76.203 41.167 C 76.111 41.167,75.987 41.294,75.927 41.449 C 75.832 41.696,75.861 41.693,76.159 41.423 C 76.493 41.122,76.656 40.000,76.367 40.000 C 76.294 40.000,76.264 40.262,76.302 40.583 M74.000 42.508 L 73.583 42.842 74.042 42.644 C 74.294 42.536,74.500 42.384,74.500 42.307 C 74.500 42.116,74.477 42.126,74.000 42.508 M71.833 43.750 C 71.718 43.889,71.700 44.000,71.793 44.000 C 71.884 44.000,72.053 43.887,72.167 43.750 C 72.282 43.611,72.300 43.500,72.207 43.500 C 72.116 43.500,71.947 43.612,71.833 43.750 M70.750 44.419 L 70.250 44.837 70.791 44.543 C 71.088 44.382,71.332 44.194,71.332 44.125 C 71.334 43.943,71.300 43.960,70.750 44.419 M68.593 45.589 C 68.415 45.723,68.345 45.833,68.436 45.833 C 68.528 45.833,68.749 45.723,68.926 45.589 C 69.104 45.454,69.175 45.344,69.083 45.344 C 68.992 45.344,68.771 45.454,68.593 45.589 M67.500 46.271 L 67.083 46.688 67.624 46.386 C 67.921 46.219,68.165 46.027,68.166 45.958 C 68.168 45.732,67.923 45.847,67.500 46.271 M66.339 46.955 C 66.120 47.201,66.126 47.218,66.394 47.115 C 66.559 47.052,66.725 47.000,66.764 47.000 C 66.802 47.000,66.833 46.925,66.833 46.833 C 66.833 46.588,66.617 46.641,66.339 46.955 M64.927 47.647 C 64.474 47.899,64.070 48.205,64.030 48.328 C 63.989 48.451,64.209 48.361,64.519 48.128 C 64.829 47.896,65.252 47.654,65.458 47.591 C 65.665 47.529,65.833 47.408,65.833 47.322 C 65.833 47.129,65.903 47.104,64.927 47.647 M63.167 48.750 C 63.051 48.889,63.033 49.000,63.126 49.000 C 63.218 49.000,63.386 48.887,63.500 48.750 C 63.616 48.611,63.634 48.500,63.541 48.500 C 63.449 48.500,63.281 48.612,63.167 48.750 M61.000 50.083 C 60.884 50.223,60.866 50.333,60.959 50.333 C 61.051 50.333,61.219 50.221,61.333 50.083 C 61.449 49.944,61.467 49.833,61.374 49.833 C 61.282 49.833,61.114 49.946,61.000 50.083 M58.833 51.271 L 58.417 51.688 58.957 51.386 C 59.255 51.219,59.498 51.027,59.499 50.958 C 59.501 50.732,59.257 50.847,58.833 51.271 M57.760 51.922 C 57.501 52.118,57.488 52.167,57.698 52.167 C 57.842 52.167,58.053 52.054,58.167 51.917 C 58.431 51.599,58.183 51.602,57.760 51.922 M56.500 52.500 C 56.179 52.664,55.767 52.969,55.583 53.179 C 55.276 53.532,55.295 53.529,55.833 53.133 C 56.154 52.898,56.585 52.654,56.792 52.591 C 56.998 52.529,57.167 52.408,57.167 52.322 C 57.167 52.237,57.148 52.175,57.125 52.185 C 57.102 52.195,56.821 52.337,56.500 52.500 M54.500 53.750 C 54.384 53.889,54.366 54.000,54.459 54.000 C 54.551 54.000,54.719 53.887,54.833 53.750 C 54.949 53.611,54.967 53.500,54.874 53.500 C 54.782 53.500,54.614 53.612,54.500 53.750 M53.500 54.276 C 53.270 54.397,53.196 54.495,53.333 54.495 C 53.621 54.495,54.112 54.217,53.995 54.120 C 53.952 54.085,53.729 54.155,53.500 54.276 M52.410 54.918 C 52.139 55.140,51.992 55.322,52.083 55.322 C 52.295 55.322,53.071 54.683,52.975 54.587 C 52.936 54.547,52.682 54.696,52.410 54.918 M50.167 56.271 L 49.750 56.688 50.291 56.386 C 50.588 56.219,50.832 56.027,50.832 55.958 C 50.834 55.732,50.590 55.847,50.167 56.271 M49.167 56.917 C 49.051 57.056,49.033 57.167,49.126 57.167 C 49.218 57.167,49.386 57.054,49.500 56.917 C 49.616 56.777,49.634 56.667,49.541 56.667 C 49.449 56.667,49.281 56.779,49.167 56.917 M48.093 57.430 C 47.823 57.628,47.814 57.667,48.042 57.667 C 48.191 57.667,48.363 57.587,48.424 57.489 C 48.600 57.203,48.442 57.175,48.093 57.430 " stroke="none" fill="#2c7cec" fill-rule="evenodd"></path></g></svg>