<svg id="svg" version="1.1" xmlns="http://www.w3.org/2000/svg" xmlns:xlink="http://www.w3.org/1999/xlink" width="400" height="80.90909090909092" viewBox="0, 0, 400,80.90909090909092"><g id="svgg"><path id="path0" d="M122.611 18.238 C 122.561 18.369,122.628 18.565,122.760 18.675 C 122.892 18.784,123.000 18.977,123.000 19.104 C 123.000 19.230,123.074 19.333,123.163 19.333 C 123.253 19.333,123.374 19.521,123.432 19.750 C 123.489 19.979,123.603 20.167,123.685 20.167 C 123.766 20.167,123.833 20.279,123.833 20.417 C 123.833 20.554,123.946 20.667,124.083 20.667 C 124.239 20.667,124.333 20.824,124.333 21.083 C 124.333 21.343,124.428 21.500,124.583 21.500 C 124.721 21.500,124.833 21.601,124.833 21.724 C 124.833 22.059,125.334 23.000,125.512 23.000 C 125.597 23.000,125.667 23.152,125.667 23.339 C 125.667 23.525,125.779 23.720,125.917 23.773 C 126.054 23.826,126.167 23.973,126.167 24.101 C 126.167 24.229,126.279 24.333,126.417 24.333 C 126.572 24.333,126.667 24.491,126.667 24.750 C 126.667 24.979,126.742 25.167,126.833 25.167 C 126.925 25.167,127.000 25.271,127.000 25.399 C 127.000 25.527,127.112 25.674,127.250 25.727 C 127.388 25.780,127.500 25.975,127.500 26.161 C 127.500 26.351,127.610 26.500,127.750 26.500 C 127.898 26.500,128.000 26.653,128.000 26.877 C 128.000 27.084,128.188 27.456,128.417 27.703 C 128.646 27.950,128.833 28.270,128.833 28.415 C 128.833 28.559,128.946 28.720,129.083 28.773 C 129.221 28.826,129.333 28.973,129.333 29.101 C 129.333 29.229,129.446 29.333,129.583 29.333 C 129.739 29.333,129.833 29.491,129.833 29.750 C 129.833 29.979,129.900 30.167,129.982 30.167 C 130.064 30.167,130.178 30.354,130.235 30.583 C 130.293 30.813,130.413 31.000,130.503 31.000 C 130.593 31.000,130.667 31.113,130.667 31.250 C 130.667 31.387,130.779 31.500,130.917 31.500 C 131.083 31.500,131.167 31.667,131.167 32.000 C 131.167 32.333,131.250 32.500,131.417 32.500 C 131.554 32.500,131.667 32.612,131.667 32.750 C 131.667 32.887,131.742 33.000,131.833 33.000 C 131.925 33.000,132.000 33.188,132.000 33.417 C 132.000 33.676,132.094 33.833,132.250 33.833 C 132.390 33.833,132.500 33.982,132.500 34.172 C 132.500 34.358,132.612 34.554,132.750 34.606 C 132.887 34.659,133.000 34.801,133.000 34.921 C 133.000 35.041,133.056 35.164,133.125 35.194 C 133.194 35.225,133.393 35.531,133.568 35.875 C 133.743 36.219,133.987 36.500,134.110 36.500 C 134.247 36.500,134.333 36.693,134.333 37.000 C 134.333 37.333,134.417 37.500,134.583 37.500 C 134.721 37.500,134.833 37.639,134.833 37.809 C 134.833 37.979,135.021 38.320,135.250 38.568 C 135.479 38.815,135.667 39.163,135.667 39.342 C 135.667 39.521,135.779 39.667,135.917 39.667 C 136.054 39.667,136.167 39.779,136.167 39.917 C 136.167 40.054,136.279 40.167,136.417 40.167 C 136.554 40.167,136.667 40.311,136.667 40.486 C 136.667 40.848,137.184 41.831,137.375 41.832 C 137.444 41.833,137.500 41.983,137.500 42.167 C 137.500 42.352,137.611 42.500,137.750 42.500 C 137.894 42.500,138.000 42.651,138.000 42.856 C 138.000 43.052,138.188 43.386,138.417 43.598 C 138.646 43.810,138.833 44.138,138.833 44.325 C 138.833 44.513,138.938 44.667,139.065 44.667 C 139.193 44.667,139.344 44.854,139.402 45.083 C 139.459 45.313,139.580 45.500,139.670 45.500 C 139.775 45.500,139.833 49.738,139.833 57.417 L 139.833 69.333 145.000 69.333 L 150.167 69.333 150.167 57.328 C 150.167 46.811,150.198 45.311,150.417 45.227 C 150.554 45.174,150.667 45.027,150.667 44.899 C 150.667 44.771,150.779 44.667,150.917 44.667 C 151.054 44.667,151.167 44.521,151.167 44.342 C 151.167 44.163,151.354 43.815,151.583 43.568 C 151.813 43.320,152.000 42.979,152.000 42.809 C 152.000 42.639,152.112 42.500,152.250 42.500 C 152.417 42.500,152.500 42.333,152.500 42.000 C 152.500 41.667,152.583 41.500,152.750 41.500 C 152.887 41.500,153.000 41.387,153.000 41.250 C 153.000 41.112,153.075 41.000,153.167 41.000 C 153.258 41.000,153.333 40.813,153.333 40.583 C 153.333 40.340,153.429 40.167,153.564 40.167 C 153.691 40.167,153.839 40.035,153.892 39.875 C 154.032 39.460,154.381 38.939,154.625 38.783 C 154.740 38.710,154.833 38.504,154.833 38.325 C 154.833 38.146,154.908 38.000,155.000 38.000 C 155.092 38.000,155.167 37.885,155.167 37.745 C 155.167 37.604,155.279 37.446,155.417 37.394 C 155.554 37.341,155.667 37.118,155.667 36.899 C 155.667 36.655,155.764 36.500,155.917 36.500 C 156.072 36.500,156.167 36.343,156.167 36.083 C 156.167 35.824,156.261 35.667,156.417 35.667 C 156.554 35.667,156.667 35.554,156.667 35.417 C 156.667 35.279,156.742 35.167,156.833 35.167 C 156.925 35.167,157.000 34.979,157.000 34.750 C 157.000 34.491,157.094 34.333,157.250 34.333 C 157.389 34.333,157.500 34.185,157.500 34.000 C 157.500 33.817,157.556 33.666,157.625 33.666 C 157.816 33.664,158.333 32.681,158.333 32.320 C 158.333 32.144,158.446 32.000,158.583 32.000 C 158.721 32.000,158.833 31.896,158.833 31.768 C 158.833 31.640,158.946 31.492,159.083 31.440 C 159.221 31.387,159.333 31.199,159.333 31.023 C 159.333 30.847,159.446 30.659,159.583 30.606 C 159.721 30.554,159.833 30.366,159.833 30.189 C 159.833 30.013,160.020 29.692,160.247 29.476 C 160.475 29.260,160.662 28.915,160.664 28.708 C 160.665 28.487,160.769 28.333,160.917 28.333 C 161.054 28.333,161.167 28.221,161.167 28.083 C 161.167 27.946,161.240 27.833,161.330 27.833 C 161.420 27.833,161.541 27.646,161.598 27.417 C 161.656 27.188,161.770 27.000,161.851 27.000 C 161.933 27.000,162.000 26.813,162.000 26.583 C 162.000 26.324,162.094 26.167,162.250 26.167 C 162.387 26.167,162.500 26.062,162.500 25.934 C 162.500 25.807,162.612 25.659,162.750 25.606 C 162.887 25.554,163.000 25.321,163.000 25.089 C 163.000 24.857,163.075 24.667,163.167 24.667 C 163.258 24.667,163.333 24.525,163.333 24.351 C 163.333 24.178,163.446 23.992,163.583 23.940 C 163.721 23.887,163.833 23.729,163.833 23.589 C 163.833 23.448,163.946 23.333,164.083 23.333 C 164.221 23.333,164.333 23.187,164.333 23.009 C 164.333 22.830,164.521 22.482,164.750 22.234 C 164.979 21.987,165.167 21.646,165.167 21.476 C 165.167 21.306,165.279 21.167,165.417 21.167 C 165.583 21.167,165.667 21.000,165.667 20.667 C 165.667 20.333,165.750 20.167,165.917 20.167 C 166.054 20.167,166.167 20.054,166.167 19.917 C 166.167 19.779,166.240 19.667,166.330 19.667 C 166.420 19.667,166.541 19.479,166.598 19.250 C 166.656 19.021,166.770 18.833,166.851 18.833 C 166.933 18.833,167.000 18.646,167.000 18.417 L 167.000 18.000 160.667 18.000 C 154.412 18.000,154.333 18.004,154.333 18.339 C 154.333 18.525,154.221 18.720,154.083 18.773 C 153.946 18.826,153.833 18.973,153.833 19.101 C 153.833 19.229,153.766 19.333,153.685 19.333 C 153.603 19.333,153.489 19.521,153.432 19.750 C 153.374 19.979,153.253 20.167,153.163 20.167 C 153.074 20.167,153.000 20.392,153.000 20.667 C 153.000 21.000,152.917 21.167,152.750 21.167 C 152.612 21.167,152.500 21.279,152.500 21.417 C 152.500 21.554,152.426 21.667,152.337 21.667 C 152.247 21.667,152.126 21.854,152.068 22.083 C 152.011 22.313,151.897 22.500,151.815 22.500 C 151.734 22.500,151.667 22.688,151.667 22.917 C 151.667 23.176,151.572 23.333,151.417 23.333 C 151.260 23.333,151.167 23.491,151.167 23.755 C 151.167 23.987,151.054 24.220,150.917 24.273 C 150.779 24.326,150.667 24.473,150.667 24.601 C 150.667 24.729,150.593 24.833,150.503 24.833 C 150.413 24.833,150.293 25.021,150.235 25.250 C 150.178 25.479,150.064 25.667,149.982 25.667 C 149.900 25.667,149.833 25.854,149.833 26.083 C 149.833 26.343,149.739 26.500,149.583 26.500 C 149.444 26.500,149.333 26.648,149.333 26.833 C 149.333 27.017,149.260 27.167,149.170 27.167 C 149.080 27.167,148.959 27.354,148.902 27.583 C 148.844 27.813,148.738 28.000,148.667 28.000 C 148.595 28.000,148.489 28.188,148.432 28.417 C 148.374 28.646,148.253 28.833,148.163 28.833 C 148.074 28.833,148.000 28.981,148.000 29.161 C 148.000 29.341,147.775 29.719,147.500 30.000 C 147.225 30.281,147.000 30.659,147.000 30.839 C 147.000 31.019,146.925 31.167,146.833 31.167 C 146.742 31.167,146.667 31.354,146.667 31.583 C 146.667 31.813,146.572 32.000,146.457 32.000 C 146.342 32.000,146.152 32.216,146.035 32.481 C 145.918 32.745,145.675 33.132,145.495 33.340 C 145.314 33.548,145.167 33.856,145.167 34.026 C 145.167 34.631,144.763 34.242,144.404 33.292 C 144.344 33.131,144.191 33.000,144.064 33.000 C 143.919 33.000,143.833 32.815,143.833 32.500 C 143.833 32.167,143.750 32.000,143.583 32.000 C 143.446 32.000,143.333 31.887,143.333 31.750 C 143.333 31.613,143.258 31.500,143.167 31.500 C 143.075 31.500,143.000 31.313,143.000 31.083 C 143.000 30.824,142.906 30.667,142.750 30.667 C 142.594 30.667,142.500 30.509,142.500 30.250 C 142.500 29.991,142.406 29.833,142.250 29.833 C 142.112 29.833,142.000 29.721,142.000 29.583 C 142.000 29.446,141.925 29.333,141.833 29.333 C 141.742 29.333,141.667 29.143,141.667 28.911 C 141.667 28.679,141.554 28.446,141.417 28.394 C 141.279 28.341,141.167 28.153,141.167 27.977 C 141.167 27.801,141.054 27.613,140.917 27.560 C 140.779 27.508,140.667 27.360,140.667 27.232 C 140.667 27.104,140.554 27.000,140.417 27.000 C 140.261 27.000,140.167 26.843,140.167 26.583 C 140.167 26.354,140.092 26.167,140.000 26.167 C 139.908 26.167,139.833 26.028,139.833 25.859 C 139.833 25.505,139.302 24.833,139.022 24.833 C 138.918 24.833,138.833 24.608,138.833 24.333 C 138.833 24.000,138.750 23.833,138.583 23.833 C 138.428 23.833,138.333 23.676,138.333 23.417 C 138.333 23.188,138.258 23.000,138.167 23.000 C 138.075 23.000,138.000 22.887,138.000 22.750 C 138.000 22.613,137.887 22.500,137.750 22.500 C 137.594 22.500,137.500 22.342,137.500 22.078 C 137.500 21.846,137.387 21.613,137.250 21.560 C 137.112 21.508,137.000 21.333,137.000 21.173 C 137.000 21.013,136.813 20.680,136.583 20.432 C 136.354 20.185,136.167 19.837,136.167 19.658 C 136.167 19.479,136.054 19.333,135.917 19.333 C 135.761 19.333,135.667 19.176,135.667 18.917 C 135.667 18.657,135.572 18.500,135.417 18.500 C 135.279 18.500,135.167 18.387,135.167 18.250 C 135.167 17.883,122.752 17.871,122.611 18.238 M242.500 22.750 L 242.500 27.500 249.583 27.500 L 256.667 27.500 256.667 48.316 C 256.667 67.143,256.692 69.141,256.930 69.232 C 257.075 69.288,259.400 69.333,262.097 69.333 L 267.000 69.333 267.000 48.418 L 267.000 27.504 274.292 27.460 L 281.583 27.417 281.628 22.708 L 281.672 18.000 262.086 18.000 L 242.500 18.000 242.500 22.750 M323.000 43.667 L 323.000 69.333 327.750 69.333 L 332.500 69.333 332.500 67.500 C 332.500 65.981,332.543 65.667,332.750 65.667 C 332.906 65.667,333.000 65.824,333.000 66.083 C 333.000 66.343,333.094 66.500,333.250 66.500 C 333.387 66.500,333.500 66.581,333.500 66.679 C 333.500 66.913,334.421 67.833,334.654 67.833 C 334.753 67.833,334.833 67.907,334.833 67.997 C 334.833 68.087,335.021 68.207,335.250 68.265 C 335.479 68.322,335.667 68.474,335.667 68.601 C 335.667 68.729,335.807 68.833,335.980 68.833 C 336.152 68.833,336.386 68.946,336.500 69.083 C 336.614 69.221,336.844 69.333,337.011 69.333 C 337.177 69.333,337.360 69.408,337.417 69.500 C 337.473 69.592,337.740 69.667,338.010 69.667 C 338.334 69.667,338.500 69.751,338.500 69.917 C 338.500 70.106,338.711 70.168,339.375 70.172 C 339.879 70.175,340.387 70.281,340.574 70.422 C 341.053 70.785,345.967 70.780,346.106 70.417 C 346.177 70.233,346.466 70.167,347.190 70.167 C 347.914 70.167,348.203 70.100,348.273 69.917 C 348.326 69.779,348.520 69.667,348.704 69.667 C 349.151 69.667,350.667 69.122,350.667 68.961 C 350.667 68.891,350.819 68.833,351.005 68.833 C 351.191 68.833,351.387 68.721,351.440 68.583 C 351.492 68.446,351.640 68.333,351.768 68.333 C 351.896 68.333,352.000 68.221,352.000 68.083 C 352.000 67.926,352.159 67.833,352.429 67.833 C 352.868 67.833,353.333 67.497,353.333 67.179 C 353.333 67.080,353.438 67.000,353.566 67.000 C 353.693 67.000,353.841 66.887,353.894 66.750 C 353.946 66.612,354.142 66.500,354.328 66.500 C 354.518 66.500,354.667 66.390,354.667 66.250 C 354.667 66.112,354.741 66.000,354.831 66.000 C 355.042 66.000,355.667 65.469,355.667 65.289 C 355.667 65.138,355.861 64.889,356.542 64.174 C 356.794 63.909,357.000 63.620,357.000 63.531 C 357.000 63.442,357.113 63.326,357.250 63.273 C 357.387 63.220,357.500 63.033,357.500 62.856 C 357.500 62.680,357.613 62.492,357.750 62.440 C 357.887 62.387,358.000 62.154,358.000 61.922 C 358.000 61.690,358.075 61.500,358.167 61.500 C 358.258 61.500,358.333 61.313,358.333 61.083 C 358.333 60.824,358.428 60.667,358.583 60.667 C 358.750 60.667,358.833 60.500,358.833 60.167 C 358.833 59.833,358.917 59.667,359.083 59.667 C 359.264 59.667,359.333 59.481,359.333 59.000 C 359.333 58.519,359.403 58.333,359.583 58.333 C 359.764 58.333,359.833 58.148,359.833 57.667 C 359.833 57.300,359.908 57.000,360.000 57.000 C 360.098 57.000,360.167 56.417,360.167 55.583 C 360.167 54.435,360.214 54.167,360.417 54.167 C 360.627 54.167,360.667 53.796,360.667 51.828 C 360.667 49.903,360.622 49.473,360.417 49.394 C 360.224 49.320,360.167 48.999,360.167 47.992 C 360.167 47.274,360.092 46.640,360.000 46.583 C 359.908 46.527,359.833 46.220,359.833 45.902 C 359.833 45.541,359.739 45.287,359.583 45.227 C 359.420 45.164,359.333 44.905,359.333 44.482 C 359.333 44.017,359.263 43.833,359.083 43.833 C 358.928 43.833,358.833 43.676,358.833 43.417 C 358.833 43.157,358.739 43.000,358.583 43.000 C 358.417 43.000,358.333 42.833,358.333 42.500 C 358.333 42.225,358.258 42.000,358.167 42.000 C 358.075 42.000,358.000 41.813,358.000 41.583 C 358.000 41.324,357.906 41.167,357.750 41.167 C 357.603 41.167,357.499 41.013,357.497 40.792 C 357.496 40.585,357.308 40.240,357.080 40.024 C 356.853 39.808,356.667 39.565,356.667 39.483 C 356.667 39.400,356.562 39.333,356.435 39.333 C 356.307 39.333,356.156 39.146,356.098 38.917 C 356.041 38.688,355.920 38.500,355.830 38.500 C 355.740 38.500,355.667 38.387,355.667 38.250 C 355.667 38.112,355.554 38.000,355.417 38.000 C 355.279 38.000,355.167 37.887,355.167 37.750 C 355.167 37.612,355.054 37.500,354.917 37.500 C 354.779 37.500,354.667 37.423,354.667 37.329 C 354.667 37.235,354.479 37.087,354.250 37.000 C 354.021 36.913,353.833 36.765,353.833 36.671 C 353.833 36.577,353.739 36.500,353.623 36.500 C 353.507 36.500,353.272 36.313,353.100 36.083 C 352.921 35.845,352.618 35.667,352.393 35.667 C 352.155 35.667,352.000 35.568,352.000 35.417 C 352.000 35.279,351.887 35.167,351.750 35.167 C 351.613 35.167,351.500 35.093,351.500 35.003 C 351.500 34.913,351.313 34.793,351.083 34.735 C 350.854 34.678,350.667 34.564,350.667 34.482 C 350.667 34.400,350.402 34.333,350.078 34.333 C 349.709 34.333,349.454 34.240,349.394 34.083 C 349.341 33.946,349.113 33.833,348.887 33.833 C 348.661 33.833,348.364 33.721,348.226 33.583 C 348.065 33.423,347.653 33.333,347.071 33.333 C 346.574 33.333,346.167 33.258,346.167 33.167 C 346.167 32.941,340.556 32.941,340.417 33.167 C 340.360 33.258,339.941 33.333,339.485 33.333 C 338.902 33.333,338.628 33.407,338.560 33.583 C 338.507 33.723,338.259 33.833,338.000 33.833 C 337.741 33.833,337.493 33.944,337.440 34.083 C 337.387 34.221,337.200 34.333,337.024 34.333 C 336.688 34.333,335.854 34.716,335.683 34.947 C 335.546 35.135,334.977 35.489,334.625 35.608 C 334.465 35.661,334.333 35.809,334.333 35.936 C 334.333 36.063,334.253 36.167,334.155 36.167 C 333.924 36.167,333.500 36.591,333.500 36.821 C 333.500 36.920,333.387 37.000,333.250 37.000 C 333.052 37.000,333.000 36.759,333.000 35.833 C 333.000 35.167,333.071 34.667,333.167 34.667 C 333.276 34.667,333.333 31.778,333.333 26.333 L 333.333 18.000 328.167 18.000 L 323.000 18.000 323.000 43.667 M46.500 40.420 C 46.500 55.969,46.524 57.500,46.762 57.262 C 46.906 57.118,47.168 57.000,47.345 57.000 C 47.522 57.000,47.667 56.925,47.667 56.833 C 47.667 56.742,47.846 56.667,48.066 56.667 C 48.285 56.667,48.508 56.554,48.560 56.417 C 48.613 56.279,48.798 56.167,48.971 56.167 C 49.145 56.167,49.427 55.979,49.600 55.750 C 49.774 55.518,50.082 55.333,50.295 55.333 C 50.505 55.333,50.720 55.221,50.773 55.083 C 50.826 54.946,51.030 54.830,51.226 54.826 C 51.423 54.822,51.767 54.597,51.992 54.326 C 52.217 54.055,52.531 53.833,52.691 53.833 C 52.850 53.833,53.027 53.758,53.083 53.667 C 53.140 53.575,53.334 53.500,53.515 53.500 C 53.696 53.500,53.887 53.387,53.940 53.250 C 53.992 53.112,54.196 52.997,54.393 52.993 C 54.589 52.989,54.934 52.764,55.159 52.493 C 55.384 52.222,55.698 52.000,55.857 52.000 C 56.017 52.000,56.193 51.925,56.250 51.833 C 56.307 51.742,56.536 51.667,56.760 51.667 C 57.010 51.667,57.167 51.571,57.167 51.417 C 57.167 51.276,57.316 51.167,57.508 51.167 C 57.696 51.167,58.023 50.979,58.235 50.750 C 58.448 50.521,58.774 50.333,58.960 50.333 C 59.146 50.333,59.341 50.221,59.394 50.083 C 59.446 49.946,59.671 49.833,59.894 49.833 C 60.116 49.833,60.341 49.721,60.394 49.583 C 60.446 49.446,60.636 49.333,60.816 49.333 C 60.996 49.333,61.290 49.146,61.470 48.917 C 61.650 48.688,61.958 48.500,62.154 48.500 C 62.350 48.500,62.554 48.387,62.606 48.250 C 62.659 48.112,62.848 48.000,63.026 48.000 C 63.204 48.000,63.523 47.813,63.735 47.583 C 63.948 47.354,64.282 47.167,64.477 47.167 C 64.683 47.167,64.833 47.061,64.833 46.917 C 64.833 46.760,64.991 46.667,65.255 46.667 C 65.487 46.667,65.720 46.554,65.773 46.417 C 65.826 46.279,66.021 46.167,66.207 46.167 C 66.393 46.167,66.719 45.979,66.931 45.750 C 67.144 45.521,67.463 45.333,67.641 45.333 C 67.819 45.333,68.008 45.221,68.060 45.083 C 68.113 44.946,68.338 44.833,68.560 44.833 C 68.783 44.833,69.008 44.721,69.060 44.583 C 69.113 44.446,69.281 44.333,69.434 44.333 C 69.587 44.333,69.886 44.146,70.098 43.917 C 70.310 43.688,70.640 43.500,70.831 43.500 C 71.021 43.500,71.220 43.388,71.273 43.250 C 71.326 43.113,71.540 43.000,71.750 43.000 C 71.960 43.000,72.174 42.887,72.227 42.750 C 72.280 42.612,72.456 42.498,72.620 42.495 C 72.984 42.488,73.500 42.114,73.500 41.857 C 73.500 41.752,73.690 41.667,73.922 41.667 C 74.154 41.667,74.387 41.554,74.440 41.417 C 74.492 41.279,74.678 41.167,74.851 41.167 C 75.184 41.167,75.833 40.616,75.833 40.333 C 75.833 40.242,75.643 40.167,75.411 40.167 C 75.179 40.167,74.946 40.054,74.894 39.917 C 74.841 39.779,74.652 39.667,74.474 39.667 C 74.296 39.667,73.977 39.479,73.765 39.250 C 73.552 39.021,73.253 38.833,73.101 38.833 C 72.948 38.833,72.780 38.721,72.727 38.583 C 72.674 38.446,72.449 38.333,72.227 38.333 C 72.005 38.333,71.780 38.221,71.727 38.083 C 71.674 37.946,71.485 37.833,71.308 37.833 C 71.130 37.833,70.810 37.646,70.598 37.417 C 70.386 37.188,70.060 37.000,69.874 37.000 C 69.688 37.000,69.492 36.887,69.440 36.750 C 69.387 36.612,69.189 36.500,69.000 36.500 C 68.811 36.500,68.613 36.387,68.560 36.250 C 68.508 36.112,68.312 36.000,68.126 36.000 C 67.940 36.000,67.614 35.813,67.402 35.583 C 67.190 35.354,66.870 35.167,66.692 35.167 C 66.515 35.167,66.326 35.054,66.273 34.917 C 66.220 34.779,65.987 34.667,65.755 34.667 C 65.491 34.667,65.333 34.573,65.333 34.417 C 65.333 34.263,65.177 34.167,64.929 34.167 C 64.696 34.167,64.385 33.990,64.196 33.750 C 64.016 33.521,63.708 33.333,63.512 33.333 C 63.317 33.333,63.113 33.221,63.060 33.083 C 63.008 32.946,62.819 32.833,62.641 32.833 C 62.463 32.833,62.144 32.646,61.931 32.417 C 61.719 32.188,61.420 32.000,61.267 32.000 C 61.115 32.000,60.946 31.887,60.894 31.750 C 60.841 31.613,60.616 31.500,60.394 31.500 C 60.171 31.500,59.946 31.387,59.894 31.250 C 59.841 31.113,59.652 31.000,59.474 31.000 C 59.296 31.000,58.977 30.813,58.765 30.583 C 58.552 30.354,58.218 30.167,58.023 30.167 C 57.817 30.167,57.667 30.061,57.667 29.917 C 57.667 29.760,57.509 29.667,57.245 29.667 C 57.013 29.667,56.780 29.554,56.727 29.417 C 56.674 29.279,56.479 29.167,56.293 29.167 C 56.107 29.167,55.781 28.979,55.569 28.750 C 55.356 28.521,55.037 28.333,54.859 28.333 C 54.681 28.333,54.492 28.221,54.440 28.083 C 54.387 27.946,54.154 27.833,53.922 27.833 C 53.690 27.833,53.500 27.758,53.500 27.667 C 53.500 27.575,53.365 27.500,53.201 27.500 C 53.036 27.500,52.717 27.278,52.492 27.007 C 52.264 26.732,51.915 26.511,51.703 26.507 C 51.494 26.503,51.280 26.387,51.227 26.250 C 51.174 26.113,50.985 26.000,50.808 26.000 C 50.630 26.000,50.310 25.813,50.098 25.583 C 49.886 25.354,49.552 25.167,49.356 25.167 C 49.151 25.167,49.000 25.061,49.000 24.917 C 49.000 24.760,48.842 24.667,48.578 24.667 C 48.346 24.667,48.113 24.554,48.060 24.417 C 48.008 24.279,47.812 24.167,47.626 24.167 C 47.440 24.167,47.111 23.975,46.894 23.741 L 46.500 23.316 46.500 40.420 M177.167 33.167 C 177.167 33.261,176.693 33.333,176.078 33.333 C 175.264 33.333,174.965 33.396,174.894 33.583 C 174.831 33.746,174.572 33.833,174.149 33.833 C 173.683 33.833,173.500 33.904,173.500 34.083 C 173.500 34.264,173.315 34.333,172.833 34.333 C 172.467 34.333,172.167 34.402,172.167 34.487 C 172.167 34.571,171.942 34.690,171.667 34.750 C 171.392 34.810,171.167 34.929,171.167 35.013 C 171.167 35.098,171.014 35.167,170.828 35.167 C 170.642 35.167,170.446 35.279,170.394 35.417 C 170.341 35.554,170.193 35.667,170.066 35.667 C 169.938 35.667,169.833 35.779,169.833 35.917 C 169.833 36.073,169.675 36.167,169.411 36.167 C 169.000 36.167,168.000 36.998,168.000 37.339 C 168.000 37.428,167.848 37.500,167.661 37.500 C 167.475 37.500,167.280 37.612,167.227 37.750 C 167.174 37.887,167.027 38.000,166.899 38.000 C 166.771 38.000,166.667 38.104,166.667 38.232 C 166.667 38.360,166.554 38.508,166.417 38.560 C 166.279 38.613,166.167 38.809,166.167 38.995 C 166.167 39.181,166.086 39.333,165.987 39.333 C 165.725 39.333,164.833 40.268,164.833 40.543 C 164.833 40.672,164.610 40.997,164.338 41.264 C 164.066 41.531,163.841 41.919,163.838 42.125 C 163.835 42.331,163.766 42.500,163.685 42.500 C 163.603 42.500,163.489 42.688,163.432 42.917 C 163.374 43.146,163.253 43.333,163.163 43.333 C 163.074 43.333,163.000 43.625,163.000 43.982 C 163.000 44.405,162.913 44.664,162.750 44.727 C 162.585 44.790,162.500 45.051,162.500 45.495 C 162.500 45.981,162.431 46.167,162.250 46.167 C 162.058 46.167,162.000 46.380,162.000 47.083 C 162.000 47.587,161.925 48.000,161.833 48.000 C 161.727 48.000,161.667 49.361,161.667 51.750 C 161.667 54.139,161.727 55.500,161.833 55.500 C 161.925 55.500,162.000 55.915,162.000 56.422 C 162.000 57.088,162.069 57.370,162.250 57.440 C 162.413 57.502,162.500 57.762,162.500 58.184 C 162.500 58.650,162.571 58.833,162.750 58.833 C 162.931 58.833,163.000 59.019,163.000 59.500 C 163.000 59.867,163.067 60.167,163.149 60.167 C 163.230 60.167,163.344 60.354,163.402 60.583 C 163.459 60.813,163.580 61.000,163.670 61.000 C 163.760 61.000,163.833 61.190,163.833 61.422 C 163.833 61.654,163.946 61.887,164.083 61.940 C 164.221 61.992,164.333 62.132,164.333 62.250 C 164.333 62.368,164.446 62.508,164.583 62.560 C 164.721 62.613,164.833 62.781,164.833 62.934 C 164.833 63.087,165.021 63.386,165.250 63.598 C 165.479 63.810,165.667 64.063,165.667 64.159 C 165.667 64.255,165.779 64.333,165.917 64.333 C 166.054 64.333,166.167 64.433,166.167 64.556 C 166.167 64.888,167.343 66.000,167.694 66.000 C 167.862 66.000,168.000 66.085,168.000 66.189 C 168.000 66.493,169.161 67.500,169.512 67.500 C 169.689 67.500,169.833 67.575,169.833 67.667 C 169.833 67.758,169.946 67.833,170.083 67.833 C 170.221 67.833,170.333 67.946,170.333 68.083 C 170.333 68.239,170.491 68.333,170.750 68.333 C 171.009 68.333,171.167 68.428,171.167 68.583 C 171.167 68.730,171.322 68.836,171.542 68.839 C 171.748 68.842,172.062 68.954,172.240 69.089 C 172.418 69.223,172.774 69.333,173.032 69.333 C 173.289 69.333,173.500 69.408,173.500 69.500 C 173.500 69.592,173.800 69.667,174.167 69.667 C 174.648 69.667,174.833 69.736,174.833 69.917 C 174.833 70.113,175.063 70.167,175.896 70.167 C 176.656 70.167,177.021 70.241,177.175 70.426 C 177.460 70.770,183.677 70.721,183.792 70.375 C 183.838 70.237,184.224 70.167,184.936 70.167 C 185.737 70.167,186.035 70.103,186.106 69.917 C 186.169 69.754,186.428 69.667,186.851 69.667 C 187.208 69.667,187.500 69.592,187.500 69.500 C 187.500 69.408,187.673 69.333,187.885 69.333 C 188.096 69.333,188.415 69.223,188.593 69.089 C 188.771 68.954,189.050 68.842,189.214 68.839 C 189.377 68.836,189.554 68.721,189.606 68.583 C 189.659 68.446,189.835 68.333,189.997 68.333 C 190.160 68.333,190.386 68.221,190.500 68.083 C 190.614 67.946,190.811 67.833,190.937 67.833 C 191.063 67.833,191.167 67.766,191.167 67.685 C 191.167 67.603,191.354 67.489,191.583 67.432 C 191.813 67.374,192.000 67.253,192.000 67.163 C 192.000 67.074,192.112 67.000,192.250 67.000 C 192.387 67.000,192.500 66.887,192.500 66.750 C 192.500 66.612,192.612 66.500,192.750 66.500 C 192.887 66.500,193.000 66.420,193.000 66.321 C 193.000 66.134,193.408 65.667,193.571 65.667 C 193.733 65.667,194.333 65.010,194.333 64.833 C 194.333 64.742,194.414 64.667,194.512 64.667 C 194.743 64.667,195.167 64.243,195.167 64.012 C 195.167 63.914,195.279 63.833,195.417 63.833 C 195.554 63.833,195.667 63.729,195.667 63.601 C 195.667 63.473,195.779 63.326,195.917 63.273 C 196.054 63.220,196.167 63.025,196.167 62.839 C 196.167 62.652,196.236 62.500,196.321 62.500 C 196.499 62.500,197.000 61.559,197.000 61.224 C 197.000 61.101,197.112 61.000,197.250 61.000 C 197.407 61.000,197.500 60.841,197.500 60.571 C 197.500 60.336,197.612 60.030,197.750 59.893 C 197.887 59.755,198.000 59.461,198.000 59.238 C 198.000 59.015,198.075 58.833,198.167 58.833 C 198.258 58.833,198.333 58.531,198.333 58.161 C 198.333 57.718,198.418 57.457,198.583 57.394 C 198.767 57.323,198.835 57.027,198.839 56.274 C 198.842 55.639,198.937 55.127,199.089 54.926 C 199.450 54.448,199.446 48.970,199.083 48.607 C 198.912 48.436,198.833 48.013,198.833 47.262 C 198.833 46.399,198.780 46.167,198.583 46.167 C 198.403 46.167,198.333 45.983,198.333 45.510 C 198.333 45.149,198.258 44.807,198.167 44.750 C 198.075 44.693,198.000 44.473,198.000 44.261 C 198.000 44.048,197.887 43.781,197.750 43.667 C 197.612 43.553,197.500 43.279,197.500 43.058 C 197.500 42.837,197.398 42.617,197.274 42.569 C 197.149 42.522,196.950 42.187,196.830 41.825 C 196.711 41.463,196.513 41.167,196.390 41.167 C 196.267 41.167,196.167 41.002,196.167 40.801 C 196.167 40.590,195.886 40.174,195.500 39.814 C 195.133 39.472,194.833 39.112,194.833 39.013 C 194.833 38.914,194.721 38.833,194.583 38.833 C 194.446 38.833,194.333 38.727,194.333 38.597 C 194.333 38.467,194.108 38.262,193.833 38.140 C 193.558 38.018,193.333 37.824,193.333 37.709 C 193.333 37.594,193.258 37.500,193.167 37.500 C 193.075 37.500,193.000 37.387,193.000 37.250 C 193.000 37.112,192.921 37.000,192.825 37.000 C 192.729 37.000,192.477 36.813,192.265 36.583 C 192.052 36.354,191.718 36.167,191.523 36.167 C 191.317 36.167,191.167 36.061,191.167 35.917 C 191.167 35.778,191.019 35.667,190.833 35.667 C 190.650 35.667,190.500 35.597,190.500 35.511 C 190.500 35.426,190.335 35.303,190.133 35.239 C 189.931 35.175,189.663 35.020,189.538 34.895 C 189.412 34.769,189.165 34.667,188.988 34.667 C 188.811 34.667,188.667 34.592,188.667 34.500 C 188.667 34.408,188.404 34.333,188.083 34.333 C 187.676 34.333,187.500 34.258,187.500 34.083 C 187.500 33.904,187.317 33.833,186.854 33.833 C 186.483 33.833,186.119 33.727,186.000 33.583 C 185.859 33.414,185.481 33.333,184.823 33.333 C 184.289 33.333,183.807 33.258,183.750 33.167 C 183.687 33.065,182.387 33.000,180.407 33.000 C 178.358 33.000,177.167 33.061,177.167 33.167 M379.333 33.167 C 379.333 33.261,378.859 33.333,378.245 33.333 C 377.431 33.333,377.132 33.396,377.060 33.583 C 376.998 33.746,376.738 33.833,376.316 33.833 C 375.850 33.833,375.667 33.904,375.667 34.083 C 375.667 34.248,375.502 34.333,375.180 34.333 C 374.707 34.333,373.639 34.791,373.528 35.042 C 373.497 35.110,373.366 35.167,373.236 35.167 C 373.106 35.167,373.000 35.279,373.000 35.417 C 373.000 35.583,372.833 35.667,372.500 35.667 C 372.210 35.667,372.000 35.755,372.000 35.876 C 372.000 35.991,371.756 36.191,371.458 36.320 C 370.877 36.571,369.833 37.538,369.833 37.825 C 369.833 37.921,369.721 38.000,369.583 38.000 C 369.446 38.000,369.333 38.075,369.333 38.167 C 369.333 38.258,369.221 38.333,369.083 38.333 C 368.946 38.333,368.833 38.408,368.833 38.500 C 368.833 38.592,368.533 38.967,368.167 39.333 C 367.800 39.700,367.500 40.150,367.500 40.333 C 367.500 40.519,367.389 40.667,367.250 40.667 C 367.113 40.667,367.000 40.779,367.000 40.917 C 367.000 41.054,366.925 41.167,366.833 41.167 C 366.742 41.167,366.667 41.354,366.667 41.583 C 366.667 41.813,366.573 42.002,366.458 42.004 C 366.211 42.009,365.667 43.042,365.667 43.507 C 365.667 43.686,365.554 43.833,365.417 43.833 C 365.263 43.833,365.167 43.990,365.167 44.240 C 365.167 44.464,365.092 44.693,365.000 44.750 C 364.908 44.807,364.833 45.149,364.833 45.510 C 364.833 45.983,364.763 46.167,364.583 46.167 C 364.387 46.167,364.333 46.396,364.333 47.232 C 364.333 48.026,364.269 48.322,364.083 48.394 C 363.873 48.474,363.833 49.013,363.833 51.816 C 363.833 54.551,363.878 55.187,364.083 55.393 C 364.246 55.555,364.333 55.968,364.333 56.571 C 364.333 57.286,364.391 57.500,364.583 57.500 C 364.764 57.500,364.833 57.685,364.833 58.167 C 364.833 58.533,364.908 58.833,365.000 58.833 C 365.092 58.833,365.167 59.053,365.167 59.321 C 365.167 59.590,365.279 59.922,365.417 60.060 C 365.554 60.197,365.667 60.465,365.667 60.655 C 365.667 60.851,365.775 61.000,365.917 61.000 C 366.073 61.000,366.167 61.158,366.167 61.422 C 366.167 61.654,366.279 61.887,366.417 61.940 C 366.554 61.992,366.667 62.140,366.667 62.268 C 366.667 62.396,366.742 62.500,366.833 62.500 C 366.925 62.500,367.000 62.652,367.000 62.839 C 367.000 63.025,367.113 63.220,367.250 63.273 C 367.387 63.326,367.500 63.473,367.500 63.601 C 367.500 63.729,367.613 63.833,367.750 63.833 C 367.887 63.833,368.000 63.914,368.000 64.012 C 368.000 64.243,368.424 64.667,368.655 64.667 C 368.753 64.667,368.833 64.742,368.833 64.833 C 368.833 65.010,369.434 65.667,369.595 65.667 C 369.759 65.667,370.167 66.134,370.167 66.321 C 370.167 66.420,370.279 66.500,370.417 66.500 C 370.554 66.500,370.667 66.612,370.667 66.750 C 370.667 66.887,370.779 67.000,370.917 67.000 C 371.054 67.000,371.167 67.067,371.167 67.149 C 371.167 67.230,371.354 67.344,371.583 67.402 C 371.813 67.459,372.000 67.580,372.000 67.670 C 372.000 67.760,372.150 67.833,372.333 67.833 C 372.517 67.833,372.667 67.907,372.667 67.997 C 372.667 68.087,372.849 68.206,373.071 68.262 C 373.294 68.318,373.516 68.469,373.566 68.598 C 373.616 68.728,373.790 68.836,373.953 68.839 C 374.116 68.842,374.396 68.954,374.574 69.089 C 374.751 69.223,375.070 69.333,375.282 69.333 C 375.494 69.333,375.667 69.408,375.667 69.500 C 375.667 69.592,375.969 69.667,376.339 69.667 C 376.782 69.667,377.043 69.752,377.106 69.917 C 377.178 70.102,377.473 70.167,378.254 70.167 C 378.947 70.167,379.329 70.238,379.375 70.375 C 379.490 70.722,385.970 70.772,386.103 70.427 C 386.179 70.229,386.456 70.167,387.268 70.167 C 388.104 70.167,388.333 70.113,388.333 69.917 C 388.333 69.732,388.527 69.667,389.073 69.667 C 389.481 69.667,389.860 69.592,389.917 69.500 C 389.973 69.408,390.197 69.333,390.415 69.333 C 390.632 69.333,390.922 69.221,391.060 69.083 C 391.197 68.946,391.465 68.833,391.655 68.833 C 391.851 68.833,392.000 68.725,392.000 68.583 C 392.000 68.432,392.155 68.333,392.393 68.333 C 392.616 68.333,392.919 68.157,393.092 67.927 C 393.260 67.703,393.554 67.481,393.745 67.433 C 394.172 67.326,395.167 66.459,395.167 66.193 C 395.167 66.087,395.279 66.000,395.417 66.000 C 395.554 66.000,395.667 65.925,395.667 65.833 C 395.667 65.742,395.779 65.667,395.917 65.667 C 396.054 65.667,396.167 65.554,396.167 65.417 C 396.167 65.279,396.279 65.167,396.417 65.167 C 396.554 65.167,396.667 65.089,396.667 64.995 C 396.667 64.900,397.042 64.460,397.500 64.016 C 397.985 63.546,398.333 63.060,398.333 62.854 C 398.333 62.650,398.440 62.500,398.583 62.500 C 398.721 62.500,398.833 62.396,398.833 62.268 C 398.833 62.140,398.946 61.992,399.083 61.940 C 399.221 61.887,399.333 61.654,399.333 61.422 C 399.333 61.190,399.414 61.000,399.512 61.000 C 399.872 61.000,399.589 60.251,399.208 60.197 C 399.002 60.167,398.833 60.036,398.833 59.905 C 398.833 59.762,398.667 59.667,398.417 59.667 C 398.188 59.667,398.000 59.592,398.000 59.500 C 398.000 59.408,397.775 59.333,397.500 59.333 C 397.167 59.333,397.000 59.250,397.000 59.083 C 397.000 58.931,396.845 58.833,396.601 58.833 C 396.382 58.833,396.159 58.721,396.106 58.583 C 396.054 58.446,395.829 58.333,395.606 58.333 C 395.384 58.333,395.159 58.221,395.106 58.083 C 395.054 57.946,394.858 57.833,394.672 57.833 C 394.486 57.833,394.333 57.758,394.333 57.667 C 394.333 57.575,394.108 57.500,393.833 57.500 C 393.500 57.500,393.333 57.417,393.333 57.250 C 393.333 57.097,393.178 57.000,392.934 57.000 C 392.715 57.000,392.491 56.883,392.436 56.741 C 392.241 56.231,390.761 56.487,390.697 57.042 C 390.667 57.304,390.542 57.500,390.406 57.500 C 390.274 57.500,390.167 57.562,390.167 57.637 C 390.167 57.842,388.375 59.667,388.174 59.667 C 388.078 59.667,388.000 59.779,388.000 59.917 C 388.000 60.069,387.845 60.167,387.601 60.167 C 387.382 60.167,387.159 60.279,387.106 60.417 C 387.054 60.554,386.821 60.667,386.589 60.667 C 386.357 60.667,386.167 60.741,386.167 60.831 C 386.167 60.922,385.867 61.044,385.500 61.103 C 385.133 61.161,384.833 61.275,384.833 61.355 C 384.833 61.548,381.213 61.543,381.093 61.349 C 381.042 61.266,380.625 61.146,380.166 61.083 C 379.708 61.020,379.333 60.901,379.333 60.818 C 379.333 60.735,379.108 60.667,378.833 60.667 C 378.500 60.667,378.333 60.583,378.333 60.417 C 378.333 60.261,378.176 60.167,377.917 60.167 C 377.657 60.167,377.500 60.072,377.500 59.917 C 377.500 59.779,377.387 59.667,377.250 59.667 C 377.113 59.667,377.000 59.592,377.000 59.500 C 377.000 59.408,376.887 59.333,376.750 59.333 C 376.613 59.333,376.500 59.250,376.500 59.147 C 376.500 59.045,376.200 58.670,375.833 58.314 C 375.467 57.958,375.167 57.617,375.167 57.556 C 375.167 57.308,374.593 56.167,374.468 56.167 C 374.394 56.167,374.333 55.947,374.333 55.679 C 374.333 55.410,374.221 55.078,374.083 54.940 C 373.481 54.339,373.594 54.333,386.943 54.333 L 400.052 54.333 399.954 50.321 C 399.875 47.079,399.806 46.233,399.595 45.911 C 399.451 45.691,399.333 45.247,399.333 44.923 C 399.333 44.510,399.258 44.333,399.083 44.333 C 398.903 44.333,398.833 44.148,398.833 43.667 C 398.833 43.185,398.764 43.000,398.583 43.000 C 398.417 43.000,398.333 42.833,398.333 42.500 C 398.333 42.225,398.258 42.000,398.167 42.000 C 398.075 42.000,398.000 41.813,398.000 41.583 C 398.000 41.324,397.906 41.167,397.750 41.167 C 397.594 41.167,397.500 41.009,397.500 40.745 C 397.500 40.513,397.387 40.280,397.250 40.227 C 397.113 40.174,397.000 40.061,397.000 39.975 C 397.000 39.828,396.862 39.632,396.375 39.089 C 396.260 38.962,396.167 38.793,396.167 38.716 C 396.167 38.532,395.545 38.000,395.331 38.000 C 395.241 38.000,395.167 37.915,395.167 37.811 C 395.167 37.538,394.097 36.571,393.506 36.309 C 393.227 36.186,393.000 35.991,393.000 35.876 C 393.000 35.761,392.850 35.667,392.667 35.667 C 392.483 35.667,392.333 35.597,392.333 35.511 C 392.333 35.426,392.168 35.303,391.966 35.239 C 391.764 35.175,391.496 35.020,391.371 34.895 C 391.245 34.769,391.036 34.667,390.905 34.667 C 390.774 34.667,390.667 34.592,390.667 34.500 C 390.667 34.408,390.367 34.333,390.000 34.333 C 389.519 34.333,389.333 34.264,389.333 34.083 C 389.333 33.904,389.150 33.833,388.684 33.833 C 388.262 33.833,388.002 33.746,387.940 33.583 C 387.868 33.396,387.569 33.333,386.755 33.333 C 386.141 33.333,385.667 33.261,385.667 33.167 C 385.667 33.061,384.500 33.000,382.500 33.000 C 380.500 33.000,379.333 33.061,379.333 33.167 M203.833 47.172 C 203.833 58.430,203.864 60.022,204.083 60.106 C 204.263 60.175,204.333 60.456,204.333 61.101 C 204.333 61.789,204.392 62.000,204.583 62.000 C 204.764 62.000,204.833 62.185,204.833 62.667 C 204.833 63.033,204.908 63.333,205.000 63.333 C 205.092 63.333,205.167 63.474,205.167 63.646 C 205.167 63.818,205.279 64.053,205.417 64.167 C 205.554 64.281,205.667 64.517,205.667 64.692 C 205.667 64.867,205.779 65.054,205.917 65.106 C 206.054 65.159,206.167 65.307,206.167 65.434 C 206.167 65.562,206.279 65.667,206.417 65.667 C 206.559 65.667,206.667 65.816,206.667 66.013 C 206.667 66.369,207.997 67.833,208.320 67.833 C 208.419 67.833,208.500 67.946,208.500 68.083 C 208.500 68.239,208.657 68.333,208.917 68.333 C 209.176 68.333,209.333 68.428,209.333 68.583 C 209.333 68.721,209.446 68.833,209.583 68.833 C 209.721 68.833,209.833 68.894,209.833 68.968 C 209.833 69.169,211.049 69.667,211.538 69.667 C 211.773 69.667,212.008 69.779,212.060 69.917 C 212.128 70.094,212.404 70.167,213.007 70.167 C 213.540 70.167,213.950 70.260,214.107 70.417 C 214.308 70.618,214.872 70.667,216.991 70.667 C 219.130 70.667,219.665 70.620,219.833 70.417 C 219.965 70.259,220.332 70.167,220.833 70.167 C 221.334 70.167,221.702 70.075,221.833 69.917 C 221.947 69.779,222.257 69.667,222.520 69.667 C 222.784 69.667,223.000 69.592,223.000 69.500 C 223.000 69.408,223.152 69.333,223.339 69.333 C 223.525 69.333,223.720 69.221,223.773 69.083 C 223.826 68.946,224.011 68.833,224.184 68.833 C 224.518 68.833,225.167 68.283,225.167 68.000 C 225.167 67.908,225.305 67.833,225.474 67.833 C 225.853 67.833,227.500 66.283,227.500 65.926 C 227.500 65.783,227.612 65.667,227.750 65.667 C 227.957 65.667,228.000 65.981,228.000 67.500 L 228.000 69.333 232.750 69.333 L 237.500 69.333 237.500 51.833 L 237.500 34.333 232.500 34.333 L 227.500 34.333 227.500 43.816 C 227.500 52.090,227.468 53.310,227.250 53.394 C 227.074 53.461,227.000 53.736,227.000 54.328 C 227.000 54.789,226.925 55.167,226.833 55.167 C 226.742 55.167,226.667 55.467,226.667 55.833 C 226.667 56.315,226.597 56.500,226.417 56.500 C 226.250 56.500,226.167 56.667,226.167 57.000 C 226.167 57.333,226.083 57.500,225.917 57.500 C 225.779 57.500,225.667 57.571,225.667 57.658 C 225.667 57.745,225.479 58.018,225.250 58.266 C 225.021 58.513,224.833 58.854,224.833 59.024 C 224.833 59.194,224.736 59.333,224.617 59.333 C 224.272 59.333,223.503 59.734,223.497 59.917 C 223.490 60.114,222.346 60.667,221.945 60.667 C 221.792 60.667,221.667 60.742,221.667 60.833 C 221.667 60.933,221.000 61.000,220.000 61.000 C 219.000 61.000,218.333 60.933,218.333 60.833 C 218.333 60.742,218.033 60.667,217.667 60.667 C 217.185 60.667,217.000 60.597,217.000 60.417 C 217.000 60.261,216.843 60.167,216.583 60.167 C 216.324 60.167,216.167 60.072,216.167 59.917 C 216.167 59.779,216.054 59.667,215.917 59.667 C 215.779 59.667,215.667 59.592,215.667 59.500 C 215.667 59.408,215.554 59.333,215.417 59.333 C 215.279 59.333,215.167 59.221,215.167 59.083 C 215.167 58.946,215.092 58.833,215.000 58.833 C 214.908 58.833,214.833 58.643,214.833 58.411 C 214.833 58.179,214.721 57.946,214.583 57.894 C 214.421 57.831,214.333 57.573,214.333 57.161 C 214.333 56.810,214.221 56.411,214.083 56.274 C 213.866 56.057,213.833 54.597,213.833 45.179 L 213.833 34.333 208.833 34.333 L 203.833 34.333 203.833 47.172 M282.000 47.071 C 282.000 58.172,282.032 59.842,282.250 60.060 C 282.406 60.216,282.500 60.626,282.500 61.155 C 282.500 61.795,282.561 62.000,282.750 62.000 C 282.930 62.000,283.000 62.184,283.000 62.653 C 283.000 63.012,283.056 63.331,283.125 63.361 C 283.308 63.442,283.833 64.487,283.833 64.769 C 283.833 64.902,283.946 65.054,284.083 65.106 C 284.221 65.159,284.333 65.307,284.333 65.434 C 284.333 65.562,284.446 65.667,284.583 65.667 C 284.725 65.667,284.833 65.816,284.833 66.013 C 284.833 66.369,286.164 67.833,286.487 67.833 C 286.586 67.833,286.667 67.946,286.667 68.083 C 286.667 68.239,286.824 68.333,287.083 68.333 C 287.343 68.333,287.500 68.428,287.500 68.583 C 287.500 68.721,287.612 68.833,287.750 68.833 C 287.887 68.833,288.000 68.894,288.000 68.968 C 288.000 69.169,289.215 69.667,289.705 69.667 C 289.939 69.667,290.174 69.779,290.227 69.917 C 290.295 70.094,290.571 70.167,291.173 70.167 C 291.707 70.167,292.117 70.260,292.274 70.417 C 292.475 70.618,293.039 70.667,295.158 70.667 C 297.296 70.667,297.832 70.620,298.000 70.417 C 298.132 70.258,298.500 70.167,299.009 70.167 C 299.498 70.167,299.907 70.070,300.060 69.917 C 300.197 69.779,300.502 69.667,300.738 69.667 C 300.974 69.667,301.167 69.592,301.167 69.500 C 301.167 69.408,301.354 69.333,301.583 69.333 C 301.843 69.333,302.000 69.239,302.000 69.083 C 302.000 68.934,302.153 68.833,302.380 68.833 C 302.752 68.833,303.333 68.324,303.333 67.998 C 303.333 67.907,303.471 67.833,303.638 67.833 C 304.041 67.833,305.667 66.330,305.667 65.958 C 305.667 65.798,305.779 65.667,305.917 65.667 C 306.124 65.667,306.167 65.981,306.167 67.500 L 306.167 69.333 310.917 69.333 L 315.667 69.333 315.667 51.833 L 315.667 34.333 310.667 34.333 L 305.667 34.333 305.667 43.762 C 305.667 51.921,305.633 53.224,305.417 53.440 C 305.270 53.587,305.167 53.995,305.167 54.429 C 305.167 54.835,305.092 55.167,305.000 55.167 C 304.908 55.167,304.833 55.467,304.833 55.833 C 304.833 56.315,304.764 56.500,304.583 56.500 C 304.417 56.500,304.333 56.667,304.333 57.000 C 304.333 57.333,304.250 57.500,304.083 57.500 C 303.946 57.500,303.833 57.578,303.833 57.674 C 303.833 57.769,303.680 58.011,303.494 58.212 C 303.307 58.413,303.111 58.747,303.059 58.955 C 303.007 59.163,302.874 59.333,302.765 59.333 C 302.412 59.333,301.669 59.744,301.668 59.940 C 301.667 60.045,301.479 60.178,301.250 60.235 C 301.021 60.293,300.833 60.413,300.833 60.503 C 300.833 60.593,300.608 60.667,300.333 60.667 C 300.058 60.667,299.833 60.742,299.833 60.833 C 299.833 60.933,299.167 61.000,298.167 61.000 C 297.167 61.000,296.500 60.933,296.500 60.833 C 296.500 60.742,296.200 60.667,295.833 60.667 C 295.352 60.667,295.167 60.597,295.167 60.417 C 295.167 60.261,295.009 60.167,294.750 60.167 C 294.491 60.167,294.333 60.072,294.333 59.917 C 294.333 59.779,294.221 59.667,294.083 59.667 C 293.946 59.667,293.833 59.592,293.833 59.500 C 293.833 59.408,293.721 59.333,293.583 59.333 C 293.446 59.333,293.333 59.221,293.333 59.083 C 293.333 58.946,293.258 58.833,293.167 58.833 C 293.075 58.833,293.000 58.643,293.000 58.411 C 293.000 58.179,292.887 57.946,292.750 57.894 C 292.588 57.831,292.500 57.573,292.500 57.161 C 292.500 56.810,292.387 56.411,292.250 56.274 C 292.033 56.057,292.000 54.597,292.000 45.179 L 292.000 34.333 287.000 34.333 L 282.000 34.333 282.000 47.071 M384.833 41.750 C 384.833 41.931,385.019 42.000,385.500 42.000 C 385.922 42.000,386.167 42.077,386.168 42.208 C 386.169 42.424,386.901 42.833,387.283 42.833 C 387.402 42.833,387.500 42.946,387.500 43.083 C 387.500 43.221,387.613 43.333,387.750 43.333 C 387.887 43.333,388.000 43.446,388.000 43.583 C 388.000 43.721,388.113 43.833,388.250 43.833 C 388.387 43.833,388.500 43.914,388.500 44.012 C 388.500 44.243,388.924 44.667,389.155 44.667 C 389.253 44.667,389.333 44.857,389.333 45.089 C 389.333 45.321,389.446 45.554,389.583 45.606 C 389.721 45.659,389.833 45.882,389.833 46.101 C 389.833 46.321,389.908 46.500,390.000 46.500 C 390.092 46.500,390.167 46.612,390.167 46.750 C 390.167 46.969,389.204 47.000,382.500 47.000 L 374.833 47.000 374.833 46.583 C 374.833 46.354,374.908 46.167,375.000 46.167 C 375.092 46.167,375.167 45.977,375.167 45.745 C 375.167 45.513,375.279 45.280,375.417 45.227 C 375.554 45.174,375.667 45.027,375.667 44.899 C 375.667 44.771,375.766 44.667,375.889 44.667 C 376.011 44.667,376.211 44.479,376.333 44.250 C 376.456 44.021,376.656 43.833,376.778 43.833 C 376.900 43.833,377.000 43.721,377.000 43.583 C 377.000 43.446,377.113 43.333,377.250 43.333 C 377.387 43.333,377.500 43.221,377.500 43.083 C 377.500 42.946,377.598 42.833,377.717 42.833 C 378.099 42.833,378.831 42.424,378.832 42.208 C 378.833 42.077,379.078 42.000,379.500 42.000 C 379.981 42.000,380.167 41.931,380.167 41.750 C 380.167 41.540,380.537 41.500,382.500 41.500 C 384.463 41.500,384.833 41.540,384.833 41.750 M182.083 42.667 C 182.140 42.758,182.482 42.833,182.843 42.833 C 183.316 42.833,183.500 42.903,183.500 43.083 C 183.500 43.236,183.655 43.333,183.899 43.333 C 184.118 43.333,184.341 43.446,184.394 43.583 C 184.446 43.721,184.608 43.833,184.753 43.833 C 184.897 43.833,185.190 44.021,185.402 44.250 C 185.614 44.479,185.836 44.667,185.894 44.667 C 186.015 44.667,186.667 45.294,186.667 45.410 C 186.667 45.452,186.967 45.801,187.333 46.187 C 187.700 46.572,188.000 47.025,188.000 47.194 C 188.000 47.362,188.065 47.500,188.145 47.500 C 188.225 47.500,188.339 47.800,188.397 48.167 C 188.456 48.533,188.570 48.833,188.650 48.833 C 188.731 48.833,188.825 49.400,188.860 50.092 C 188.905 50.965,188.999 51.396,189.169 51.501 C 189.381 51.633,189.375 51.718,189.123 52.144 C 188.943 52.450,188.833 52.979,188.833 53.548 C 188.833 54.051,188.721 54.677,188.584 54.939 C 188.447 55.202,188.335 55.585,188.334 55.792 C 188.334 55.998,188.258 56.167,188.167 56.167 C 188.075 56.167,188.000 56.319,188.000 56.505 C 188.000 56.691,187.887 56.887,187.750 56.940 C 187.612 56.992,187.500 57.140,187.500 57.268 C 187.500 57.396,187.387 57.500,187.250 57.500 C 187.112 57.500,187.000 57.575,187.000 57.668 C 187.000 57.878,185.536 59.333,185.324 59.333 C 185.237 59.333,185.167 59.400,185.167 59.482 C 185.167 59.564,184.979 59.678,184.750 59.735 C 184.521 59.793,184.333 59.913,184.333 60.003 C 184.333 60.093,184.146 60.167,183.917 60.167 C 183.657 60.167,183.500 60.261,183.500 60.417 C 183.500 60.597,183.316 60.667,182.843 60.667 C 182.482 60.667,182.140 60.742,182.083 60.833 C 182.027 60.925,181.279 61.000,180.417 61.000 C 179.554 61.000,178.807 60.925,178.750 60.833 C 178.693 60.742,178.357 60.667,178.002 60.667 C 177.647 60.667,177.245 60.554,177.107 60.417 C 176.970 60.279,176.737 60.167,176.590 60.167 C 176.443 60.167,176.280 60.054,176.227 59.917 C 176.174 59.779,176.027 59.667,175.899 59.667 C 175.771 59.667,175.667 59.592,175.667 59.500 C 175.667 59.408,175.562 59.333,175.434 59.333 C 175.307 59.333,175.159 59.221,175.106 59.083 C 175.054 58.946,174.910 58.833,174.787 58.833 C 174.548 58.833,173.833 57.964,173.833 57.673 C 173.833 57.578,173.721 57.500,173.583 57.500 C 173.446 57.500,173.333 57.387,173.333 57.250 C 173.333 57.112,173.258 57.000,173.167 57.000 C 173.075 57.000,173.000 56.813,173.000 56.583 C 173.000 56.324,172.906 56.167,172.750 56.167 C 172.585 56.167,172.500 56.002,172.500 55.684 C 172.500 55.410,172.393 55.161,172.250 55.106 C 172.066 55.036,172.000 54.745,172.000 54.005 C 172.000 53.446,171.926 53.000,171.833 53.000 C 171.738 53.000,171.667 52.503,171.667 51.843 C 171.667 51.207,171.742 50.640,171.833 50.583 C 171.925 50.527,172.000 50.032,172.000 49.485 C 172.000 48.754,172.066 48.464,172.250 48.394 C 172.387 48.341,172.500 48.126,172.500 47.917 C 172.500 47.707,172.612 47.492,172.750 47.440 C 172.887 47.387,173.000 47.154,173.000 46.922 C 173.000 46.690,173.075 46.500,173.167 46.500 C 173.258 46.500,173.333 46.387,173.333 46.250 C 173.333 46.112,173.446 46.000,173.583 46.000 C 173.721 46.000,173.833 45.887,173.833 45.750 C 173.833 45.612,173.896 45.500,173.973 45.500 C 174.050 45.500,174.199 45.313,174.303 45.083 C 174.407 44.854,174.617 44.667,174.769 44.667 C 174.921 44.667,175.209 44.498,175.408 44.292 C 175.854 43.831,176.275 43.551,176.875 43.315 C 177.127 43.215,177.333 43.066,177.333 42.984 C 177.333 42.901,177.671 42.833,178.083 42.833 C 178.496 42.833,178.833 42.758,178.833 42.667 C 178.833 42.567,179.469 42.500,180.407 42.500 C 181.276 42.500,182.026 42.575,182.083 42.667 M343.333 42.667 C 343.333 42.758,343.671 42.833,344.083 42.833 C 344.639 42.833,344.833 42.898,344.833 43.083 C 344.833 43.239,344.991 43.333,345.250 43.333 C 345.509 43.333,345.667 43.428,345.667 43.583 C 345.667 43.721,345.779 43.833,345.917 43.833 C 346.054 43.833,346.167 43.907,346.167 43.997 C 346.167 44.087,346.354 44.207,346.583 44.265 C 346.813 44.322,347.000 44.436,347.000 44.518 C 347.000 44.600,347.113 44.667,347.250 44.667 C 347.387 44.667,347.500 44.779,347.500 44.917 C 347.500 45.054,347.613 45.167,347.750 45.167 C 347.887 45.167,348.000 45.279,348.000 45.417 C 348.000 45.554,348.074 45.667,348.163 45.667 C 348.253 45.667,348.374 45.854,348.432 46.083 C 348.489 46.313,348.603 46.500,348.685 46.500 C 348.766 46.500,348.833 46.612,348.833 46.750 C 348.833 46.887,348.946 47.000,349.083 47.000 C 349.239 47.000,349.333 47.157,349.333 47.417 C 349.333 47.676,349.428 47.833,349.583 47.833 C 349.763 47.833,349.833 48.017,349.833 48.490 C 349.833 48.851,349.908 49.193,350.000 49.250 C 350.099 49.311,350.167 50.363,350.167 51.843 C 350.167 53.392,350.104 54.333,350.000 54.333 C 349.908 54.333,349.833 54.633,349.833 55.000 C 349.833 55.481,349.764 55.667,349.583 55.667 C 349.428 55.667,349.333 55.824,349.333 56.083 C 349.333 56.343,349.239 56.500,349.083 56.500 C 348.946 56.500,348.833 56.612,348.833 56.750 C 348.833 56.887,348.766 57.000,348.685 57.000 C 348.603 57.000,348.489 57.188,348.432 57.417 C 348.374 57.646,348.253 57.833,348.163 57.833 C 348.074 57.833,348.000 57.946,348.000 58.083 C 348.000 58.221,347.887 58.333,347.750 58.333 C 347.613 58.333,347.500 58.446,347.500 58.583 C 347.500 58.721,347.387 58.833,347.250 58.833 C 347.113 58.833,347.000 58.946,347.000 59.083 C 347.000 59.239,346.843 59.333,346.583 59.333 C 346.354 59.333,346.167 59.408,346.167 59.500 C 346.167 59.592,346.054 59.667,345.917 59.667 C 345.779 59.667,345.667 59.779,345.667 59.917 C 345.667 60.072,345.509 60.167,345.250 60.167 C 344.991 60.167,344.833 60.261,344.833 60.417 C 344.833 60.597,344.649 60.667,344.177 60.667 C 343.815 60.667,343.473 60.742,343.417 60.833 C 343.359 60.927,342.557 61.000,341.583 61.000 C 340.610 61.000,339.808 60.927,339.750 60.833 C 339.693 60.742,339.351 60.667,338.990 60.667 C 338.517 60.667,338.333 60.597,338.333 60.417 C 338.333 60.264,338.178 60.167,337.934 60.167 C 337.715 60.167,337.492 60.054,337.440 59.917 C 337.387 59.779,337.191 59.667,337.005 59.667 C 336.819 59.667,336.667 59.592,336.667 59.500 C 336.667 59.408,336.554 59.333,336.417 59.333 C 336.279 59.333,336.167 59.221,336.167 59.083 C 336.167 58.946,336.087 58.833,335.991 58.833 C 335.795 58.833,334.833 57.833,334.833 57.630 C 334.833 57.558,334.721 57.500,334.583 57.500 C 334.446 57.500,334.333 57.391,334.333 57.258 C 334.333 57.125,334.108 56.683,333.833 56.276 C 333.558 55.868,333.333 55.382,333.333 55.194 C 333.333 55.006,333.258 54.807,333.167 54.750 C 333.075 54.693,333.000 54.199,333.000 53.652 C 333.000 52.921,332.934 52.631,332.750 52.560 C 332.582 52.496,332.500 52.231,332.500 51.750 C 332.500 51.269,332.582 51.004,332.750 50.940 C 332.934 50.869,333.000 50.578,333.000 49.839 C 333.000 49.280,333.074 48.833,333.167 48.833 C 333.258 48.833,333.333 48.618,333.333 48.354 C 333.333 48.090,333.446 47.781,333.583 47.667 C 333.721 47.553,333.833 47.364,333.833 47.247 C 333.833 47.131,333.946 46.992,334.083 46.940 C 334.221 46.887,334.333 46.725,334.333 46.581 C 334.333 46.436,334.521 46.144,334.750 45.931 C 334.979 45.719,335.167 45.460,335.167 45.356 C 335.167 45.252,335.279 45.167,335.417 45.167 C 335.554 45.167,335.667 45.054,335.667 44.917 C 335.667 44.779,335.752 44.667,335.856 44.667 C 335.960 44.667,336.219 44.479,336.431 44.250 C 336.644 44.021,336.936 43.833,337.081 43.833 C 337.225 43.833,337.387 43.721,337.440 43.583 C 337.492 43.446,337.715 43.333,337.934 43.333 C 338.178 43.333,338.333 43.236,338.333 43.083 C 338.333 42.903,338.517 42.833,338.990 42.833 C 339.351 42.833,339.693 42.758,339.750 42.667 C 339.808 42.573,340.613 42.500,341.593 42.500 C 342.642 42.500,343.333 42.566,343.333 42.667 " stroke="none" fill="#fcfcfc" fill-rule="evenodd"></path><path id="path1" d="M47.703 0.126 C 39.716 0.164,38.476 0.203,38.393 0.418 C 38.311 0.631,37.531 0.667,32.899 0.667 C 28.211 0.667,27.500 0.700,27.500 0.917 C 27.500 1.131,27.009 1.167,24.083 1.167 C 21.157 1.167,20.667 1.203,20.667 1.417 C 20.667 1.625,20.333 1.667,18.667 1.667 C 17.444 1.667,16.667 1.731,16.667 1.833 C 16.667 1.933,16.026 2.000,15.078 2.000 C 13.820 2.000,13.470 2.052,13.394 2.250 C 13.331 2.413,13.072 2.500,12.649 2.500 C 12.183 2.500,12.000 2.571,12.000 2.750 C 12.000 2.931,11.815 3.000,11.333 3.000 C 10.967 3.000,10.667 3.075,10.667 3.167 C 10.667 3.258,10.479 3.333,10.250 3.333 C 9.991 3.333,9.833 3.428,9.833 3.583 C 9.833 3.750,9.667 3.833,9.333 3.833 C 9.000 3.833,8.833 3.917,8.833 4.083 C 8.833 4.221,8.721 4.333,8.583 4.333 C 8.446 4.333,8.333 4.446,8.333 4.583 C 8.333 4.725,8.184 4.833,7.987 4.833 C 7.628 4.833,6.667 5.673,6.667 5.987 C 6.667 6.086,6.554 6.167,6.417 6.167 C 6.279 6.167,6.167 6.279,6.167 6.417 C 6.167 6.554,6.086 6.667,5.987 6.667 C 5.673 6.667,4.833 7.628,4.833 7.987 C 4.833 8.184,4.725 8.333,4.583 8.333 C 4.446 8.333,4.333 8.446,4.333 8.583 C 4.333 8.721,4.221 8.833,4.083 8.833 C 3.919 8.833,3.833 8.998,3.833 9.316 C 3.833 9.590,3.726 9.839,3.583 9.894 C 3.446 9.946,3.333 10.142,3.333 10.328 C 3.333 10.514,3.258 10.667,3.167 10.667 C 3.075 10.667,3.000 10.967,3.000 11.333 C 3.000 11.815,2.931 12.000,2.750 12.000 C 2.569 12.000,2.500 12.185,2.500 12.667 C 2.500 13.148,2.431 13.333,2.250 13.333 C 2.052 13.333,2.000 13.574,2.000 14.500 C 2.000 15.167,1.929 15.667,1.833 15.667 C 1.734 15.667,1.667 16.306,1.667 17.250 C 1.667 18.546,1.621 18.833,1.417 18.833 C 1.208 18.833,1.167 19.176,1.167 20.917 C 1.167 22.657,1.126 23.000,0.917 23.000 C 0.703 23.000,0.667 23.481,0.667 26.325 C 0.667 29.166,0.629 29.671,0.406 29.796 C 0.009 30.018,0.007 50.804,0.405 51.095 C 0.627 51.258,0.667 51.777,0.667 54.560 C 0.667 57.359,0.703 57.833,0.917 57.833 C 1.126 57.833,1.167 58.176,1.167 59.917 C 1.167 61.657,1.208 62.000,1.417 62.000 C 1.621 62.000,1.667 62.287,1.667 63.583 C 1.667 64.528,1.734 65.167,1.833 65.167 C 1.929 65.167,2.000 65.667,2.000 66.333 C 2.000 67.259,2.052 67.500,2.250 67.500 C 2.442 67.500,2.500 67.713,2.500 68.417 C 2.500 69.120,2.558 69.333,2.750 69.333 C 2.906 69.333,3.000 69.491,3.000 69.750 C 3.000 69.979,3.075 70.167,3.167 70.167 C 3.258 70.167,3.333 70.467,3.333 70.833 C 3.333 71.315,3.403 71.500,3.583 71.500 C 3.721 71.500,3.833 71.612,3.833 71.750 C 3.833 71.887,3.946 72.000,4.083 72.000 C 4.239 72.000,4.333 72.157,4.333 72.417 C 4.333 72.676,4.428 72.833,4.583 72.833 C 4.721 72.833,4.833 72.946,4.833 73.083 C 4.833 73.221,4.908 73.333,5.000 73.333 C 5.092 73.333,5.167 73.521,5.167 73.750 C 5.167 74.009,5.261 74.167,5.417 74.167 C 5.554 74.167,5.667 74.279,5.667 74.417 C 5.667 74.554,5.779 74.667,5.917 74.667 C 6.054 74.667,6.167 74.779,6.167 74.917 C 6.167 75.054,6.279 75.167,6.417 75.167 C 6.554 75.167,6.667 75.279,6.667 75.417 C 6.667 75.572,6.824 75.667,7.083 75.667 C 7.313 75.667,7.500 75.742,7.500 75.833 C 7.500 75.925,7.612 76.000,7.750 76.000 C 7.888 76.000,8.000 76.074,8.000 76.165 C 8.000 76.491,8.582 77.000,8.954 77.000 C 9.180 77.000,9.333 77.101,9.333 77.250 C 9.333 77.406,9.491 77.500,9.750 77.500 C 9.979 77.500,10.167 77.575,10.167 77.667 C 10.167 77.758,10.392 77.833,10.667 77.833 C 11.000 77.833,11.167 77.917,11.167 78.083 C 11.167 78.275,11.380 78.333,12.083 78.333 C 12.787 78.333,13.000 78.391,13.000 78.583 C 13.000 78.780,13.231 78.833,14.083 78.833 C 14.694 78.833,15.167 78.906,15.167 79.000 C 15.167 79.101,15.889 79.167,17.000 79.167 C 18.519 79.167,18.833 79.210,18.833 79.417 C 18.833 79.628,19.222 79.667,21.333 79.667 C 23.444 79.667,23.833 79.706,23.833 79.917 C 23.833 80.133,24.454 80.167,28.417 80.167 C 32.204 80.167,33.000 80.207,33.000 80.397 C 33.000 80.673,49.397 80.802,70.509 80.693 C 81.272 80.637,83.333 80.590,83.333 80.397 C 83.333 80.208,84.030 80.167,87.250 80.167 C 90.620 80.167,91.167 80.132,91.167 79.917 C 91.167 79.705,91.583 79.667,93.917 79.667 C 96.250 79.667,96.667 79.629,96.667 79.417 C 96.667 79.210,96.972 79.167,98.417 79.167 C 99.472 79.167,100.167 79.101,100.167 79.000 C 100.167 78.902,100.750 78.833,101.583 78.833 C 102.731 78.833,103.000 78.786,103.000 78.583 C 103.000 78.403,103.185 78.333,103.667 78.333 C 104.148 78.333,104.333 78.264,104.333 78.083 C 104.333 77.928,104.491 77.833,104.750 77.833 C 104.979 77.833,105.167 77.758,105.167 77.667 C 105.167 77.575,105.392 77.500,105.667 77.500 C 106.000 77.500,106.167 77.417,106.167 77.250 C 106.167 77.094,106.324 77.000,106.583 77.000 C 106.843 77.000,107.000 76.906,107.000 76.750 C 107.000 76.612,107.112 76.500,107.250 76.500 C 107.388 76.500,107.500 76.387,107.500 76.250 C 107.500 76.094,107.657 76.000,107.917 76.000 C 108.146 76.000,108.333 75.925,108.333 75.833 C 108.333 75.742,108.446 75.667,108.583 75.667 C 108.721 75.667,108.833 75.554,108.833 75.417 C 108.833 75.279,108.946 75.167,109.083 75.167 C 109.221 75.167,109.333 75.054,109.333 74.917 C 109.333 74.779,109.446 74.667,109.583 74.667 C 109.721 74.667,109.833 74.586,109.833 74.488 C 109.833 74.257,110.257 73.833,110.488 73.833 C 110.586 73.833,110.667 73.608,110.667 73.333 C 110.667 73.058,110.741 72.833,110.831 72.833 C 111.157 72.833,111.667 72.252,111.667 71.880 C 111.667 71.671,111.742 71.500,111.833 71.500 C 111.925 71.500,112.000 71.313,112.000 71.083 C 112.000 70.824,112.094 70.667,112.250 70.667 C 112.417 70.667,112.500 70.500,112.500 70.167 C 112.500 69.833,112.583 69.667,112.750 69.667 C 112.942 69.667,113.000 69.454,113.000 68.750 C 113.000 68.246,113.075 67.833,113.167 67.833 C 113.258 67.833,113.333 67.421,113.333 66.917 C 113.333 66.213,113.391 66.000,113.583 66.000 C 113.785 66.000,113.833 65.741,113.833 64.667 C 113.833 63.593,113.882 63.333,114.083 63.333 C 114.292 63.333,114.333 63.002,114.333 61.351 C 114.333 59.743,114.381 59.351,114.583 59.273 C 114.791 59.193,114.833 58.727,114.833 56.505 C 114.833 54.835,114.896 53.833,115.000 53.833 C 115.108 53.833,115.167 51.889,115.167 48.333 C 115.167 43.556,115.199 42.833,115.417 42.833 C 115.628 42.833,115.667 42.426,115.667 40.167 C 115.667 37.907,115.628 37.500,115.417 37.500 C 115.200 37.500,115.167 36.806,115.167 32.250 C 115.167 28.861,115.108 27.000,115.000 27.000 C 114.896 27.000,114.833 25.998,114.833 24.328 C 114.833 22.107,114.791 21.640,114.583 21.560 C 114.383 21.484,114.333 21.118,114.333 19.732 C 114.333 18.304,114.290 18.000,114.083 18.000 C 113.881 18.000,113.833 17.731,113.833 16.583 C 113.833 15.435,113.786 15.167,113.583 15.167 C 113.387 15.167,113.333 14.935,113.333 14.083 C 113.333 13.472,113.261 13.000,113.167 13.000 C 113.075 13.000,113.000 12.698,113.000 12.328 C 113.000 11.885,112.915 11.624,112.750 11.560 C 112.587 11.498,112.500 11.238,112.500 10.816 C 112.500 10.350,112.429 10.167,112.250 10.167 C 112.094 10.167,112.000 10.009,112.000 9.750 C 112.000 9.521,111.925 9.333,111.833 9.333 C 111.742 9.333,111.667 9.221,111.667 9.083 C 111.667 8.946,111.554 8.833,111.417 8.833 C 111.261 8.833,111.167 8.676,111.167 8.417 C 111.167 8.157,111.072 8.000,110.917 8.000 C 110.779 8.000,110.667 7.888,110.667 7.750 C 110.667 7.612,110.554 7.500,110.417 7.500 C 110.279 7.500,110.167 7.388,110.167 7.250 C 110.167 7.112,110.092 7.000,110.000 7.000 C 109.908 7.000,109.833 6.813,109.833 6.583 C 109.833 6.324,109.739 6.167,109.583 6.167 C 109.446 6.167,109.333 6.054,109.333 5.917 C 109.333 5.750,109.167 5.667,108.833 5.667 C 108.558 5.667,108.333 5.586,108.333 5.488 C 108.333 5.257,107.909 4.833,107.679 4.833 C 107.580 4.833,107.500 4.721,107.500 4.583 C 107.500 4.431,107.345 4.333,107.101 4.333 C 106.882 4.333,106.659 4.221,106.606 4.083 C 106.554 3.946,106.329 3.833,106.106 3.833 C 105.884 3.833,105.659 3.721,105.606 3.583 C 105.554 3.446,105.358 3.333,105.172 3.333 C 104.986 3.333,104.833 3.258,104.833 3.167 C 104.833 3.075,104.608 3.000,104.333 3.000 C 104.000 3.000,103.833 2.917,103.833 2.750 C 103.833 2.558,103.620 2.500,102.917 2.500 C 102.213 2.500,102.000 2.442,102.000 2.250 C 102.000 2.049,101.741 2.000,100.667 2.000 C 99.889 2.000,99.333 1.931,99.333 1.833 C 99.333 1.730,98.472 1.667,97.083 1.667 C 95.194 1.667,94.833 1.627,94.833 1.417 C 94.833 1.204,94.389 1.167,91.833 1.167 C 89.278 1.167,88.833 1.130,88.833 0.917 C 88.833 0.699,88.053 0.667,82.810 0.667 C 77.761 0.667,76.757 0.628,76.602 0.426 C 76.394 0.157,65.449 0.043,47.703 0.126 M47.167 23.500 C 47.400 23.805,47.703 24.000,47.942 24.000 C 48.157 24.000,48.333 24.075,48.333 24.167 C 48.333 24.258,48.474 24.333,48.646 24.333 C 48.818 24.333,49.053 24.446,49.167 24.583 C 49.281 24.721,49.496 24.835,49.645 24.836 C 49.795 24.838,50.093 25.025,50.309 25.253 C 50.525 25.480,50.846 25.667,51.023 25.667 C 51.199 25.667,51.387 25.779,51.440 25.917 C 51.492 26.054,51.665 26.167,51.823 26.167 C 51.982 26.167,52.330 26.390,52.597 26.662 C 52.865 26.934,53.252 27.159,53.458 27.162 C 53.665 27.165,53.833 27.242,53.833 27.333 C 53.833 27.425,53.986 27.500,54.172 27.500 C 54.358 27.500,54.554 27.613,54.606 27.750 C 54.659 27.887,54.871 28.000,55.076 28.000 C 55.295 28.000,55.609 28.207,55.833 28.500 C 56.067 28.805,56.369 29.000,56.608 29.000 C 56.824 29.000,57.000 29.075,57.000 29.167 C 57.000 29.258,57.152 29.333,57.339 29.333 C 57.525 29.333,57.720 29.446,57.773 29.583 C 57.826 29.721,58.032 29.833,58.231 29.833 C 58.430 29.833,58.725 29.989,58.888 30.178 C 59.050 30.368,59.404 30.600,59.675 30.695 C 59.945 30.789,60.167 30.934,60.167 31.016 C 60.167 31.099,60.354 31.167,60.583 31.167 C 60.843 31.167,61.000 31.261,61.000 31.417 C 61.000 31.564,61.154 31.668,61.375 31.670 C 61.581 31.671,61.927 31.859,62.142 32.086 C 62.358 32.314,62.679 32.500,62.856 32.500 C 63.033 32.500,63.220 32.612,63.273 32.750 C 63.326 32.887,63.530 33.003,63.726 33.007 C 63.923 33.011,64.267 33.236,64.492 33.507 C 64.717 33.778,65.031 34.000,65.191 34.000 C 65.350 34.000,65.527 34.075,65.583 34.167 C 65.640 34.258,65.834 34.333,66.015 34.333 C 66.196 34.333,66.387 34.446,66.440 34.583 C 66.492 34.721,66.681 34.833,66.859 34.833 C 67.037 34.833,67.348 35.009,67.550 35.224 C 67.751 35.439,68.123 35.665,68.375 35.727 C 68.627 35.789,68.833 35.913,68.833 36.003 C 68.833 36.093,68.986 36.167,69.172 36.167 C 69.358 36.167,69.554 36.279,69.606 36.417 C 69.659 36.554,69.871 36.667,70.078 36.667 C 70.284 36.667,70.594 36.854,70.766 37.083 C 70.941 37.316,71.248 37.500,71.461 37.500 C 71.672 37.500,71.887 37.612,71.940 37.750 C 71.992 37.887,72.207 38.000,72.417 38.000 C 72.626 38.000,72.841 38.112,72.894 38.250 C 72.946 38.387,73.129 38.500,73.299 38.500 C 73.469 38.500,73.785 38.688,74.000 38.917 C 74.215 39.146,74.531 39.333,74.701 39.333 C 74.871 39.333,75.054 39.446,75.106 39.583 C 75.159 39.721,75.382 39.833,75.601 39.833 C 75.933 39.833,76.000 39.917,76.000 40.331 C 76.000 40.941,75.552 41.500,75.064 41.500 C 74.865 41.500,74.659 41.612,74.606 41.750 C 74.554 41.887,74.358 42.000,74.172 42.000 C 73.986 42.000,73.833 42.075,73.833 42.167 C 73.833 42.258,73.729 42.333,73.601 42.333 C 73.473 42.333,73.326 42.446,73.273 42.583 C 73.220 42.721,73.022 42.833,72.833 42.833 C 72.644 42.833,72.446 42.946,72.394 43.083 C 72.341 43.221,72.126 43.333,71.917 43.333 C 71.707 43.333,71.492 43.446,71.440 43.583 C 71.387 43.721,71.199 43.833,71.023 43.833 C 70.846 43.833,70.525 44.020,70.309 44.247 C 70.093 44.475,69.795 44.662,69.645 44.664 C 69.496 44.665,69.281 44.779,69.167 44.917 C 69.053 45.054,68.818 45.167,68.646 45.167 C 68.474 45.167,68.333 45.242,68.333 45.333 C 68.333 45.425,68.165 45.503,67.958 45.507 C 67.752 45.511,67.399 45.736,67.174 46.007 C 66.949 46.279,66.602 46.500,66.401 46.500 C 66.200 46.500,65.992 46.612,65.940 46.750 C 65.887 46.887,65.691 47.000,65.505 47.000 C 65.319 47.000,65.167 47.075,65.167 47.167 C 65.167 47.258,64.990 47.333,64.775 47.333 C 64.536 47.333,64.234 47.528,64.000 47.833 C 63.775 48.126,63.462 48.333,63.243 48.333 C 63.037 48.333,62.826 48.446,62.773 48.583 C 62.720 48.721,62.544 48.836,62.380 48.839 C 62.016 48.845,61.500 49.219,61.500 49.477 C 61.500 49.581,61.321 49.667,61.101 49.667 C 60.882 49.667,60.659 49.779,60.606 49.917 C 60.554 50.054,60.321 50.167,60.089 50.167 C 59.857 50.167,59.667 50.242,59.667 50.333 C 59.667 50.425,59.498 50.503,59.292 50.507 C 59.085 50.511,58.733 50.736,58.508 51.007 C 58.283 51.278,57.973 51.500,57.820 51.500 C 57.666 51.500,57.447 51.612,57.333 51.750 C 57.219 51.887,56.985 52.000,56.813 52.000 C 56.641 52.000,56.500 52.075,56.500 52.167 C 56.500 52.258,56.331 52.337,56.125 52.340 C 55.919 52.344,55.566 52.569,55.341 52.840 C 55.116 53.112,54.807 53.333,54.653 53.333 C 54.500 53.333,54.281 53.446,54.167 53.583 C 54.053 53.721,53.818 53.833,53.646 53.833 C 53.474 53.833,53.333 53.908,53.333 54.000 C 53.333 54.092,53.157 54.167,52.942 54.167 C 52.703 54.167,52.400 54.362,52.167 54.667 C 51.933 54.972,51.631 55.167,51.392 55.167 C 51.176 55.167,51.000 55.242,51.000 55.333 C 51.000 55.425,50.831 55.503,50.625 55.507 C 50.419 55.511,50.066 55.736,49.841 56.007 C 49.616 56.278,49.330 56.500,49.204 56.500 C 49.079 56.500,48.864 56.612,48.726 56.750 C 48.589 56.887,48.332 57.000,48.155 57.000 C 47.978 57.000,47.833 57.075,47.833 57.167 C 47.833 57.258,47.654 57.333,47.434 57.333 C 47.215 57.333,46.992 57.446,46.940 57.583 C 46.814 57.912,46.396 57.904,46.268 57.570 C 46.136 57.225,46.136 23.608,46.268 23.264 C 46.422 22.862,46.743 22.947,47.167 23.500 " stroke="none" fill="#1c74ec" fill-rule="evenodd"></path><path id="path2" d="" stroke="none" fill="#c8100f4" fill-rule="evenodd"></path><path id="path3" d="M46.447 23.108 C 46.275 23.280,46.309 57.632,46.481 57.738 C 46.562 57.789,46.722 57.718,46.835 57.581 C 46.948 57.445,47.172 57.333,47.333 57.333 C 47.494 57.333,47.719 57.221,47.833 57.083 C 47.947 56.946,48.133 56.833,48.245 56.833 C 48.592 56.833,49.553 56.293,49.930 55.887 C 50.127 55.674,50.402 55.500,50.540 55.500 C 50.679 55.500,50.892 55.369,51.013 55.208 C 51.201 54.960,51.199 54.948,51.000 55.125 C 50.872 55.240,50.646 55.333,50.498 55.333 C 50.350 55.333,50.013 55.558,49.750 55.833 C 49.487 56.108,49.198 56.333,49.108 56.333 C 48.821 56.333,47.667 56.893,47.667 57.032 C 47.667 57.106,47.541 57.167,47.388 57.167 C 47.235 57.167,46.972 57.291,46.805 57.442 C 46.510 57.710,46.500 57.167,46.500 40.405 L 46.500 23.092 46.991 23.630 C 47.260 23.925,47.629 24.167,47.810 24.167 C 47.991 24.167,48.177 24.244,48.224 24.337 C 48.270 24.431,48.289 24.413,48.265 24.296 C 48.242 24.179,48.079 24.057,47.903 24.026 C 47.727 23.994,47.353 23.749,47.072 23.481 C 46.791 23.213,46.510 23.045,46.447 23.108 M49.000 24.750 C 49.114 24.887,49.334 25.000,49.489 25.000 C 49.644 25.000,49.987 25.225,50.250 25.500 C 50.513 25.775,50.865 26.000,51.031 26.000 C 51.197 26.000,51.333 26.075,51.333 26.167 C 51.333 26.258,51.418 26.333,51.520 26.333 C 51.650 26.333,51.643 26.256,51.500 26.083 C 51.386 25.946,51.170 25.831,51.021 25.829 C 50.872 25.826,50.531 25.601,50.264 25.329 C 49.997 25.056,49.640 24.833,49.472 24.833 C 49.304 24.833,49.167 24.758,49.167 24.667 C 49.167 24.575,49.082 24.500,48.980 24.500 C 48.850 24.500,48.857 24.577,49.000 24.750 M52.431 26.829 C 52.698 27.101,53.039 27.326,53.188 27.329 C 53.337 27.331,53.553 27.446,53.667 27.583 C 53.781 27.721,54.011 27.833,54.177 27.833 C 54.344 27.833,54.527 27.908,54.583 28.000 C 54.640 28.092,54.821 28.167,54.985 28.167 C 55.149 28.167,55.456 28.392,55.667 28.667 C 55.893 28.963,56.204 29.167,56.428 29.167 C 56.636 29.167,56.844 29.244,56.890 29.337 C 56.937 29.431,56.956 29.413,56.933 29.296 C 56.910 29.179,56.717 29.058,56.506 29.027 C 56.294 28.996,55.937 28.752,55.712 28.485 C 55.487 28.218,55.165 28.000,54.995 28.000 C 54.825 28.000,54.640 27.925,54.583 27.833 C 54.527 27.742,54.332 27.667,54.152 27.667 C 53.971 27.667,53.780 27.554,53.727 27.417 C 53.674 27.279,53.485 27.167,53.308 27.167 C 53.130 27.167,52.810 26.979,52.598 26.750 C 52.386 26.521,52.152 26.333,52.078 26.333 C 52.005 26.333,52.163 26.556,52.431 26.829 M57.667 29.750 C 57.781 29.887,58.001 30.000,58.156 30.000 C 58.311 30.000,58.653 30.225,58.917 30.500 C 59.180 30.775,59.532 31.000,59.698 31.000 C 59.864 31.000,60.000 31.075,60.000 31.167 C 60.000 31.258,60.141 31.333,60.313 31.333 C 60.485 31.333,60.719 31.446,60.833 31.583 C 60.947 31.721,61.168 31.833,61.323 31.833 C 61.478 31.833,61.820 32.058,62.083 32.333 C 62.347 32.608,62.698 32.833,62.865 32.833 C 63.031 32.833,63.167 32.908,63.167 33.000 C 63.167 33.092,63.335 33.170,63.542 33.174 C 63.748 33.178,64.101 33.403,64.326 33.674 C 64.550 33.945,64.854 34.167,65.001 34.167 C 65.147 34.167,65.361 34.260,65.477 34.375 C 65.645 34.542,65.664 34.526,65.575 34.292 C 65.514 34.131,65.304 33.997,65.107 33.993 C 64.911 33.989,64.566 33.764,64.341 33.493 C 64.116 33.222,63.802 33.000,63.643 33.000 C 63.483 33.000,63.307 32.925,63.250 32.833 C 63.193 32.742,63.020 32.665,62.865 32.662 C 62.710 32.659,62.365 32.434,62.097 32.162 C 61.830 31.890,61.482 31.667,61.323 31.667 C 61.165 31.667,60.992 31.554,60.940 31.417 C 60.887 31.279,60.696 31.167,60.515 31.167 C 60.334 31.167,60.140 31.092,60.083 31.000 C 60.027 30.908,59.849 30.833,59.688 30.833 C 59.527 30.833,59.180 30.608,58.917 30.333 C 58.653 30.058,58.302 29.833,58.135 29.833 C 57.969 29.833,57.833 29.758,57.833 29.667 C 57.833 29.575,57.749 29.500,57.646 29.500 C 57.517 29.500,57.523 29.577,57.667 29.750 M66.333 34.750 C 66.447 34.887,66.648 35.000,66.778 35.000 C 66.909 35.000,67.181 35.175,67.383 35.388 C 67.767 35.795,68.739 36.333,69.089 36.333 C 69.201 36.333,69.386 36.446,69.500 36.583 C 69.614 36.721,69.825 36.833,69.970 36.833 C 70.114 36.833,70.461 37.040,70.741 37.292 L 71.250 37.750 70.760 37.208 C 70.491 36.910,70.135 36.667,69.969 36.667 C 69.803 36.667,69.667 36.606,69.667 36.532 C 69.667 36.392,68.512 35.833,68.222 35.833 C 68.130 35.833,67.837 35.610,67.569 35.338 C 67.302 35.066,66.952 34.841,66.792 34.838 C 66.631 34.835,66.500 34.758,66.500 34.667 C 66.500 34.575,66.416 34.500,66.313 34.500 C 66.184 34.500,66.190 34.577,66.333 34.750 M71.758 37.875 C 71.819 38.035,72.040 38.167,72.250 38.167 C 72.460 38.167,72.674 38.279,72.727 38.417 C 72.780 38.554,72.952 38.667,73.111 38.667 C 73.269 38.667,73.609 38.868,73.866 39.115 C 74.442 39.666,74.483 39.544,73.925 38.941 C 73.700 38.698,73.370 38.500,73.192 38.500 C 73.015 38.500,72.826 38.387,72.773 38.250 C 72.720 38.112,72.540 38.000,72.372 38.000 C 72.204 38.000,71.972 37.906,71.857 37.792 C 71.689 37.625,71.669 37.641,71.758 37.875 M74.979 39.723 C 75.105 39.875,75.348 40.000,75.520 40.000 C 75.722 40.000,75.833 40.118,75.833 40.331 C 75.833 40.754,75.342 41.333,74.983 41.333 C 74.832 41.333,74.614 41.446,74.500 41.583 C 74.357 41.756,74.350 41.833,74.480 41.833 C 74.582 41.833,74.667 41.758,74.667 41.667 C 74.667 41.575,74.804 41.500,74.971 41.500 C 75.710 41.500,76.355 40.099,75.708 39.899 C 75.548 39.850,75.267 39.727,75.083 39.628 C 74.785 39.465,74.774 39.475,74.979 39.723 M73.333 42.251 C 73.118 42.479,72.803 42.667,72.632 42.667 C 72.462 42.667,72.280 42.779,72.227 42.917 C 72.174 43.054,71.993 43.167,71.825 43.167 C 71.657 43.167,71.473 43.242,71.417 43.333 C 71.360 43.425,71.182 43.500,71.021 43.500 C 70.861 43.500,70.513 43.725,70.250 44.000 C 69.987 44.275,69.644 44.500,69.489 44.500 C 69.334 44.500,69.114 44.612,69.000 44.750 C 68.857 44.923,68.850 45.000,68.980 45.000 C 69.082 45.000,69.167 44.925,69.167 44.833 C 69.167 44.742,69.316 44.667,69.499 44.667 C 69.681 44.667,70.045 44.442,70.308 44.167 C 70.571 43.892,70.905 43.667,71.050 43.667 C 71.195 43.667,71.360 43.592,71.417 43.500 C 71.473 43.408,71.668 43.333,71.848 43.333 C 72.029 43.333,72.220 43.221,72.273 43.083 C 72.326 42.946,72.530 42.832,72.726 42.830 C 73.071 42.828,73.958 42.070,73.801 41.912 C 73.758 41.869,73.548 42.022,73.333 42.251 M68.167 45.139 C 68.167 45.246,68.012 45.333,67.823 45.333 C 67.633 45.333,67.289 45.558,67.058 45.833 C 66.826 46.108,66.498 46.333,66.328 46.333 C 66.159 46.333,65.973 46.408,65.917 46.500 C 65.860 46.592,65.666 46.667,65.485 46.667 C 65.304 46.667,65.113 46.779,65.060 46.917 C 65.008 47.054,64.804 47.170,64.607 47.174 C 64.411 47.178,64.066 47.403,63.841 47.674 C 63.616 47.945,63.302 48.167,63.143 48.167 C 62.983 48.167,62.807 48.242,62.750 48.333 C 62.693 48.425,62.515 48.500,62.355 48.500 C 62.194 48.500,61.851 48.721,61.592 48.991 C 61.333 49.262,60.962 49.514,60.769 49.552 C 60.478 49.609,60.492 49.625,60.850 49.644 C 61.152 49.660,61.400 49.514,61.667 49.167 C 61.900 48.862,62.203 48.667,62.442 48.667 C 62.657 48.667,62.833 48.592,62.833 48.500 C 62.833 48.408,62.969 48.333,63.135 48.333 C 63.302 48.333,63.653 48.108,63.917 47.833 C 64.180 47.558,64.534 47.333,64.703 47.333 C 64.872 47.333,65.054 47.221,65.106 47.083 C 65.159 46.946,65.382 46.833,65.601 46.833 C 65.821 46.833,66.000 46.758,66.000 46.667 C 66.000 46.575,66.136 46.500,66.302 46.500 C 66.468 46.500,66.820 46.275,67.083 46.000 C 67.347 45.725,67.694 45.500,67.855 45.500 C 68.168 45.500,68.431 45.209,68.267 45.044 C 68.212 44.989,68.167 45.032,68.167 45.139 M59.500 50.167 C 59.500 50.258,59.364 50.333,59.198 50.333 C 59.032 50.333,58.680 50.558,58.417 50.833 C 58.153 51.108,57.806 51.333,57.645 51.333 C 57.485 51.333,57.307 51.408,57.250 51.500 C 57.193 51.592,56.999 51.667,56.818 51.667 C 56.637 51.667,56.446 51.779,56.394 51.917 C 56.341 52.054,56.170 52.167,56.013 52.167 C 55.857 52.167,55.509 52.410,55.240 52.708 L 54.750 53.250 55.259 52.792 C 55.539 52.540,55.898 52.333,56.056 52.333 C 56.214 52.333,56.387 52.221,56.440 52.083 C 56.492 51.946,56.715 51.833,56.934 51.833 C 57.154 51.833,57.333 51.758,57.333 51.667 C 57.333 51.575,57.471 51.500,57.639 51.500 C 57.807 51.500,58.163 51.277,58.431 51.005 C 58.698 50.732,59.039 50.507,59.188 50.505 C 59.337 50.502,59.553 50.387,59.667 50.250 C 59.810 50.077,59.816 50.000,59.687 50.000 C 59.584 50.000,59.500 50.075,59.500 50.167 M54.083 53.333 C 54.027 53.425,53.832 53.500,53.652 53.500 C 53.471 53.500,53.280 53.612,53.227 53.750 C 53.174 53.887,52.968 54.000,52.769 54.000 C 52.423 54.000,52.042 54.320,51.768 54.841 C 51.697 54.974,51.830 54.877,52.062 54.625 C 52.294 54.373,52.640 54.167,52.831 54.167 C 53.021 54.167,53.220 54.054,53.273 53.917 C 53.326 53.779,53.540 53.667,53.750 53.667 C 53.960 53.667,54.174 53.554,54.227 53.417 C 54.335 53.135,54.240 53.079,54.083 53.333 " stroke="none" fill="#54bcf4" fill-rule="evenodd"></path><path id="path4" d="M46.247 40.417 C 46.247 49.858,46.267 53.696,46.292 48.946 C 46.316 44.195,46.316 36.470,46.292 31.779 C 46.267 27.088,46.247 30.975,46.247 40.417 M50.586 25.671 C 50.628 25.738,50.848 25.829,51.076 25.873 C 51.304 25.916,51.456 25.897,51.414 25.829 C 51.372 25.762,51.152 25.671,50.924 25.627 C 50.696 25.584,50.544 25.603,50.586 25.671 M53.732 27.362 C 53.754 27.474,53.974 27.619,54.220 27.685 C 54.481 27.755,54.629 27.741,54.575 27.653 C 54.523 27.569,54.341 27.500,54.171 27.500 C 54.000 27.500,53.823 27.423,53.776 27.329 C 53.730 27.235,53.710 27.250,53.732 27.362 M62.419 32.504 C 62.461 32.572,62.681 32.662,62.909 32.706 C 63.137 32.750,63.289 32.730,63.247 32.662 C 63.206 32.595,62.985 32.504,62.758 32.461 C 62.530 32.417,62.378 32.437,62.419 32.504 M74.253 39.338 C 74.294 39.405,74.515 39.496,74.742 39.539 C 74.970 39.583,75.122 39.563,75.081 39.496 C 75.039 39.428,74.819 39.338,74.591 39.294 C 74.363 39.250,74.211 39.270,74.253 39.338 M71.083 43.619 C 70.573 43.742,70.416 43.970,70.906 43.876 C 71.144 43.831,71.379 43.727,71.429 43.647 C 71.479 43.566,71.496 43.509,71.468 43.519 C 71.440 43.530,71.267 43.575,71.083 43.619 M60.500 49.806 C 60.500 49.913,60.331 50.009,60.125 50.019 C 59.816 50.035,59.805 50.053,60.059 50.118 C 60.392 50.204,60.802 49.913,60.614 49.725 C 60.551 49.662,60.500 49.699,60.500 49.806 M54.750 53.119 C 54.240 53.242,54.083 53.470,54.573 53.376 C 54.811 53.331,55.046 53.227,55.096 53.147 C 55.146 53.066,55.163 53.009,55.135 53.019 C 55.107 53.030,54.933 53.075,54.750 53.119 " stroke="none" fill="#5874f4" fill-rule="evenodd"></path></g></svg>