<?xml version="1.0" encoding="UTF-8"?>
<!DOCTYPE svg PUBLIC "-//W3C//DTD SVG 1.1//EN" "http://www.w3.org/Graphics/SVG/1.1/DTD/svg11.dtd">
<svg xmlns="http://www.w3.org/2000/svg" version="1.1" width="754px" height="134px" style="shape-rendering:geometricPrecision; text-rendering:geometricPrecision; image-rendering:optimizeQuality; fill-rule:evenodd; clip-rule:evenodd" xmlns:xlink="http://www.w3.org/1999/xlink">
<g><path style="opacity:0.972" fill="#1a73e8" d="M 44.5,-0.5 C 78.5,-0.5 112.5,-0.5 146.5,-0.5C 155.427,0.579991 164.427,2.07999 173.5,4C 176.418,5.70876 179.252,7.54209 182,9.5C 183.634,12.48 185.3,15.48 187,18.5C 192.985,50.8252 192.985,83.1585 187,115.5C 184.5,122 180,126.5 173.5,129C 165.782,130.949 158.116,132.449 150.5,133.5C 113.167,133.5 75.8333,133.5 38.5,133.5C 31.2387,132.34 23.9054,130.84 16.5,129C 14.404,127.234 12.0707,125.901 9.5,125C 8.18107,122.715 6.68107,120.548 5,118.5C 2.69968,110.806 0.866349,103.14 -0.5,95.5C -0.5,76.1667 -0.5,56.8333 -0.5,37.5C 0.784944,30.9252 2.28494,24.2585 4,17.5C 6.46017,11.4078 10.6268,6.90782 16.5,4C 25.9114,2.06283 35.2447,0.56283 44.5,-0.5 Z"/></g>
<g><path style="opacity:0.917" fill="#fefffe" d="M 207.5,17.5 C 213.346,16.1834 219.346,16.1834 225.5,17.5C 234,31.1667 242.5,44.8333 251,58.5C 259.167,44.8333 267.333,31.1667 275.5,17.5C 281.472,16.3364 287.472,16.1697 293.5,17C 281.624,35.2482 270.124,53.7482 259,72.5C 258.5,89.1633 258.333,105.83 258.5,122.5C 253.5,122.5 248.5,122.5 243.5,122.5C 243.667,105.83 243.5,89.1633 243,72.5C 231.304,53.9919 219.47,35.6586 207.5,17.5 Z"/></g>
<g><path style="opacity:0.978" fill="#fefffe" d="M 444.5,16.5 C 469.167,16.5 493.833,16.5 518.5,16.5C 518.5,20.8333 518.5,25.1667 518.5,29.5C 508.5,29.5 498.5,29.5 488.5,29.5C 488.5,60.5 488.5,91.5 488.5,122.5C 483.833,122.5 479.167,122.5 474.5,122.5C 474.5,91.5 474.5,60.5 474.5,29.5C 464.5,29.5 454.5,29.5 444.5,29.5C 444.5,25.1667 444.5,20.8333 444.5,16.5 Z"/></g>
<g><path style="opacity:0.936" fill="#fefffe" d="M 600.5,16.5 C 605.167,16.5 609.833,16.5 614.5,16.5C 614.333,30.504 614.5,44.504 615,58.5C 623.536,48.4335 634.369,44.9335 647.5,48C 664.569,54.7629 673.569,67.4295 674.5,86C 673.906,100.859 667.573,112.526 655.5,121C 642.583,126.477 630.25,125.477 618.5,118C 616.951,116.786 615.785,115.286 615,113.5C 614.502,116.482 614.335,119.482 614.5,122.5C 609.833,122.5 605.167,122.5 600.5,122.5C 600.5,87.1667 600.5,51.8333 600.5,16.5 Z M 630.5,60.5 C 648.707,59.2038 658.374,67.7038 659.5,86C 657.5,107.658 646.166,115.324 625.5,109C 613.459,97.5446 611.292,84.3779 619,69.5C 622.183,65.4622 626.016,62.4622 630.5,60.5 Z"/></g>
<g><path style="opacity:0.031" fill="#fefffe" d="M 244.5,23.5 C 245.573,24.2506 245.74,25.2506 245,26.5C 244.517,25.552 244.351,24.552 244.5,23.5 Z"/></g>
<g><path style="opacity:1" fill="#fafafe" d="M 75.5,37.5 C 77.2624,37.3573 78.9291,37.6906 80.5,38.5C 95.8333,47.8333 111.167,57.1667 126.5,66.5C 118.409,72.5011 109.742,77.6678 100.5,82C 92.9948,88.0851 84.6615,92.5851 75.5,95.5C 75.5,76.1667 75.5,56.8333 75.5,37.5 Z"/></g>
<g><path style="opacity:0.024" fill="#fefffe" d="M 304.5,45.5 C 305.833,46.1667 305.833,46.1667 304.5,45.5 Z"/></g>
<g><path style="opacity:0.92" fill="#fefffe" d="M 311.5,47.5 C 344.831,45.4818 360.331,61.1485 358,94.5C 351.466,118.036 335.966,127.869 311.5,124C 296.564,120.064 287.398,110.564 284,95.5C 280.669,70.2831 289.836,54.2831 311.5,47.5 Z M 314.5,60.5 C 332.571,59.399 342.571,67.899 344.5,86C 341.756,107.427 330.09,115.094 309.5,109C 298.387,99.8006 295.22,88.3006 300,74.5C 302.871,67.6746 307.704,63.0079 314.5,60.5 Z"/></g>
<g><path style="opacity:0.933" fill="#fefffe" d="M 753.5,81.5 C 753.5,83.8333 753.5,86.1667 753.5,88.5C 734.5,88.5 715.5,88.5 696.5,88.5C 698.227,106.046 707.894,113.546 725.5,111C 731.257,108.233 736.091,104.4 740,99.5C 744.251,101.039 748.085,103.206 751.5,106C 746.388,115.77 738.388,121.77 727.5,124C 698.837,127.33 683.504,114.663 681.5,86C 684.009,55.5013 700.342,43.168 730.5,49C 744.927,55.0123 752.594,65.8456 753.5,81.5 Z M 711.5,60.5 C 720.36,58.7422 727.86,61.0756 734,67.5C 736.035,70.5612 737.201,73.8945 737.5,77.5C 724.167,77.5 710.833,77.5 697.5,77.5C 699.294,69.3803 703.961,63.7136 711.5,60.5 Z"/></g>
<g><path style="opacity:0.935" fill="#fefffe" d="M 368.5,49.5 C 373.5,49.5 378.5,49.5 383.5,49.5C 383.333,66.5033 383.5,83.5033 384,100.5C 386.403,108.372 391.737,112.039 400,111.5C 409.028,111.485 415.028,107.152 418,98.5C 419.423,82.2153 419.923,65.882 419.5,49.5C 424.167,49.5 428.833,49.5 433.5,49.5C 433.5,73.8333 433.5,98.1667 433.5,122.5C 428.833,122.5 424.167,122.5 419.5,122.5C 419.664,119.813 419.497,117.146 419,114.5C 409.378,124.457 397.878,127.29 384.5,123C 375.05,118.535 369.883,111.035 369,100.5C 368.5,83.5033 368.333,66.5033 368.5,49.5 Z"/></g>
<g><path style="opacity:0.935" fill="#fefffe" d="M 519.5,49.5 C 524.5,49.5 529.5,49.5 534.5,49.5C 534.333,66.5033 534.5,83.5033 535,100.5C 537.403,108.372 542.737,112.039 551,111.5C 560.028,111.485 566.028,107.152 569,98.5C 570.423,82.2153 570.923,65.882 570.5,49.5C 575.167,49.5 579.833,49.5 584.5,49.5C 584.5,73.8333 584.5,98.1667 584.5,122.5C 579.833,122.5 575.167,122.5 570.5,122.5C 570.664,119.813 570.497,117.146 570,114.5C 560.378,124.457 548.878,127.29 535.5,123C 526.05,118.535 520.883,111.035 520,100.5C 519.5,83.5033 519.333,66.5033 519.5,49.5 Z"/></g>
<g><path style="opacity:0.116" fill="#fefffe" d="M 314.5,89.5 C 315.077,88.2267 315.743,88.2267 316.5,89.5C 316.03,90.463 315.363,90.463 314.5,89.5 Z"/></g>
<g><path style="opacity:0.031" fill="#fefffe" d="M 280.5,113.5 C 281.833,114.167 281.833,114.167 280.5,113.5 Z"/></g>
<g><path style="opacity:0.039" fill="#fefffe" d="M 278.5,114.5 C 279.833,115.167 279.833,115.167 278.5,114.5 Z"/></g>
</svg>
