<?xml version="1.0" encoding="UTF-8"?>
<!DOCTYPE svg PUBLIC "-//W3C//DTD SVG 1.1//EN" "http://www.w3.org/Graphics/SVG/1.1/DTD/svg11.dtd">
<svg xmlns="http://www.w3.org/2000/svg" version="1.1" width="310px" height="310px" style="shape-rendering:geometricPrecision; text-rendering:geometricPrecision; image-rendering:optimizeQuality; fill-rule:evenodd; clip-rule:evenodd" xmlns:xlink="http://www.w3.org/1999/xlink">
<g><path style="opacity:1" fill="#1a72e8" d="M 309.5,96.5 C 309.5,132.5 309.5,168.5 309.5,204.5C 307.003,241.163 287.336,260.663 250.5,263C 187.498,264.982 124.498,264.982 61.5,263C 45.7035,261.958 31.3702,256.958 18.5,248C 6.81205,235.431 0.478716,220.598 -0.5,203.5C -0.5,167.167 -0.5,130.833 -0.5,94.5C 0.488775,83.7038 3.98878,73.7038 10,64.5C 16.3078,57.2595 24.1412,52.4262 33.5,50C 41.0717,48.1269 48.7384,46.7936 56.5,46C 121.833,44 187.167,44 252.5,46C 267.464,46.4864 281.131,50.8198 293.5,59C 303.414,69.5819 308.747,82.0819 309.5,96.5 Z"/></g>
<g><path style="opacity:1" fill="#fefffe" d="M 127.5,109.5 C 151.66,120.247 175.327,132.08 198.5,145C 203.977,149.049 204.81,153.882 201,159.5C 178.07,172.049 154.903,184.216 131.5,196C 126.262,197.035 122.429,195.202 120,190.5C 119.333,165.833 119.333,141.167 120,116.5C 121.211,112.666 123.711,110.333 127.5,109.5 Z"/></g>
</svg>
