<svg id="svg" version="1.1" xmlns="http://www.w3.org/2000/svg" xmlns:xlink="http://www.w3.org/1999/xlink" width="400" height="88.4472049689441" viewBox="0, 0, 400,88.4472049689441"><g id="svgg"><path id="path0" d="M16.456 19.792 C 16.501 20.227,16.642 20.749,16.769 20.952 C 16.896 21.155,17.000 21.653,17.000 22.057 C 17.000 22.507,17.097 22.873,17.250 23.000 C 17.401 23.125,17.500 23.490,17.500 23.917 C 17.500 24.344,17.599 24.708,17.750 24.833 C 18.470 25.431,17.442 27.779,16.440 27.826 C 16.361 27.830,15.699 28.396,14.968 29.083 C 14.237 29.771,13.546 30.333,13.432 30.333 C 13.318 30.333,13.043 30.527,12.821 30.763 C 12.086 31.546,12.556 31.667,16.336 31.667 L 19.609 31.667 20.001 32.085 C 20.385 32.493,20.768 33.331,20.953 34.167 C 21.003 34.396,21.126 34.686,21.226 34.811 C 21.451 35.095,21.837 36.102,21.951 36.703 C 21.998 36.952,22.141 37.243,22.268 37.348 C 22.396 37.454,22.500 37.670,22.500 37.828 C 22.500 38.160,23.057 38.721,23.222 38.556 C 23.283 38.495,23.333 38.316,23.333 38.159 C 23.333 38.002,23.446 37.781,23.583 37.667 C 23.721 37.553,23.833 37.215,23.833 36.917 C 23.833 36.618,23.946 36.281,24.083 36.167 C 24.221 36.053,24.333 35.787,24.333 35.576 C 24.333 35.366,24.443 34.981,24.576 34.722 C 24.710 34.462,24.916 33.992,25.034 33.677 C 25.153 33.362,25.406 32.800,25.596 32.427 L 25.943 31.750 28.086 31.703 C 29.354 31.675,30.320 31.580,30.454 31.469 C 30.577 31.367,31.239 31.247,31.923 31.203 C 32.607 31.159,33.167 31.074,33.167 31.013 C 33.167 30.823,31.602 29.408,31.134 29.176 C 30.887 29.054,30.313 28.589,29.858 28.143 C 29.403 27.698,28.967 27.333,28.890 27.333 C 28.032 27.327,27.338 25.240,27.941 24.477 C 28.040 24.352,28.167 23.895,28.223 23.462 C 28.280 23.029,28.399 22.541,28.488 22.379 C 28.577 22.216,28.695 21.729,28.751 21.296 C 28.807 20.862,28.923 20.464,29.010 20.411 C 29.195 20.296,29.225 18.994,29.042 19.012 C 28.973 19.019,28.692 19.169,28.417 19.346 C 28.142 19.523,27.692 19.776,27.417 19.908 C 27.142 20.041,26.699 20.340,26.432 20.575 C 26.166 20.809,25.884 21.000,25.806 21.000 C 25.728 21.000,25.353 21.225,24.974 21.500 C 24.594 21.775,24.223 22.000,24.150 22.000 C 24.077 22.000,23.815 22.188,23.568 22.417 C 22.963 22.977,22.807 22.952,21.500 22.083 C 20.880 21.671,20.301 21.333,20.215 21.333 C 20.129 21.333,19.882 21.146,19.667 20.917 C 19.451 20.688,19.191 20.500,19.088 20.500 C 18.985 20.500,18.387 20.162,17.759 19.750 C 16.350 18.824,16.356 18.824,16.456 19.792 M46.333 43.917 C 46.333 63.195,46.266 62.053,47.333 60.917 C 47.549 60.688,47.891 60.500,48.095 60.500 C 48.298 60.500,48.508 60.387,48.560 60.250 C 48.613 60.112,48.827 59.997,49.036 59.993 C 49.248 59.989,49.598 59.768,49.826 59.493 C 50.051 59.221,50.398 59.000,50.599 59.000 C 50.800 59.000,51.008 58.887,51.060 58.750 C 51.113 58.612,51.338 58.500,51.560 58.500 C 51.783 58.500,52.008 58.387,52.060 58.250 C 52.113 58.112,52.338 58.000,52.560 58.000 C 52.783 58.000,53.008 57.887,53.060 57.750 C 53.113 57.612,53.338 57.500,53.560 57.500 C 53.783 57.500,54.008 57.387,54.060 57.250 C 54.113 57.112,54.327 56.997,54.536 56.993 C 54.748 56.989,55.098 56.768,55.326 56.493 C 55.551 56.221,55.898 56.000,56.099 56.000 C 56.300 56.000,56.508 55.887,56.560 55.750 C 56.613 55.612,56.810 55.500,56.998 55.500 C 57.185 55.500,57.662 55.163,58.058 54.750 C 58.455 54.335,58.930 54.000,59.120 54.000 C 59.310 54.000,59.508 53.887,59.560 53.750 C 59.613 53.612,59.838 53.500,60.060 53.500 C 60.283 53.500,60.508 53.387,60.560 53.250 C 60.613 53.112,60.838 53.000,61.060 53.000 C 61.283 53.000,61.508 52.887,61.560 52.750 C 61.613 52.612,61.838 52.500,62.060 52.500 C 62.283 52.500,62.508 52.387,62.560 52.250 C 62.613 52.112,62.827 51.997,63.036 51.993 C 63.248 51.989,63.598 51.768,63.826 51.493 C 64.051 51.221,64.398 51.000,64.599 51.000 C 64.800 51.000,65.008 50.887,65.060 50.750 C 65.113 50.613,65.338 50.500,65.560 50.500 C 65.783 50.500,66.008 50.387,66.060 50.250 C 66.113 50.112,66.338 50.000,66.560 50.000 C 66.783 50.000,67.008 49.887,67.060 49.750 C 67.113 49.612,67.338 49.500,67.560 49.500 C 67.783 49.500,68.005 49.393,68.055 49.263 C 68.105 49.133,68.317 49.001,68.525 48.971 C 68.768 48.936,68.938 48.768,69.000 48.500 C 69.065 48.219,69.231 48.064,69.507 48.026 C 69.732 47.994,69.977 47.863,70.050 47.734 C 70.123 47.605,70.359 47.500,70.574 47.500 C 70.789 47.500,71.008 47.387,71.060 47.250 C 71.113 47.112,71.338 47.000,71.560 47.000 C 71.783 47.000,72.008 46.887,72.060 46.750 C 72.113 46.612,72.313 46.500,72.506 46.500 C 72.698 46.500,73.044 46.275,73.276 46.000 C 73.507 45.725,73.830 45.500,73.994 45.500 C 74.158 45.500,74.386 45.387,74.500 45.250 C 74.614 45.112,74.834 45.000,74.988 45.000 C 75.142 45.000,75.522 44.737,75.833 44.417 C 76.393 43.839,76.394 43.833,75.991 43.826 C 75.749 43.822,75.418 43.620,75.174 43.326 C 74.950 43.055,74.612 42.830,74.424 42.826 C 74.237 42.822,73.899 42.597,73.674 42.326 C 73.449 42.055,73.102 41.833,72.901 41.833 C 72.700 41.833,72.492 41.721,72.440 41.583 C 72.387 41.446,72.162 41.333,71.940 41.333 C 71.717 41.333,71.492 41.221,71.440 41.083 C 71.387 40.946,71.173 40.830,70.964 40.826 C 70.752 40.822,70.402 40.601,70.174 40.326 C 69.949 40.055,69.602 39.833,69.401 39.833 C 69.200 39.833,68.992 39.721,68.940 39.583 C 68.887 39.446,68.689 39.333,68.500 39.333 C 68.311 39.333,68.113 39.221,68.060 39.083 C 68.008 38.946,67.879 38.830,67.774 38.826 C 67.669 38.822,67.399 38.597,67.174 38.326 C 66.879 37.970,66.619 37.833,66.237 37.833 C 65.946 37.833,65.614 37.721,65.500 37.583 C 65.386 37.446,65.133 37.330,64.938 37.326 C 64.743 37.322,64.399 37.097,64.174 36.826 C 63.939 36.542,63.604 36.333,63.383 36.333 C 63.154 36.333,63.000 36.233,63.000 36.083 C 63.000 35.926,62.841 35.833,62.573 35.833 C 62.302 35.833,61.990 35.650,61.724 35.333 C 61.414 34.964,61.160 34.833,60.756 34.833 C 60.454 34.833,60.114 34.721,60.000 34.583 C 59.886 34.446,59.661 34.333,59.501 34.333 C 59.340 34.333,58.898 33.996,58.518 33.583 C 58.138 33.171,57.676 32.833,57.491 32.833 C 57.307 32.833,57.113 32.721,57.060 32.583 C 57.008 32.446,56.804 32.332,56.607 32.330 C 56.411 32.329,56.073 32.141,55.858 31.914 C 55.642 31.686,55.332 31.500,55.170 31.500 C 55.007 31.500,54.781 31.387,54.667 31.250 C 54.553 31.113,54.328 31.000,54.167 31.000 C 54.006 31.000,53.781 30.887,53.667 30.750 C 53.553 30.613,53.328 30.500,53.167 30.500 C 53.006 30.500,52.787 30.395,52.680 30.266 C 52.574 30.138,52.302 29.986,52.076 29.930 C 51.851 29.873,51.667 29.753,51.667 29.663 C 51.667 29.574,51.493 29.500,51.281 29.500 C 51.069 29.500,50.680 29.275,50.417 29.000 C 50.153 28.725,49.806 28.500,49.645 28.500 C 49.484 28.500,49.246 28.348,49.116 28.163 C 48.977 27.965,48.775 27.866,48.626 27.924 C 48.462 27.986,48.241 27.838,48.008 27.511 C 47.770 27.177,47.501 27.000,47.233 27.000 C 47.008 27.000,46.780 26.887,46.727 26.750 C 46.383 25.854,46.333 28.032,46.333 43.917 " stroke="none" fill="#040404" fill-rule="evenodd"></path><path id="path1" d="M38.292 3.282 C 38.131 3.323,38.000 3.427,38.000 3.512 C 38.000 3.604,35.867 3.667,32.762 3.667 C 28.328 3.667,27.485 3.705,27.274 3.917 C 27.069 4.121,26.450 4.167,23.863 4.167 C 21.207 4.167,20.687 4.207,20.606 4.417 C 20.528 4.621,20.124 4.667,18.417 4.667 C 16.709 4.667,16.305 4.713,16.227 4.917 C 16.152 5.113,15.813 5.167,14.649 5.167 C 13.442 5.167,13.167 5.213,13.167 5.417 C 13.167 5.598,12.981 5.667,12.495 5.667 C 12.051 5.667,11.790 5.752,11.727 5.917 C 11.664 6.080,11.405 6.167,10.977 6.167 C 10.549 6.167,10.290 6.253,10.227 6.417 C 10.174 6.554,10.036 6.667,9.919 6.667 C 9.803 6.667,9.614 6.779,9.500 6.917 C 9.386 7.054,9.152 7.167,8.980 7.167 C 8.807 7.167,8.667 7.276,8.667 7.409 C 8.667 7.556,8.428 7.696,8.060 7.765 C 7.173 7.932,4.434 10.662,4.268 11.545 C 4.197 11.924,4.057 12.167,3.909 12.167 C 3.751 12.167,3.667 12.340,3.667 12.667 C 3.667 13.000,3.583 13.167,3.417 13.167 C 3.279 13.167,3.167 13.273,3.167 13.403 C 3.167 13.533,3.090 13.664,2.996 13.696 C 2.902 13.727,2.777 14.051,2.718 14.417 C 2.658 14.782,2.510 15.180,2.388 15.302 C 2.266 15.424,2.167 15.773,2.167 16.077 C 2.167 16.416,2.069 16.668,1.917 16.727 C 1.728 16.799,1.667 17.105,1.667 17.977 C 1.667 18.849,1.606 19.154,1.417 19.227 C 1.222 19.302,1.167 19.633,1.167 20.731 C 1.167 21.667,1.101 22.161,0.969 22.205 C 0.830 22.251,0.783 22.821,0.808 24.139 C 0.837 25.683,0.799 26.024,0.588 26.105 C 0.371 26.188,0.333 26.705,0.333 29.601 C 0.333 31.756,0.272 33.000,0.167 33.000 C 0.057 33.000,0.000 36.750,0.000 43.917 C 0.000 51.083,0.057 54.833,0.167 54.833 C 0.272 54.833,0.333 56.085,0.333 58.255 C 0.333 61.169,0.371 61.692,0.588 61.775 C 0.797 61.855,0.836 62.192,0.808 63.689 C 0.785 64.906,0.838 65.572,0.970 65.703 C 1.088 65.821,1.167 66.424,1.167 67.205 C 1.167 68.212,1.224 68.532,1.417 68.606 C 1.606 68.679,1.667 68.984,1.667 69.856 C 1.667 70.728,1.728 71.034,1.917 71.106 C 2.091 71.173,2.167 71.445,2.167 72.006 C 2.167 72.486,2.264 72.907,2.408 73.051 C 2.541 73.184,2.700 73.490,2.760 73.730 C 2.820 73.970,2.936 74.167,3.018 74.167 C 3.100 74.167,3.167 74.392,3.167 74.667 C 3.167 75.000,3.250 75.167,3.417 75.167 C 3.554 75.167,3.667 75.279,3.667 75.417 C 3.667 75.554,3.788 75.667,3.937 75.667 C 4.159 75.667,4.170 75.712,4.000 75.917 C 3.767 76.197,4.027 76.667,4.415 76.667 C 4.530 76.667,4.667 76.939,4.721 77.272 C 4.856 78.104,6.457 79.667,7.174 79.667 C 7.501 79.667,7.667 79.751,7.667 79.917 C 7.667 80.054,7.779 80.167,7.917 80.167 C 8.054 80.167,8.167 80.279,8.167 80.417 C 8.167 80.583,8.333 80.667,8.667 80.667 C 9.000 80.667,9.167 80.750,9.167 80.917 C 9.167 81.056,9.315 81.167,9.500 81.167 C 9.683 81.167,9.833 81.240,9.833 81.330 C 9.833 81.420,10.015 81.539,10.238 81.595 C 10.460 81.651,10.683 81.802,10.733 81.932 C 10.795 82.095,11.105 82.167,11.745 82.167 C 12.453 82.167,12.667 82.225,12.667 82.417 C 12.667 82.617,12.917 82.667,13.917 82.667 C 14.917 82.667,15.167 82.717,15.167 82.917 C 15.167 83.123,15.472 83.167,16.917 83.167 C 18.361 83.167,18.667 83.210,18.667 83.417 C 18.667 83.628,19.054 83.667,21.149 83.667 C 23.201 83.667,23.648 83.710,23.727 83.917 C 23.809 84.130,24.460 84.167,28.173 84.167 C 31.826 84.167,32.564 84.207,32.775 84.418 C 33.153 84.796,82.665 84.793,83.394 84.414 C 83.773 84.218,84.607 84.167,87.441 84.167 C 90.460 84.167,91.025 84.128,91.106 83.917 C 91.186 83.709,91.651 83.667,93.856 83.667 C 96.062 83.667,96.527 83.624,96.606 83.417 C 96.683 83.217,97.049 83.167,98.434 83.167 C 99.863 83.167,100.167 83.123,100.167 82.917 C 100.167 82.714,100.436 82.667,101.589 82.667 C 102.699 82.667,103.031 82.612,103.106 82.417 C 103.166 82.262,103.419 82.167,103.773 82.167 C 104.127 82.167,104.380 82.072,104.440 81.917 C 104.492 81.779,104.668 81.667,104.831 81.667 C 104.993 81.667,105.219 81.554,105.333 81.417 C 105.447 81.279,105.682 81.167,105.854 81.167 C 106.026 81.167,106.167 81.054,106.167 80.917 C 106.167 80.761,106.324 80.667,106.583 80.667 C 106.837 80.667,107.000 80.572,107.000 80.424 C 107.000 80.276,107.242 80.137,107.625 80.067 C 107.969 80.004,108.448 79.757,108.690 79.518 C 108.932 79.279,109.322 78.933,109.557 78.750 C 109.792 78.567,109.988 78.355,109.992 78.279 C 109.997 78.203,110.225 77.916,110.500 77.641 C 110.827 77.314,111.000 76.973,111.000 76.654 C 111.000 76.332,111.085 76.167,111.250 76.167 C 111.417 76.167,111.500 76.000,111.500 75.667 C 111.500 75.333,111.583 75.167,111.750 75.167 C 111.888 75.167,112.000 75.026,112.000 74.854 C 112.000 74.682,112.112 74.447,112.250 74.333 C 112.388 74.219,112.500 74.023,112.500 73.896 C 112.500 73.770,112.612 73.667,112.750 73.667 C 112.944 73.667,113.000 73.444,113.000 72.667 C 113.000 71.889,113.056 71.667,113.250 71.667 C 113.444 71.667,113.500 71.444,113.500 70.667 C 113.500 69.889,113.556 69.667,113.750 69.667 C 113.950 69.667,114.000 69.417,114.000 68.417 C 114.000 67.417,114.050 67.167,114.250 67.167 C 114.458 67.167,114.500 66.841,114.500 65.238 C 114.500 63.746,114.557 63.253,114.750 63.060 C 114.950 62.860,115.000 62.310,115.000 60.310 C 115.000 58.310,115.050 57.760,115.250 57.560 C 115.462 57.348,115.500 56.498,115.500 52.009 C 115.500 47.466,115.536 46.677,115.754 46.497 C 116.113 46.199,116.099 41.123,115.737 40.823 C 115.542 40.660,115.500 39.742,115.500 35.575 C 115.500 31.307,115.461 30.485,115.250 30.274 C 115.050 30.074,115.000 29.524,115.000 27.524 C 115.000 25.524,114.950 24.974,114.750 24.774 C 114.561 24.585,114.500 24.115,114.500 22.845 C 114.500 21.464,114.456 21.167,114.250 21.167 C 114.050 21.167,114.000 20.917,114.000 19.917 C 114.000 18.917,113.950 18.667,113.750 18.667 C 113.550 18.667,113.500 18.417,113.500 17.417 C 113.500 16.417,113.450 16.167,113.250 16.167 C 113.065 16.167,113.000 15.972,113.000 15.417 C 113.000 14.861,112.935 14.667,112.750 14.667 C 112.583 14.667,112.500 14.499,112.500 14.161 C 112.500 13.866,112.396 13.616,112.250 13.560 C 112.112 13.508,112.000 13.285,112.000 13.066 C 112.000 12.822,111.903 12.667,111.750 12.667 C 111.612 12.667,111.500 12.554,111.500 12.417 C 111.500 12.279,111.388 12.167,111.250 12.167 C 111.083 12.167,111.000 12.000,111.000 11.667 C 111.000 11.351,110.915 11.167,110.768 11.167 C 110.641 11.167,110.489 10.979,110.432 10.750 C 110.374 10.521,110.253 10.333,110.163 10.333 C 110.074 10.333,110.000 10.142,110.000 9.909 C 110.000 9.494,109.299 8.667,108.947 8.667 C 108.542 8.667,107.516 8.057,107.438 7.770 C 107.379 7.553,107.251 7.483,107.021 7.543 C 106.824 7.594,106.652 7.535,106.599 7.398 C 106.550 7.271,106.329 7.167,106.106 7.167 C 105.884 7.167,105.659 7.054,105.606 6.917 C 105.554 6.779,105.404 6.667,105.273 6.667 C 105.142 6.667,104.992 6.554,104.940 6.417 C 104.887 6.279,104.689 6.167,104.500 6.167 C 104.311 6.167,104.113 6.054,104.060 5.917 C 103.992 5.738,103.713 5.667,103.083 5.667 C 102.454 5.667,102.175 5.595,102.106 5.417 C 102.034 5.227,101.725 5.167,100.827 5.167 C 99.997 5.167,99.568 5.092,99.393 4.917 C 99.195 4.719,98.672 4.667,96.905 4.667 C 95.026 4.667,94.667 4.626,94.667 4.417 C 94.667 4.205,94.252 4.166,91.958 4.161 C 89.841 4.157,89.179 4.103,88.926 3.911 C 88.656 3.707,87.633 3.667,82.706 3.667 C 77.687 3.667,76.772 3.629,76.560 3.417 C 76.319 3.176,39.198 3.045,38.292 3.282 M29.948 18.272 C 30.006 18.422,29.966 18.683,29.860 18.853 C 29.754 19.023,29.667 19.363,29.667 19.608 C 29.667 19.853,29.559 20.436,29.428 20.902 C 29.296 21.368,29.068 22.238,28.920 22.833 C 28.772 23.429,28.536 24.281,28.396 24.726 C 28.145 25.520,28.295 26.500,28.666 26.500 C 28.735 26.500,29.336 26.988,30.000 27.583 C 30.664 28.179,31.274 28.667,31.353 28.667 C 31.433 28.667,32.030 29.154,32.679 29.750 C 33.328 30.346,33.929 30.833,34.013 30.833 C 34.629 30.833,34.078 31.466,33.375 31.566 C 32.940 31.628,32.171 31.745,31.667 31.827 C 31.162 31.909,29.875 31.981,28.805 31.988 C 25.989 32.005,26.413 31.464,23.731 38.465 C 23.157 39.964,22.798 40.036,22.308 38.750 C 22.134 38.292,21.916 37.767,21.824 37.583 C 21.732 37.400,21.222 36.162,20.690 34.833 C 19.501 31.861,19.800 32.022,15.447 32.009 C 12.475 32.000,11.667 31.890,11.667 31.495 C 11.667 31.240,12.848 30.001,13.328 29.753 C 13.568 29.629,14.248 29.065,14.840 28.499 C 15.432 27.934,16.234 27.241,16.622 26.960 C 17.468 26.346,17.600 26.005,17.342 25.101 C 16.878 23.476,16.350 21.437,16.174 20.583 C 16.098 20.217,15.940 19.684,15.824 19.400 C 15.206 17.890,16.115 18.047,19.116 19.969 C 22.959 22.429,22.723 22.353,23.960 21.531 C 24.486 21.182,25.367 20.613,25.917 20.267 C 26.467 19.921,27.479 19.275,28.167 18.830 C 29.536 17.945,29.792 17.865,29.948 18.272 M145.333 41.750 L 145.333 63.333 155.672 63.333 C 164.708 63.333,166.023 63.302,166.106 63.083 C 166.169 62.920,166.429 62.833,166.856 62.833 C 167.284 62.833,167.544 62.747,167.606 62.583 C 167.661 62.441,167.910 62.333,168.184 62.333 C 168.502 62.333,168.667 62.248,168.667 62.083 C 168.667 61.927,168.825 61.833,169.089 61.833 C 169.321 61.833,169.554 61.721,169.606 61.583 C 169.659 61.446,169.807 61.333,169.934 61.333 C 170.062 61.333,170.167 61.221,170.167 61.083 C 170.167 60.946,170.314 60.833,170.494 60.833 C 170.674 60.833,171.052 60.608,171.333 60.333 C 171.615 60.058,171.917 59.833,172.006 59.833 C 172.094 59.833,172.170 59.740,172.174 59.625 C 172.178 59.510,172.403 59.233,172.674 59.008 C 172.958 58.772,173.167 58.437,173.167 58.216 C 173.167 57.987,173.267 57.833,173.417 57.833 C 173.554 57.833,173.667 57.729,173.667 57.601 C 173.667 57.473,173.779 57.326,173.917 57.273 C 174.054 57.220,174.167 56.995,174.167 56.773 C 174.167 56.551,174.279 56.326,174.417 56.273 C 174.582 56.210,174.667 55.949,174.667 55.505 C 174.667 55.019,174.736 54.833,174.917 54.833 C 175.117 54.833,175.167 54.583,175.167 53.583 C 175.167 52.583,175.217 52.333,175.417 52.333 C 175.622 52.333,175.667 52.036,175.667 50.661 C 175.667 49.329,175.616 48.970,175.417 48.894 C 175.228 48.821,175.167 48.516,175.167 47.644 C 175.167 46.772,175.106 46.466,174.917 46.394 C 174.754 46.331,174.667 46.072,174.667 45.649 C 174.667 45.183,174.596 45.000,174.417 45.000 C 174.250 45.000,174.167 44.833,174.167 44.500 C 174.167 44.167,174.083 44.000,173.917 44.000 C 173.779 44.000,173.667 43.887,173.667 43.750 C 173.667 43.612,173.554 43.500,173.417 43.500 C 173.260 43.500,173.167 43.342,173.167 43.078 C 173.167 42.846,173.054 42.613,172.917 42.560 C 172.779 42.508,172.667 42.360,172.667 42.232 C 172.667 42.104,172.554 42.000,172.417 42.000 C 172.279 42.000,172.167 41.887,172.167 41.750 C 172.167 41.612,172.054 41.500,171.917 41.500 C 171.779 41.500,171.667 41.387,171.667 41.250 C 171.667 41.112,171.562 41.000,171.434 41.000 C 171.307 41.000,171.159 40.887,171.106 40.750 C 171.054 40.612,170.821 40.500,170.589 40.500 C 170.325 40.500,170.167 40.406,170.167 40.250 C 170.167 40.112,170.054 40.000,169.917 40.000 C 169.779 40.000,169.667 39.887,169.667 39.750 C 169.667 39.583,169.500 39.500,169.167 39.500 C 168.833 39.500,168.667 39.417,168.667 39.250 C 168.667 39.083,168.500 39.000,168.167 39.000 C 167.833 39.000,167.667 38.917,167.667 38.750 C 167.667 38.565,167.472 38.500,166.917 38.500 C 166.361 38.500,166.167 38.435,166.167 38.250 C 166.167 38.032,165.259 38.000,159.000 38.000 L 151.833 38.000 151.833 32.000 L 151.833 26.000 161.500 26.000 L 171.167 26.000 171.167 23.083 L 171.167 20.167 158.250 20.167 L 145.333 20.167 145.333 41.750 M193.000 20.345 C 193.000 20.443,192.887 20.636,192.750 20.774 C 192.612 20.911,192.500 21.281,192.500 21.595 C 192.500 21.992,192.424 22.167,192.250 22.167 C 192.071 22.167,192.000 22.350,192.000 22.816 C 192.000 23.238,191.913 23.498,191.750 23.560 C 191.612 23.613,191.500 23.851,191.500 24.090 C 191.500 24.329,191.387 24.636,191.250 24.774 C 191.112 24.911,191.000 25.235,191.000 25.494 C 191.000 25.758,190.890 26.006,190.750 26.060 C 190.595 26.120,190.500 26.373,190.500 26.724 C 190.500 27.037,190.387 27.386,190.250 27.500 C 190.112 27.614,189.998 27.867,189.995 28.062 C 189.992 28.257,189.879 28.562,189.745 28.740 C 189.610 28.918,189.500 29.242,189.500 29.460 C 189.500 29.679,189.387 29.970,189.250 30.107 C 189.112 30.245,189.000 30.568,189.000 30.825 C 189.000 31.082,188.887 31.386,188.750 31.500 C 188.612 31.614,188.500 31.886,188.500 32.104 C 188.500 32.322,188.430 32.500,188.344 32.500 C 188.257 32.500,188.136 32.837,188.075 33.250 C 188.013 33.662,187.899 34.000,187.822 34.000 C 187.745 34.000,187.632 34.263,187.572 34.585 C 187.512 34.907,187.396 35.211,187.314 35.262 C 187.233 35.312,187.167 35.576,187.167 35.848 C 187.167 36.135,187.061 36.384,186.917 36.440 C 186.747 36.505,186.667 36.771,186.667 37.268 C 186.667 37.808,186.601 38.000,186.417 38.000 C 186.252 38.000,186.167 38.165,186.167 38.482 C 186.167 38.757,186.059 39.006,185.917 39.060 C 185.752 39.124,185.667 39.385,185.667 39.828 C 185.667 40.314,185.598 40.500,185.417 40.500 C 185.231 40.500,185.167 40.694,185.167 41.250 C 185.167 41.806,185.102 42.000,184.917 42.000 C 184.752 42.000,184.667 42.165,184.667 42.482 C 184.667 42.757,184.559 43.006,184.417 43.060 C 184.252 43.124,184.167 43.385,184.167 43.828 C 184.167 44.314,184.098 44.500,183.917 44.500 C 183.737 44.500,183.667 44.683,183.667 45.149 C 183.667 45.572,183.580 45.831,183.417 45.894 C 183.271 45.950,183.167 46.199,183.167 46.495 C 183.167 46.833,183.084 47.000,182.917 47.000 C 182.737 47.000,182.667 47.183,182.667 47.649 C 182.667 48.072,182.580 48.331,182.417 48.394 C 182.252 48.457,182.167 48.718,182.167 49.161 C 182.167 49.648,182.098 49.833,181.917 49.833 C 181.749 49.833,181.667 50.001,181.667 50.339 C 181.667 50.634,181.563 50.884,181.417 50.940 C 181.254 51.002,181.167 51.262,181.167 51.684 C 181.167 52.150,181.096 52.333,180.917 52.333 C 180.731 52.333,180.667 52.528,180.667 53.083 C 180.667 53.639,180.602 53.833,180.417 53.833 C 180.252 53.833,180.167 53.998,180.167 54.316 C 180.167 54.590,180.059 54.839,179.917 54.894 C 179.752 54.957,179.667 55.218,179.667 55.661 C 179.667 56.148,179.598 56.333,179.417 56.333 C 179.231 56.333,179.167 56.528,179.167 57.083 C 179.167 57.639,179.102 57.833,178.917 57.833 C 178.750 57.833,178.667 58.000,178.667 58.333 C 178.667 58.667,178.583 58.833,178.417 58.833 C 178.231 58.833,178.167 59.028,178.167 59.583 C 178.167 60.139,178.102 60.333,177.917 60.333 C 177.744 60.333,177.667 60.507,177.667 60.896 C 177.667 61.206,177.554 61.553,177.417 61.667 C 177.264 61.793,177.167 62.159,177.167 62.604 L 177.167 63.333 180.599 63.333 C 183.891 63.333,184.035 63.320,184.118 63.000 C 184.166 62.817,184.268 62.667,184.345 62.667 C 184.422 62.667,184.537 62.387,184.601 62.046 C 184.665 61.704,184.819 61.324,184.942 61.201 C 185.066 61.077,185.167 60.727,185.167 60.423 C 185.167 60.084,185.264 59.832,185.417 59.773 C 185.554 59.720,185.669 59.469,185.672 59.214 C 185.675 58.959,185.787 58.604,185.922 58.426 C 186.057 58.249,186.167 57.936,186.167 57.732 C 186.167 57.528,186.247 57.334,186.344 57.302 C 186.442 57.269,186.564 56.926,186.616 56.538 C 186.668 56.150,186.776 55.833,186.855 55.833 C 186.935 55.833,187.000 55.496,187.000 55.083 C 187.000 54.528,187.065 54.333,187.250 54.333 C 187.417 54.333,187.500 54.166,187.500 53.828 C 187.500 53.533,187.604 53.283,187.750 53.227 C 187.913 53.164,188.000 52.905,188.000 52.482 L 188.000 51.833 196.750 51.833 L 205.500 51.833 205.500 52.583 C 205.500 53.139,205.565 53.333,205.750 53.333 C 205.935 53.333,206.000 53.528,206.000 54.083 C 206.000 54.639,206.065 54.833,206.250 54.833 C 206.431 54.833,206.500 55.019,206.500 55.505 C 206.500 55.949,206.585 56.210,206.750 56.273 C 206.890 56.327,207.000 56.575,207.000 56.839 C 207.000 57.098,207.112 57.422,207.250 57.560 C 207.387 57.697,207.500 58.040,207.500 58.321 C 207.500 58.665,207.582 58.833,207.750 58.833 C 207.935 58.833,208.000 59.028,208.000 59.583 C 208.000 60.139,208.065 60.333,208.250 60.333 C 208.431 60.333,208.500 60.519,208.500 61.005 C 208.500 61.449,208.585 61.710,208.750 61.773 C 208.911 61.835,209.000 62.093,209.000 62.498 C 209.000 63.324,209.019 63.328,213.042 63.331 L 216.333 63.333 216.333 62.770 C 216.333 62.461,216.221 62.114,216.083 62.000 C 215.946 61.886,215.833 61.577,215.833 61.313 C 215.833 60.998,215.748 60.833,215.583 60.833 C 215.398 60.833,215.333 60.639,215.333 60.083 C 215.333 59.528,215.269 59.333,215.083 59.333 C 214.919 59.333,214.833 59.169,214.833 58.854 C 214.833 58.590,214.721 58.281,214.583 58.167 C 214.446 58.053,214.333 57.706,214.333 57.396 C 214.333 57.007,214.256 56.833,214.083 56.833 C 213.898 56.833,213.833 56.639,213.833 56.083 C 213.833 55.528,213.769 55.333,213.583 55.333 C 213.418 55.333,213.333 55.168,213.333 54.843 C 213.333 54.574,213.258 54.307,213.167 54.250 C 213.075 54.193,213.000 53.932,213.000 53.669 C 213.000 53.406,212.887 53.078,212.750 52.940 C 212.612 52.803,212.500 52.554,212.499 52.387 C 212.498 52.220,212.386 51.869,212.249 51.606 C 212.112 51.343,212.000 50.985,212.000 50.809 C 212.000 50.633,211.887 50.446,211.750 50.394 C 211.597 50.335,211.500 50.082,211.500 49.744 C 211.500 49.440,211.399 49.089,211.276 48.966 C 211.152 48.843,210.999 48.462,210.935 48.121 C 210.871 47.779,210.747 47.500,210.659 47.500 C 210.572 47.500,210.500 47.273,210.500 46.995 C 210.500 46.699,210.396 46.450,210.250 46.394 C 210.097 46.335,210.000 46.082,210.000 45.740 C 210.000 45.434,209.899 45.123,209.775 45.050 C 209.652 44.977,209.503 44.617,209.446 44.251 C 209.388 43.885,209.264 43.560,209.171 43.529 C 209.077 43.498,209.000 43.253,209.000 42.986 C 209.000 42.665,208.915 42.500,208.750 42.500 C 208.570 42.500,208.500 42.316,208.500 41.842 C 208.500 41.466,208.403 41.126,208.275 41.050 C 208.152 40.977,208.003 40.617,207.946 40.251 C 207.888 39.885,207.764 39.560,207.671 39.529 C 207.577 39.498,207.500 39.253,207.500 38.986 C 207.500 38.665,207.415 38.500,207.250 38.500 C 207.069 38.500,207.000 38.314,207.000 37.828 C 207.000 37.385,206.915 37.124,206.750 37.060 C 206.612 37.008,206.500 36.762,206.500 36.514 C 206.500 36.266,206.390 35.918,206.255 35.740 C 206.121 35.562,206.008 35.210,206.005 34.958 C 206.002 34.664,205.910 34.500,205.750 34.500 C 205.569 34.500,205.500 34.314,205.500 33.828 C 205.500 33.385,205.415 33.124,205.250 33.060 C 205.110 33.006,205.000 32.758,205.000 32.494 C 205.000 32.235,204.887 31.911,204.750 31.774 C 204.612 31.636,204.500 31.293,204.500 31.012 C 204.500 30.668,204.418 30.500,204.250 30.500 C 204.069 30.500,204.000 30.314,204.000 29.828 C 204.000 29.385,203.915 29.124,203.750 29.060 C 203.611 29.007,203.500 28.759,203.500 28.503 C 203.500 28.249,203.387 27.947,203.250 27.833 C 203.112 27.719,203.000 27.408,203.000 27.141 C 203.000 26.864,202.893 26.615,202.750 26.560 C 202.589 26.498,202.500 26.240,202.500 25.833 C 202.500 25.426,202.411 25.168,202.250 25.106 C 202.112 25.054,202.000 24.830,202.000 24.609 C 202.000 24.388,201.887 24.114,201.750 24.000 C 201.612 23.886,201.500 23.539,201.500 23.230 C 201.500 22.840,201.423 22.667,201.250 22.667 C 201.065 22.667,201.000 22.472,201.000 21.917 C 201.000 21.361,200.935 21.167,200.750 21.167 C 200.583 21.167,200.500 21.000,200.500 20.667 L 200.500 20.167 196.750 20.167 C 194.194 20.167,193.000 20.224,193.000 20.345 M220.333 41.750 L 220.333 63.333 230.672 63.333 C 239.708 63.333,241.023 63.302,241.106 63.083 C 241.169 62.920,241.429 62.833,241.856 62.833 C 242.284 62.833,242.544 62.747,242.606 62.583 C 242.661 62.441,242.910 62.333,243.184 62.333 C 243.502 62.333,243.667 62.248,243.667 62.083 C 243.667 61.927,243.825 61.833,244.089 61.833 C 244.321 61.833,244.554 61.721,244.606 61.583 C 244.659 61.446,244.807 61.333,244.934 61.333 C 245.062 61.333,245.167 61.221,245.167 61.083 C 245.167 60.946,245.311 60.833,245.488 60.833 C 245.665 60.833,245.922 60.721,246.060 60.583 C 246.197 60.446,246.390 60.333,246.488 60.333 C 246.586 60.333,246.667 60.221,246.667 60.083 C 246.667 59.946,246.779 59.833,246.917 59.833 C 247.054 59.833,247.167 59.721,247.167 59.583 C 247.167 59.446,247.279 59.333,247.417 59.333 C 247.554 59.333,247.667 59.229,247.667 59.101 C 247.667 58.973,247.779 58.826,247.917 58.773 C 248.054 58.720,248.167 58.487,248.167 58.255 C 248.167 57.991,248.260 57.833,248.417 57.833 C 248.554 57.833,248.667 57.729,248.667 57.601 C 248.667 57.473,248.779 57.326,248.917 57.273 C 249.054 57.220,249.167 56.987,249.167 56.755 C 249.167 56.491,249.260 56.333,249.417 56.333 C 249.602 56.333,249.667 56.139,249.667 55.583 C 249.667 55.028,249.731 54.833,249.917 54.833 C 250.117 54.833,250.167 54.583,250.167 53.583 C 250.167 52.583,250.217 52.333,250.417 52.333 C 250.622 52.333,250.667 52.036,250.667 50.661 C 250.667 49.329,250.616 48.970,250.417 48.894 C 250.228 48.821,250.167 48.516,250.167 47.644 C 250.167 46.772,250.106 46.466,249.917 46.394 C 249.754 46.331,249.667 46.072,249.667 45.649 C 249.667 45.183,249.596 45.000,249.417 45.000 C 249.250 45.000,249.167 44.833,249.167 44.500 C 249.167 44.167,249.083 44.000,248.917 44.000 C 248.779 44.000,248.667 43.887,248.667 43.750 C 248.667 43.612,248.554 43.500,248.417 43.500 C 248.260 43.500,248.167 43.342,248.167 43.078 C 248.167 42.846,248.054 42.613,247.917 42.560 C 247.779 42.508,247.667 42.360,247.667 42.232 C 247.667 42.104,247.554 42.000,247.417 42.000 C 247.279 42.000,247.167 41.887,247.167 41.750 C 247.167 41.612,247.054 41.500,246.917 41.500 C 246.779 41.500,246.667 41.387,246.667 41.250 C 246.667 41.112,246.554 41.000,246.417 41.000 C 246.279 41.000,246.167 40.887,246.167 40.750 C 246.167 40.583,246.000 40.500,245.667 40.500 C 245.333 40.500,245.167 40.417,245.167 40.250 C 245.167 40.112,245.054 40.000,244.917 40.000 C 244.779 40.000,244.667 39.887,244.667 39.750 C 244.667 39.583,244.500 39.500,244.167 39.500 C 243.833 39.500,243.667 39.417,243.667 39.250 C 243.667 39.083,243.500 39.000,243.167 39.000 C 242.833 39.000,242.667 38.917,242.667 38.750 C 242.667 38.565,242.472 38.500,241.917 38.500 C 241.361 38.500,241.167 38.435,241.167 38.250 C 241.167 38.032,240.259 38.000,234.000 38.000 L 226.833 38.000 226.833 32.000 L 226.833 26.000 236.500 26.000 L 246.167 26.000 246.167 23.083 L 246.167 20.167 233.250 20.167 L 220.333 20.167 220.333 41.750 M255.667 41.754 L 255.667 63.341 258.875 63.295 L 262.083 63.250 262.126 53.792 C 262.164 45.538,262.201 44.333,262.418 44.333 C 262.555 44.333,262.667 44.446,262.667 44.583 C 262.667 44.721,262.779 44.833,262.917 44.833 C 263.054 44.833,263.167 44.946,263.167 45.083 C 263.167 45.221,263.279 45.333,263.417 45.333 C 263.554 45.333,263.667 45.446,263.667 45.583 C 263.667 45.721,263.779 45.833,263.917 45.833 C 264.054 45.833,264.167 45.974,264.167 46.146 C 264.167 46.318,264.279 46.553,264.417 46.667 C 264.554 46.781,264.667 46.977,264.667 47.104 C 264.667 47.230,264.779 47.333,264.917 47.333 C 265.054 47.333,265.167 47.446,265.167 47.583 C 265.167 47.721,265.279 47.833,265.417 47.833 C 265.554 47.833,265.667 47.946,265.667 48.083 C 265.667 48.221,265.779 48.333,265.917 48.333 C 266.054 48.333,266.167 48.446,266.167 48.583 C 266.167 48.721,266.279 48.833,266.417 48.833 C 266.554 48.833,266.667 48.946,266.667 49.083 C 266.667 49.221,266.779 49.333,266.917 49.333 C 267.054 49.333,267.167 49.408,267.167 49.500 C 267.167 49.592,267.579 50.082,268.083 50.591 C 268.587 51.099,269.000 51.586,269.000 51.674 C 269.000 51.762,269.112 51.833,269.250 51.833 C 269.387 51.833,269.500 51.946,269.500 52.083 C 269.500 52.221,269.612 52.333,269.750 52.333 C 269.887 52.333,270.000 52.446,270.000 52.583 C 270.000 52.721,270.112 52.833,270.250 52.833 C 270.387 52.833,270.500 52.946,270.500 53.083 C 270.500 53.221,270.612 53.333,270.750 53.333 C 270.887 53.333,271.000 53.414,271.000 53.514 C 271.000 53.758,272.055 55.057,273.124 56.129 C 273.606 56.612,274.000 57.080,274.000 57.170 C 274.000 57.260,274.112 57.333,274.250 57.333 C 274.387 57.333,274.500 57.446,274.500 57.583 C 274.500 57.721,274.612 57.833,274.750 57.833 C 274.887 57.833,275.000 57.946,275.000 58.083 C 275.000 58.221,275.112 58.333,275.250 58.333 C 275.387 58.333,275.500 58.446,275.500 58.583 C 275.500 58.721,275.612 58.833,275.750 58.833 C 275.887 58.833,276.000 58.946,276.000 59.083 C 276.000 59.221,276.112 59.333,276.250 59.333 C 276.387 59.333,276.500 59.446,276.500 59.583 C 276.500 59.721,276.612 59.833,276.750 59.833 C 276.887 59.833,277.000 59.946,277.000 60.083 C 277.000 60.221,277.112 60.333,277.250 60.333 C 277.387 60.333,277.500 60.446,277.500 60.583 C 277.500 60.721,277.612 60.833,277.750 60.833 C 277.887 60.833,278.000 60.929,278.000 61.046 C 278.000 61.163,278.225 61.505,278.500 61.806 C 278.775 62.108,279.000 62.424,279.000 62.510 C 279.000 62.596,279.112 62.667,279.250 62.667 C 279.387 62.667,279.500 62.771,279.500 62.899 C 279.500 63.311,279.916 63.333,287.680 63.333 C 295.222 63.333,295.333 63.328,295.333 63.000 C 295.333 62.815,295.444 62.667,295.583 62.667 C 295.764 62.667,295.833 62.481,295.833 62.000 C 295.833 61.519,295.903 61.333,296.083 61.333 C 296.269 61.333,296.333 61.139,296.333 60.583 C 296.333 60.028,296.398 59.833,296.583 59.833 C 296.751 59.833,296.833 59.665,296.833 59.321 C 296.833 59.040,296.946 58.697,297.083 58.560 C 297.221 58.422,297.333 58.098,297.333 57.839 C 297.333 57.575,297.443 57.327,297.583 57.273 C 297.748 57.210,297.833 56.949,297.833 56.505 C 297.833 56.019,297.902 55.833,298.083 55.833 C 298.269 55.833,298.333 55.639,298.333 55.083 C 298.333 54.528,298.398 54.333,298.583 54.333 C 298.748 54.333,298.833 54.169,298.833 53.854 C 298.833 53.590,298.946 53.281,299.083 53.167 C 299.221 53.053,299.333 52.706,299.333 52.396 L 299.333 51.833 308.083 51.833 L 316.833 51.833 316.833 52.583 C 316.833 53.139,316.898 53.333,317.083 53.333 C 317.269 53.333,317.333 53.528,317.333 54.083 C 317.333 54.639,317.398 54.833,317.583 54.833 C 317.764 54.833,317.833 55.019,317.833 55.505 C 317.833 55.949,317.918 56.210,318.083 56.273 C 318.224 56.327,318.333 56.575,318.333 56.839 C 318.333 57.098,318.446 57.422,318.583 57.560 C 318.721 57.697,318.833 58.040,318.833 58.321 C 318.833 58.665,318.915 58.833,319.083 58.833 C 319.269 58.833,319.333 59.028,319.333 59.583 C 319.333 60.139,319.398 60.333,319.583 60.333 C 319.763 60.333,319.833 60.516,319.833 60.980 C 319.833 61.351,319.940 61.714,320.083 61.833 C 320.221 61.947,320.333 62.285,320.333 62.584 C 320.333 63.311,320.427 63.328,324.375 63.331 L 327.667 63.333 327.667 62.845 C 327.667 62.577,327.554 62.245,327.417 62.107 C 327.279 61.970,327.167 61.627,327.167 61.345 C 327.167 61.001,327.085 60.833,326.917 60.833 C 326.731 60.833,326.667 60.639,326.667 60.083 C 326.667 59.528,326.602 59.333,326.417 59.333 C 326.252 59.333,326.167 59.169,326.167 58.854 C 326.167 58.590,326.054 58.281,325.917 58.167 C 325.779 58.053,325.667 57.706,325.667 57.396 C 325.667 57.007,325.590 56.833,325.417 56.833 C 325.231 56.833,325.167 56.639,325.167 56.083 C 325.167 55.528,325.102 55.333,324.917 55.333 C 324.749 55.333,324.667 55.166,324.667 54.828 C 324.667 54.533,324.563 54.283,324.417 54.227 C 324.254 54.164,324.167 53.905,324.167 53.482 C 324.167 53.017,324.096 52.833,323.917 52.833 C 323.736 52.833,323.667 52.648,323.667 52.161 C 323.667 51.718,323.582 51.457,323.417 51.394 C 323.274 51.339,323.167 51.090,323.167 50.816 C 323.167 50.498,323.081 50.333,322.917 50.333 C 322.731 50.333,322.667 50.139,322.667 49.583 C 322.667 49.028,322.602 48.833,322.417 48.833 C 322.236 48.833,322.167 48.648,322.167 48.167 C 322.167 47.685,322.097 47.500,321.917 47.500 C 321.742 47.500,321.667 47.324,321.667 46.917 C 321.667 46.509,321.591 46.333,321.417 46.333 C 321.236 46.333,321.167 46.148,321.167 45.667 C 321.167 45.185,321.097 45.000,320.917 45.000 C 320.731 45.000,320.667 44.806,320.667 44.250 C 320.667 43.694,320.602 43.500,320.417 43.500 C 320.250 43.500,320.167 43.333,320.167 43.000 C 320.167 42.725,320.092 42.500,320.000 42.500 C 319.908 42.500,319.833 42.243,319.833 41.929 C 319.833 41.614,319.734 41.257,319.612 41.135 C 319.490 41.014,319.342 40.615,319.282 40.250 C 319.223 39.885,319.098 39.560,319.004 39.529 C 318.910 39.498,318.833 39.289,318.833 39.064 C 318.833 38.840,318.721 38.613,318.583 38.560 C 318.431 38.502,318.333 38.249,318.333 37.911 C 318.333 37.606,318.221 37.245,318.083 37.107 C 317.946 36.970,317.833 36.679,317.833 36.460 C 317.833 36.242,317.723 35.918,317.589 35.740 C 317.454 35.562,317.342 35.246,317.339 35.036 C 317.336 34.827,317.221 34.613,317.083 34.560 C 316.931 34.502,316.833 34.249,316.833 33.911 C 316.833 33.606,316.721 33.245,316.583 33.107 C 316.446 32.970,316.333 32.670,316.333 32.440 C 316.333 32.211,316.221 31.911,316.083 31.774 C 315.946 31.636,315.833 31.329,315.833 31.090 C 315.833 30.851,315.721 30.613,315.583 30.560 C 315.431 30.502,315.333 30.249,315.333 29.911 C 315.333 29.606,315.221 29.245,315.083 29.107 C 314.946 28.970,314.833 28.673,314.833 28.449 C 314.833 28.224,314.721 27.947,314.583 27.833 C 314.446 27.719,314.333 27.408,314.333 27.141 C 314.333 26.864,314.226 26.615,314.083 26.560 C 313.928 26.501,313.833 26.247,313.833 25.894 C 313.833 25.540,313.738 25.286,313.583 25.227 C 313.444 25.174,313.333 24.926,313.333 24.669 C 313.333 24.415,313.221 24.114,313.083 24.000 C 312.946 23.886,312.833 23.539,312.833 23.230 C 312.833 22.840,312.756 22.667,312.583 22.667 C 312.402 22.667,312.333 22.481,312.333 21.995 C 312.333 21.551,312.248 21.290,312.083 21.227 C 311.941 21.172,311.833 20.924,311.833 20.649 L 311.833 20.167 308.083 20.167 C 304.989 20.167,304.333 20.207,304.333 20.399 C 304.333 20.527,304.221 20.674,304.083 20.727 C 303.918 20.790,303.833 21.051,303.833 21.495 C 303.833 21.981,303.764 22.167,303.583 22.167 C 303.404 22.167,303.333 22.350,303.333 22.816 C 303.333 23.238,303.246 23.498,303.083 23.560 C 302.940 23.615,302.833 23.864,302.833 24.144 C 302.833 24.423,302.727 24.672,302.583 24.727 C 302.428 24.786,302.333 25.040,302.333 25.394 C 302.333 25.747,302.238 26.001,302.083 26.060 C 301.926 26.121,301.833 26.376,301.833 26.750 C 301.833 27.124,301.741 27.379,301.583 27.440 C 301.446 27.492,301.333 27.720,301.333 27.946 C 301.333 28.172,301.221 28.470,301.083 28.607 C 300.946 28.745,300.833 29.106,300.833 29.411 C 300.833 29.749,300.736 30.002,300.583 30.060 C 300.426 30.121,300.333 30.376,300.333 30.750 C 300.333 31.124,300.241 31.379,300.083 31.440 C 299.944 31.493,299.833 31.741,299.833 32.000 C 299.833 32.259,299.723 32.507,299.583 32.560 C 299.420 32.623,299.333 32.883,299.333 33.310 C 299.333 33.738,299.247 33.998,299.083 34.060 C 298.940 34.115,298.833 34.364,298.833 34.641 C 298.833 34.908,298.721 35.219,298.583 35.333 C 298.446 35.447,298.333 35.749,298.333 36.003 C 298.333 36.259,298.222 36.507,298.083 36.560 C 297.918 36.624,297.833 36.885,297.833 37.328 C 297.833 37.814,297.764 38.000,297.583 38.000 C 297.423 38.000,297.331 38.164,297.328 38.458 C 297.325 38.710,297.213 39.062,297.078 39.240 C 296.943 39.418,296.833 39.742,296.833 39.960 C 296.833 40.179,296.721 40.470,296.583 40.607 C 296.446 40.745,296.333 41.106,296.333 41.411 C 296.333 41.749,296.236 42.002,296.083 42.060 C 295.946 42.113,295.831 42.327,295.828 42.536 C 295.825 42.746,295.713 43.062,295.578 43.240 C 295.443 43.418,295.333 43.774,295.333 44.032 C 295.333 44.289,295.262 44.500,295.174 44.500 C 295.087 44.500,294.964 44.781,294.901 45.125 C 294.838 45.469,294.684 45.898,294.560 46.079 C 294.435 46.260,294.333 46.541,294.333 46.704 C 294.333 46.867,294.258 47.000,294.167 47.000 C 294.075 47.000,294.000 47.169,293.999 47.375 C 293.998 47.581,293.886 47.965,293.749 48.227 C 293.612 48.490,293.500 48.959,293.500 49.269 C 293.500 49.660,293.423 49.833,293.250 49.833 C 293.083 49.833,293.000 50.001,293.000 50.339 C 293.000 50.634,292.896 50.884,292.750 50.940 C 292.587 51.002,292.500 51.262,292.500 51.684 C 292.500 52.150,292.429 52.333,292.250 52.333 C 292.065 52.333,292.000 52.528,292.000 53.083 C 292.000 53.639,291.935 53.833,291.750 53.833 C 291.585 53.833,291.500 53.998,291.500 54.316 C 291.500 54.590,291.393 54.839,291.250 54.894 C 291.085 54.957,291.000 55.218,291.000 55.661 C 291.000 56.148,290.931 56.333,290.750 56.333 C 290.565 56.333,290.500 56.528,290.500 57.083 C 290.500 57.639,290.435 57.833,290.250 57.833 C 290.083 57.833,290.000 58.000,290.000 58.333 C 290.000 58.667,289.917 58.833,289.750 58.833 C 289.565 58.833,289.500 59.028,289.500 59.583 C 289.500 60.139,289.435 60.333,289.250 60.333 C 289.080 60.333,289.000 60.503,289.000 60.862 C 289.000 61.153,288.880 61.523,288.734 61.684 C 288.443 62.005,288.000 61.934,288.000 61.566 C 288.000 61.438,287.887 61.333,287.750 61.333 C 287.612 61.333,287.500 61.221,287.500 61.083 C 287.500 60.946,287.387 60.833,287.250 60.833 C 287.112 60.833,287.000 60.721,287.000 60.583 C 287.000 60.446,286.887 60.333,286.750 60.333 C 286.612 60.333,286.500 60.221,286.500 60.083 C 286.500 59.946,286.387 59.833,286.250 59.833 C 286.112 59.833,286.000 59.721,286.000 59.583 C 286.000 59.446,285.887 59.333,285.750 59.333 C 285.612 59.333,285.500 59.221,285.500 59.083 C 285.500 58.946,285.387 58.833,285.250 58.833 C 285.112 58.833,285.000 58.721,285.000 58.583 C 285.000 58.446,284.887 58.333,284.750 58.333 C 284.612 58.333,284.500 58.221,284.500 58.083 C 284.500 57.946,284.387 57.833,284.250 57.833 C 284.112 57.833,284.000 57.721,284.000 57.583 C 284.000 57.446,283.887 57.333,283.750 57.333 C 283.612 57.333,283.500 57.221,283.500 57.083 C 283.500 56.946,283.387 56.833,283.250 56.833 C 283.112 56.833,283.000 56.721,283.000 56.583 C 283.000 56.446,282.887 56.333,282.750 56.333 C 282.612 56.333,282.500 56.221,282.500 56.083 C 282.500 55.946,282.387 55.833,282.250 55.833 C 282.112 55.833,282.000 55.721,282.000 55.583 C 282.000 55.446,281.887 55.333,281.750 55.333 C 281.612 55.333,281.500 55.221,281.500 55.083 C 281.500 54.946,281.387 54.833,281.250 54.833 C 281.112 54.833,281.000 54.721,281.000 54.583 C 281.000 54.446,280.887 54.333,280.750 54.333 C 280.612 54.333,280.500 54.221,280.500 54.083 C 280.500 53.946,280.387 53.833,280.250 53.833 C 280.112 53.833,280.000 53.721,280.000 53.583 C 280.000 53.446,279.887 53.333,279.750 53.333 C 279.612 53.333,279.500 53.258,279.500 53.167 C 279.500 52.997,279.378 52.839,278.497 51.869 C 278.224 51.568,278.000 51.285,278.000 51.239 C 278.000 51.070,271.349 44.500,271.178 44.500 C 271.080 44.500,271.000 44.387,271.000 44.250 C 271.000 44.112,270.887 44.000,270.750 44.000 C 270.612 44.000,270.500 43.887,270.500 43.750 C 270.500 43.612,270.387 43.500,270.250 43.500 C 270.112 43.500,270.000 43.387,270.000 43.250 C 270.000 43.112,269.887 43.000,269.750 43.000 C 269.612 43.000,269.500 42.887,269.500 42.750 C 269.500 42.612,269.387 42.500,269.250 42.500 C 269.112 42.500,269.000 42.387,269.000 42.250 C 269.000 42.112,269.112 42.000,269.250 42.000 C 269.387 42.000,269.500 41.927,269.500 41.838 C 269.500 41.748,269.837 41.338,270.250 40.925 C 270.662 40.513,271.000 40.106,271.000 40.022 C 271.000 39.938,271.112 39.826,271.250 39.773 C 271.387 39.720,271.500 39.525,271.500 39.339 C 271.500 39.149,271.610 39.000,271.750 39.000 C 271.887 39.000,272.000 38.887,272.000 38.750 C 272.000 38.612,272.112 38.500,272.250 38.500 C 272.387 38.500,272.500 38.387,272.500 38.250 C 272.500 38.112,272.612 38.000,272.750 38.000 C 272.887 38.000,273.000 37.887,273.000 37.750 C 273.000 37.612,273.112 37.500,273.250 37.500 C 273.387 37.500,273.500 37.387,273.500 37.250 C 273.500 37.112,273.612 37.000,273.750 37.000 C 273.887 37.000,274.000 36.887,274.000 36.750 C 274.000 36.612,274.112 36.500,274.250 36.500 C 274.387 36.500,274.500 36.396,274.500 36.268 C 274.500 36.140,274.612 35.992,274.750 35.940 C 274.887 35.887,275.000 35.737,275.000 35.606 C 275.000 35.476,275.112 35.326,275.250 35.273 C 275.387 35.220,275.500 35.025,275.500 34.839 C 275.500 34.649,275.610 34.500,275.750 34.500 C 275.887 34.500,276.000 34.387,276.000 34.250 C 276.000 34.112,276.112 34.000,276.250 34.000 C 276.387 34.000,276.500 33.887,276.500 33.750 C 276.500 33.612,276.612 33.500,276.750 33.500 C 276.887 33.500,277.000 33.387,277.000 33.250 C 277.000 33.112,277.112 33.000,277.250 33.000 C 277.387 33.000,277.500 32.887,277.500 32.750 C 277.500 32.612,277.612 32.500,277.750 32.500 C 277.887 32.500,278.000 32.387,278.000 32.250 C 278.000 32.112,278.112 32.000,278.250 32.000 C 278.387 32.000,278.500 31.929,278.500 31.842 C 278.500 31.755,278.689 31.480,278.921 31.230 C 279.152 30.980,279.385 30.601,279.439 30.388 C 279.492 30.175,279.641 30.000,279.768 30.000 C 279.896 30.000,280.000 29.887,280.000 29.750 C 280.000 29.613,280.112 29.500,280.250 29.500 C 280.387 29.500,280.500 29.387,280.500 29.250 C 280.500 29.113,280.612 29.000,280.750 29.000 C 280.887 29.000,281.000 28.887,281.000 28.750 C 281.000 28.613,281.112 28.500,281.250 28.500 C 281.387 28.500,281.500 28.387,281.500 28.250 C 281.500 28.113,281.612 28.000,281.750 28.000 C 281.887 28.000,282.000 27.887,282.000 27.750 C 282.000 27.613,282.112 27.500,282.250 27.500 C 282.387 27.500,282.500 27.429,282.500 27.342 C 282.500 27.255,282.689 26.980,282.921 26.730 C 283.152 26.480,283.385 26.101,283.439 25.888 C 283.492 25.675,283.641 25.500,283.768 25.500 C 283.896 25.500,284.000 25.387,284.000 25.250 C 284.000 25.113,284.112 25.000,284.250 25.000 C 284.387 25.000,284.500 24.887,284.500 24.750 C 284.500 24.613,284.612 24.500,284.750 24.500 C 284.887 24.500,285.000 24.387,285.000 24.250 C 285.000 24.113,285.112 24.000,285.250 24.000 C 285.387 24.000,285.500 23.887,285.500 23.750 C 285.500 23.613,285.612 23.500,285.750 23.500 C 285.887 23.500,286.000 23.387,286.000 23.250 C 286.000 23.113,286.112 23.000,286.250 23.000 C 286.387 23.000,286.500 22.921,286.500 22.824 C 286.500 22.728,286.725 22.409,286.999 22.116 C 287.274 21.823,287.499 21.484,287.499 21.363 C 287.500 21.242,287.609 21.034,287.743 20.900 C 288.408 20.235,288.012 20.167,283.473 20.167 L 279.149 20.167 278.975 20.667 C 278.879 20.942,278.733 21.167,278.650 21.167 C 278.568 21.167,278.500 21.279,278.500 21.417 C 278.500 21.554,278.387 21.667,278.250 21.667 C 278.112 21.667,278.000 21.779,278.000 21.917 C 278.000 22.054,277.887 22.167,277.750 22.167 C 277.612 22.167,277.500 22.279,277.500 22.417 C 277.500 22.554,277.387 22.667,277.250 22.667 C 277.112 22.667,277.000 22.779,277.000 22.917 C 277.000 23.054,276.887 23.167,276.750 23.167 C 276.612 23.167,276.500 23.279,276.500 23.417 C 276.500 23.554,276.423 23.667,276.329 23.667 C 276.235 23.667,276.087 23.854,276.000 24.083 C 275.913 24.313,275.765 24.500,275.671 24.500 C 275.577 24.500,275.500 24.566,275.500 24.648 C 275.500 24.729,274.938 25.372,274.250 26.078 C 273.563 26.783,273.000 27.469,273.000 27.602 C 273.000 27.735,272.887 27.887,272.750 27.940 C 272.612 27.992,272.500 28.140,272.500 28.268 C 272.500 28.396,272.387 28.500,272.250 28.500 C 272.112 28.500,272.000 28.571,272.000 28.659 C 272.000 28.746,271.633 29.185,271.184 29.633 C 270.735 30.082,270.246 30.686,270.096 30.975 C 269.947 31.264,269.752 31.500,269.662 31.500 C 269.573 31.500,269.500 31.572,269.500 31.659 C 269.500 31.747,269.087 32.235,268.583 32.743 C 268.079 33.251,267.667 33.742,267.667 33.833 C 267.667 33.925,267.554 34.000,267.417 34.000 C 267.279 34.000,267.167 34.103,267.167 34.230 C 267.167 34.356,267.054 34.553,266.917 34.667 C 266.779 34.781,266.667 35.015,266.667 35.187 C 266.667 35.359,266.554 35.500,266.417 35.500 C 266.279 35.500,266.167 35.612,266.167 35.750 C 266.167 35.887,266.054 36.000,265.917 36.000 C 265.779 36.000,265.667 36.112,265.667 36.250 C 265.667 36.387,265.554 36.500,265.417 36.500 C 265.279 36.500,265.167 36.612,265.167 36.750 C 265.167 36.887,265.054 37.000,264.917 37.000 C 264.779 37.000,264.667 37.112,264.667 37.250 C 264.667 37.387,264.554 37.500,264.417 37.500 C 264.279 37.500,264.167 37.642,264.167 37.816 C 264.167 37.989,264.054 38.174,263.917 38.227 C 263.779 38.280,263.667 38.475,263.667 38.661 C 263.667 38.851,263.557 39.000,263.417 39.000 C 263.279 39.000,263.167 39.112,263.167 39.250 C 263.167 39.387,263.054 39.500,262.917 39.500 C 262.779 39.500,262.667 39.612,262.667 39.750 C 262.667 39.887,262.554 40.000,262.417 40.000 C 262.197 40.000,262.167 38.787,262.167 30.083 L 262.167 20.167 258.917 20.167 L 255.667 20.167 255.667 41.754 M46.773 26.417 C 46.826 26.554,47.042 26.667,47.253 26.667 C 47.478 26.667,47.817 26.881,48.072 27.183 C 48.337 27.499,48.603 27.663,48.755 27.605 C 48.898 27.549,49.089 27.648,49.208 27.838 C 49.321 28.019,49.568 28.167,49.756 28.167 C 49.945 28.167,50.283 28.388,50.508 28.660 C 50.736 28.934,51.085 29.156,51.297 29.160 C 51.506 29.163,51.720 29.279,51.773 29.417 C 51.826 29.554,52.051 29.667,52.273 29.667 C 52.495 29.667,52.720 29.779,52.773 29.917 C 52.826 30.054,53.051 30.167,53.273 30.167 C 53.495 30.167,53.720 30.279,53.773 30.417 C 53.826 30.554,54.051 30.667,54.273 30.667 C 54.495 30.667,54.720 30.779,54.773 30.917 C 54.826 31.054,55.033 31.167,55.234 31.167 C 55.435 31.167,55.783 31.388,56.008 31.660 C 56.236 31.934,56.585 32.156,56.797 32.160 C 57.006 32.163,57.220 32.279,57.273 32.417 C 57.326 32.554,57.524 32.667,57.713 32.667 C 57.903 32.667,58.378 33.002,58.776 33.417 C 59.171 33.829,59.638 34.167,59.813 34.167 C 59.988 34.167,60.174 34.279,60.227 34.417 C 60.288 34.576,60.552 34.669,60.953 34.674 C 61.443 34.679,61.674 34.790,61.992 35.174 C 62.217 35.445,62.565 35.667,62.766 35.667 C 62.967 35.667,63.174 35.779,63.227 35.917 C 63.280 36.054,63.494 36.170,63.703 36.174 C 63.915 36.178,64.264 36.399,64.492 36.674 C 64.717 36.945,65.065 37.167,65.266 37.167 C 65.467 37.167,65.674 37.279,65.727 37.417 C 65.787 37.574,66.042 37.667,66.412 37.667 C 66.875 37.667,67.134 37.803,67.625 38.307 C 67.969 38.659,68.456 38.998,68.708 39.060 C 68.960 39.122,69.167 39.247,69.167 39.337 C 69.167 39.426,69.311 39.500,69.487 39.500 C 69.663 39.500,70.033 39.725,70.308 40.000 C 70.583 40.275,70.921 40.500,71.059 40.500 C 71.197 40.500,71.409 40.600,71.531 40.722 C 71.653 40.844,71.959 40.995,72.210 41.058 C 72.461 41.121,72.667 41.247,72.667 41.337 C 72.667 41.426,72.811 41.500,72.987 41.500 C 73.163 41.500,73.533 41.725,73.808 42.000 C 74.083 42.275,74.423 42.500,74.565 42.500 C 74.706 42.500,75.052 42.725,75.333 43.000 C 75.615 43.275,75.995 43.500,76.178 43.500 C 76.361 43.500,76.554 43.613,76.607 43.751 C 76.733 44.079,75.488 45.333,75.037 45.333 C 74.853 45.333,74.659 45.446,74.606 45.583 C 74.554 45.721,74.339 45.837,74.130 45.840 C 73.918 45.844,73.569 46.066,73.341 46.340 C 73.116 46.612,72.768 46.833,72.567 46.833 C 72.367 46.833,72.159 46.946,72.106 47.083 C 72.054 47.221,71.829 47.333,71.606 47.333 C 71.384 47.333,71.159 47.446,71.106 47.583 C 71.054 47.721,70.829 47.833,70.606 47.833 C 70.384 47.833,70.161 47.940,70.111 48.070 C 70.061 48.201,69.847 48.332,69.635 48.362 C 69.384 48.398,69.231 48.547,69.197 48.791 C 69.162 49.036,68.989 49.205,68.698 49.278 C 68.454 49.339,68.153 49.489,68.031 49.611 C 67.909 49.733,67.665 49.833,67.488 49.833 C 67.311 49.833,67.167 49.907,67.167 49.997 C 67.167 50.087,66.961 50.212,66.710 50.275 C 66.459 50.338,66.153 50.489,66.031 50.611 C 65.909 50.733,65.665 50.833,65.488 50.833 C 65.311 50.833,65.167 50.901,65.167 50.984 C 65.167 51.066,64.960 51.207,64.708 51.297 C 64.456 51.386,64.040 51.656,63.783 51.896 C 63.526 52.137,63.217 52.333,63.095 52.333 C 62.974 52.333,62.781 52.446,62.667 52.583 C 62.553 52.721,62.289 52.833,62.081 52.833 C 61.873 52.833,61.659 52.946,61.606 53.083 C 61.554 53.221,61.329 53.333,61.106 53.333 C 60.884 53.333,60.659 53.446,60.606 53.583 C 60.554 53.721,60.367 53.833,60.192 53.833 C 60.017 53.833,59.778 53.949,59.661 54.090 C 59.543 54.232,59.328 54.324,59.182 54.295 C 59.036 54.266,58.624 54.563,58.266 54.955 C 57.871 55.387,57.469 55.667,57.242 55.667 C 57.037 55.667,56.826 55.779,56.773 55.917 C 56.720 56.054,56.506 56.170,56.297 56.174 C 56.085 56.178,55.736 56.399,55.508 56.674 C 55.283 56.945,54.935 57.167,54.734 57.167 C 54.533 57.167,54.326 57.279,54.273 57.417 C 54.220 57.554,53.995 57.667,53.773 57.667 C 53.551 57.667,53.326 57.779,53.273 57.917 C 53.220 58.054,52.995 58.167,52.773 58.167 C 52.551 58.167,52.326 58.279,52.273 58.417 C 52.220 58.554,51.995 58.667,51.773 58.667 C 51.551 58.667,51.326 58.779,51.273 58.917 C 51.220 59.054,51.006 59.170,50.797 59.174 C 50.585 59.178,50.236 59.399,50.008 59.674 C 49.783 59.945,49.435 60.167,49.234 60.167 C 49.033 60.167,48.826 60.279,48.773 60.417 C 48.720 60.554,48.539 60.667,48.370 60.667 C 48.201 60.667,47.847 60.892,47.583 61.167 C 47.273 61.490,46.939 61.667,46.635 61.667 L 46.167 61.667 46.167 44.028 C 46.167 34.326,46.217 26.339,46.278 26.278 C 46.462 26.093,46.672 26.152,46.773 26.417 M197.000 29.250 C 197.000 29.806,197.065 30.000,197.250 30.000 C 197.435 30.000,197.500 30.194,197.500 30.750 C 197.500 31.306,197.565 31.500,197.750 31.500 C 197.931 31.500,198.000 31.686,198.000 32.172 C 198.000 32.615,198.085 32.876,198.250 32.940 C 198.402 32.998,198.500 33.250,198.500 33.581 C 198.500 33.881,198.612 34.219,198.750 34.333 C 198.887 34.447,199.000 34.749,199.000 35.003 C 199.000 35.259,199.111 35.507,199.250 35.560 C 199.415 35.624,199.500 35.885,199.500 36.328 C 199.500 36.814,199.569 37.000,199.750 37.000 C 199.931 37.000,200.000 37.186,200.000 37.672 C 200.000 38.115,200.085 38.376,200.250 38.440 C 200.413 38.502,200.500 38.762,200.500 39.190 C 200.500 39.617,200.587 39.877,200.750 39.940 C 200.913 40.002,201.000 40.262,201.000 40.684 C 201.000 41.150,201.071 41.333,201.250 41.333 C 201.424 41.333,201.500 41.508,201.500 41.905 C 201.500 42.219,201.612 42.589,201.750 42.726 C 201.887 42.864,202.000 43.171,202.000 43.410 C 202.000 43.649,202.112 43.887,202.250 43.940 C 202.413 44.002,202.500 44.262,202.500 44.684 C 202.500 45.150,202.571 45.333,202.750 45.333 C 202.917 45.333,203.000 45.500,203.000 45.833 L 203.000 46.333 196.750 46.333 L 190.500 46.333 190.500 45.583 C 190.500 45.028,190.565 44.833,190.750 44.833 C 190.931 44.833,191.000 44.648,191.000 44.167 C 191.000 43.685,191.069 43.500,191.250 43.500 C 191.423 43.500,191.500 43.326,191.500 42.934 C 191.500 42.586,191.596 42.332,191.750 42.273 C 191.915 42.210,192.000 41.949,192.000 41.505 C 192.000 41.019,192.069 40.833,192.250 40.833 C 192.429 40.833,192.500 40.650,192.500 40.184 C 192.500 39.762,192.587 39.502,192.750 39.440 C 192.915 39.376,193.000 39.115,193.000 38.672 C 193.000 38.186,193.069 38.000,193.250 38.000 C 193.435 38.000,193.500 37.806,193.500 37.250 C 193.500 36.694,193.565 36.500,193.750 36.500 C 193.918 36.500,194.000 36.332,194.000 35.988 C 194.000 35.707,194.112 35.364,194.250 35.226 C 194.387 35.089,194.500 34.765,194.500 34.506 C 194.500 34.242,194.610 33.994,194.750 33.940 C 194.915 33.876,195.000 33.615,195.000 33.172 C 195.000 32.686,195.069 32.500,195.250 32.500 C 195.435 32.500,195.500 32.306,195.500 31.750 C 195.500 31.194,195.565 31.000,195.750 31.000 C 195.935 31.000,196.000 30.806,196.000 30.250 C 196.000 29.694,196.065 29.500,196.250 29.500 C 196.417 29.500,196.500 29.333,196.500 29.000 C 196.500 28.667,196.583 28.500,196.750 28.500 C 196.935 28.500,197.000 28.694,197.000 29.250 M308.333 29.250 C 308.333 29.806,308.398 30.000,308.583 30.000 C 308.769 30.000,308.833 30.194,308.833 30.750 C 308.833 31.306,308.898 31.500,309.083 31.500 C 309.269 31.500,309.333 31.694,309.333 32.250 C 309.333 32.806,309.398 33.000,309.583 33.000 C 309.763 33.000,309.833 33.183,309.833 33.649 C 309.833 34.072,309.920 34.331,310.083 34.394 C 310.227 34.449,310.333 34.697,310.333 34.977 C 310.333 35.256,310.440 35.505,310.583 35.560 C 310.748 35.624,310.833 35.885,310.833 36.328 C 310.833 36.814,310.902 37.000,311.083 37.000 C 311.269 37.000,311.333 37.194,311.333 37.750 C 311.333 38.306,311.398 38.500,311.583 38.500 C 311.764 38.500,311.833 38.686,311.833 39.172 C 311.833 39.615,311.918 39.876,312.083 39.940 C 312.246 40.002,312.333 40.262,312.333 40.684 C 312.333 41.150,312.404 41.333,312.583 41.333 C 312.764 41.333,312.833 41.519,312.833 42.005 C 312.833 42.449,312.918 42.710,313.083 42.773 C 313.227 42.828,313.333 43.077,313.333 43.356 C 313.333 43.636,313.440 43.885,313.583 43.940 C 313.746 44.002,313.833 44.262,313.833 44.684 C 313.833 45.150,313.904 45.333,314.083 45.333 C 314.250 45.333,314.333 45.500,314.333 45.833 L 314.333 46.333 308.083 46.333 L 301.833 46.333 301.833 45.583 C 301.833 45.028,301.898 44.833,302.083 44.833 C 302.263 44.833,302.333 44.650,302.333 44.184 C 302.333 43.762,302.420 43.502,302.583 43.440 C 302.721 43.387,302.833 43.149,302.833 42.910 C 302.833 42.671,302.946 42.364,303.083 42.226 C 303.221 42.089,303.333 41.719,303.333 41.405 C 303.333 41.008,303.410 40.833,303.583 40.833 C 303.763 40.833,303.833 40.650,303.833 40.184 C 303.833 39.762,303.920 39.502,304.083 39.440 C 304.248 39.376,304.333 39.115,304.333 38.672 C 304.333 38.186,304.402 38.000,304.583 38.000 C 304.769 38.000,304.833 37.806,304.833 37.250 C 304.833 36.694,304.898 36.500,305.083 36.500 C 305.256 36.500,305.333 36.326,305.333 35.937 C 305.333 35.627,305.446 35.281,305.583 35.167 C 305.721 35.053,305.833 34.751,305.833 34.497 C 305.833 34.241,305.944 33.993,306.083 33.940 C 306.247 33.877,306.333 33.617,306.333 33.190 C 306.333 32.762,306.420 32.502,306.583 32.440 C 306.748 32.376,306.833 32.115,306.833 31.672 C 306.833 31.186,306.902 31.000,307.083 31.000 C 307.269 31.000,307.333 30.806,307.333 30.250 C 307.333 29.694,307.398 29.500,307.583 29.500 C 307.750 29.500,307.833 29.333,307.833 29.000 C 307.833 28.667,307.917 28.500,308.083 28.500 C 308.269 28.500,308.333 28.694,308.333 29.250 M162.333 44.167 C 162.333 44.262,162.833 44.333,163.500 44.333 C 164.426 44.333,164.667 44.385,164.667 44.583 C 164.667 44.750,164.833 44.833,165.167 44.833 C 165.500 44.833,165.667 44.917,165.667 45.083 C 165.667 45.221,165.779 45.333,165.917 45.333 C 166.054 45.333,166.167 45.446,166.167 45.583 C 166.167 45.721,166.279 45.833,166.417 45.833 C 166.554 45.833,166.667 45.946,166.667 46.083 C 166.667 46.221,166.779 46.333,166.917 46.333 C 167.054 46.333,167.167 46.446,167.167 46.583 C 167.167 46.721,167.279 46.833,167.417 46.833 C 167.554 46.833,167.667 46.946,167.667 47.083 C 167.667 47.221,167.779 47.333,167.917 47.333 C 168.083 47.333,168.167 47.500,168.167 47.833 C 168.167 48.167,168.250 48.333,168.417 48.333 C 168.627 48.333,168.667 48.694,168.667 50.583 C 168.667 52.472,168.627 52.833,168.417 52.833 C 168.250 52.833,168.167 53.000,168.167 53.333 C 168.167 53.667,168.083 53.833,167.917 53.833 C 167.779 53.833,167.667 53.907,167.667 53.998 C 167.667 54.215,166.052 55.833,165.836 55.833 C 165.743 55.833,165.667 55.946,165.667 56.083 C 165.667 56.240,165.509 56.333,165.245 56.333 C 165.013 56.333,164.780 56.446,164.727 56.583 C 164.655 56.772,164.350 56.833,163.482 56.833 C 162.572 56.833,162.333 56.885,162.333 57.083 C 162.333 57.300,161.639 57.333,157.083 57.333 L 151.833 57.333 151.833 50.667 L 151.833 44.000 157.083 44.000 C 160.472 44.000,162.333 44.059,162.333 44.167 M237.333 44.167 C 237.333 44.263,237.861 44.333,238.583 44.333 C 239.583 44.333,239.833 44.383,239.833 44.583 C 239.833 44.728,239.984 44.833,240.192 44.833 C 240.546 44.833,242.667 46.839,242.667 47.174 C 242.667 47.261,242.779 47.333,242.917 47.333 C 243.083 47.333,243.167 47.500,243.167 47.833 C 243.167 48.167,243.250 48.333,243.417 48.333 C 243.626 48.333,243.667 48.692,243.667 50.566 C 243.667 52.396,243.622 52.815,243.417 52.894 C 243.279 52.946,243.167 53.145,243.167 53.336 C 243.167 53.527,242.979 53.856,242.750 54.069 C 242.521 54.281,242.333 54.540,242.333 54.644 C 242.333 54.748,242.221 54.833,242.083 54.833 C 241.946 54.833,241.833 54.946,241.833 55.083 C 241.833 55.221,241.721 55.333,241.583 55.333 C 241.446 55.333,241.333 55.446,241.333 55.583 C 241.333 55.721,241.221 55.833,241.083 55.833 C 240.946 55.833,240.833 55.946,240.833 56.083 C 240.833 56.250,240.667 56.333,240.333 56.333 C 240.000 56.333,239.833 56.417,239.833 56.583 C 239.833 56.783,239.583 56.833,238.583 56.833 C 237.583 56.833,237.333 56.883,237.333 57.083 C 237.333 57.300,236.639 57.333,232.083 57.333 L 226.833 57.333 226.833 50.667 L 226.833 44.000 232.083 44.000 C 235.472 44.000,237.333 44.059,237.333 44.167 " stroke="none" fill="#fbfbfb" fill-rule="evenodd"></path><path id="path2" d="M16.051 18.941 C 15.999 19.077,16.041 19.274,16.145 19.378 C 16.248 19.482,16.336 19.833,16.339 20.158 C 16.342 20.484,16.454 20.896,16.589 21.074 C 16.723 21.251,16.833 21.706,16.833 22.083 C 16.833 22.461,16.943 22.915,17.078 23.093 C 17.213 23.271,17.325 23.684,17.328 24.010 C 17.331 24.336,17.443 24.749,17.578 24.926 C 18.178 25.719,17.885 26.448,16.577 27.419 C 16.214 27.689,15.365 28.418,14.691 29.038 C 14.018 29.659,13.374 30.167,13.262 30.167 C 12.944 30.167,12.333 30.900,12.333 31.283 C 12.333 31.779,12.686 31.828,16.263 31.831 C 19.917 31.834,19.814 31.793,20.499 33.500 C 22.125 37.546,22.464 38.315,22.798 38.704 C 23.050 38.999,23.333 38.959,23.333 38.629 C 23.333 38.528,23.283 38.495,23.222 38.556 C 23.057 38.721,22.500 38.160,22.500 37.828 C 22.500 37.670,22.396 37.454,22.268 37.348 C 22.141 37.243,21.998 36.952,21.951 36.703 C 21.837 36.102,21.451 35.095,21.226 34.811 C 21.126 34.686,21.003 34.396,20.953 34.167 C 20.768 33.331,20.385 32.493,20.001 32.085 L 19.609 31.667 16.336 31.667 C 12.556 31.667,12.086 31.546,12.821 30.763 C 13.043 30.527,13.318 30.333,13.432 30.333 C 13.546 30.333,14.237 29.771,14.968 29.083 C 15.699 28.396,16.361 27.830,16.440 27.826 C 17.442 27.779,18.470 25.431,17.750 24.833 C 17.599 24.708,17.500 24.344,17.500 23.917 C 17.500 23.490,17.401 23.125,17.250 23.000 C 17.097 22.873,17.000 22.507,17.000 22.057 C 17.000 21.653,16.896 21.155,16.769 20.952 C 16.516 20.549,16.300 19.000,16.496 19.000 C 16.563 19.000,17.131 19.337,17.759 19.750 C 18.387 20.162,18.985 20.500,19.088 20.500 C 19.191 20.500,19.451 20.688,19.667 20.917 C 19.882 21.146,20.129 21.333,20.215 21.333 C 20.301 21.333,20.880 21.671,21.500 22.083 C 22.807 22.952,22.963 22.977,23.568 22.417 C 23.815 22.188,24.077 22.000,24.150 22.000 C 24.223 22.000,24.594 21.775,24.974 21.500 C 25.353 21.225,25.728 21.000,25.806 21.000 C 25.884 21.000,26.166 20.809,26.432 20.575 C 26.699 20.340,27.142 20.041,27.417 19.908 C 27.692 19.776,28.142 19.523,28.417 19.346 C 28.692 19.169,28.973 19.019,29.042 19.012 C 29.225 18.994,29.195 20.296,29.010 20.411 C 28.923 20.464,28.807 20.862,28.751 21.296 C 28.695 21.729,28.578 22.214,28.491 22.373 C 28.243 22.828,28.307 23.099,28.578 22.740 C 28.713 22.562,28.826 22.154,28.829 21.833 C 28.833 21.512,28.947 21.035,29.084 20.773 C 29.354 20.256,29.428 18.667,29.183 18.667 C 29.101 18.667,28.643 18.929,28.167 19.250 C 27.690 19.571,27.206 19.833,27.092 19.833 C 26.978 19.833,26.744 19.990,26.571 20.180 C 26.398 20.371,26.030 20.634,25.753 20.765 C 25.248 21.004,24.464 21.520,23.640 22.157 C 23.043 22.619,22.779 22.592,21.714 21.958 C 21.214 21.660,20.678 21.342,20.524 21.250 C 20.369 21.158,20.008 20.915,19.721 20.708 C 19.434 20.502,19.158 20.333,19.108 20.333 C 19.058 20.333,18.683 20.108,18.276 19.833 C 17.868 19.558,17.461 19.333,17.371 19.333 C 17.281 19.333,17.121 19.229,17.015 19.101 C 16.720 18.746,16.161 18.653,16.051 18.941 M28.193 23.675 C 28.179 24.000,28.076 24.358,27.964 24.469 C 27.310 25.123,28.023 27.327,28.890 27.333 C 28.967 27.333,29.403 27.698,29.858 28.143 C 30.313 28.589,30.887 29.054,31.134 29.176 C 31.602 29.408,33.167 30.823,33.167 31.013 C 33.167 31.074,32.607 31.159,31.923 31.203 C 31.239 31.247,30.577 31.367,30.454 31.469 C 30.320 31.580,29.354 31.675,28.086 31.703 L 25.943 31.750 25.596 32.427 C 25.406 32.800,25.153 33.362,25.034 33.677 C 24.916 33.992,24.710 34.462,24.576 34.722 C 24.443 34.981,24.339 35.356,24.345 35.555 C 24.355 35.865,24.915 34.700,25.277 33.616 C 25.332 33.451,25.536 33.001,25.730 32.616 L 26.083 31.917 28.333 31.808 C 30.596 31.698,33.207 31.352,33.425 31.132 C 33.607 30.948,31.782 29.349,28.792 27.072 C 27.888 26.384,27.681 25.536,28.180 24.571 C 28.278 24.380,28.328 23.968,28.289 23.654 L 28.220 23.083 28.193 23.675 M46.243 26.542 C 46.200 26.656,46.183 34.550,46.207 44.083 L 46.250 61.417 46.623 61.470 C 46.861 61.503,47.146 61.359,47.414 61.070 C 47.981 60.459,47.947 60.329,47.366 60.885 C 46.256 61.949,46.333 63.214,46.333 43.931 C 46.333 30.164,46.377 26.510,46.542 26.444 C 46.705 26.378,46.704 26.357,46.536 26.346 C 46.419 26.339,46.287 26.427,46.243 26.542 M46.765 26.857 C 46.813 26.936,47.031 27.000,47.248 27.000 C 47.498 27.000,47.776 27.185,48.000 27.500 C 48.196 27.775,48.422 28.000,48.503 28.000 C 48.837 28.000,47.546 26.865,47.130 26.793 C 46.881 26.750,46.716 26.779,46.765 26.857 M49.041 28.000 C 49.178 28.229,49.431 28.443,49.603 28.474 C 49.776 28.506,50.152 28.756,50.439 29.030 C 50.805 29.379,51.080 29.506,51.356 29.453 C 51.744 29.380,51.743 29.378,51.326 29.356 C 51.078 29.343,50.731 29.128,50.492 28.840 C 50.267 28.569,49.924 28.344,49.729 28.340 C 49.534 28.337,49.243 28.165,49.083 27.958 C 48.792 27.583,48.792 27.583,49.041 28.000 M52.333 30.079 C 52.714 30.299,52.952 30.413,53.417 30.598 C 53.583 30.665,53.792 30.778,54.417 31.141 C 54.600 31.248,54.862 31.378,55.000 31.430 C 55.137 31.482,55.400 31.606,55.583 31.706 C 55.882 31.868,55.893 31.858,55.688 31.610 C 55.562 31.458,55.328 31.333,55.167 31.333 C 55.006 31.333,54.781 31.221,54.667 31.083 C 54.553 30.946,54.328 30.833,54.167 30.833 C 54.006 30.833,53.781 30.721,53.667 30.583 C 53.553 30.446,53.328 30.333,53.167 30.333 C 53.006 30.333,52.781 30.221,52.667 30.083 C 52.553 29.946,52.337 29.834,52.188 29.836 C 52.003 29.837,52.049 29.915,52.333 30.079 M58.583 33.667 C 58.941 34.033,59.272 34.333,59.318 34.333 C 59.363 34.333,59.108 34.033,58.750 33.667 C 58.392 33.300,58.062 33.000,58.016 33.000 C 57.970 33.000,58.225 33.300,58.583 33.667 M61.667 35.250 C 61.896 35.525,62.102 35.781,62.125 35.819 C 62.148 35.858,62.203 35.852,62.248 35.807 C 62.293 35.762,62.087 35.506,61.791 35.238 L 61.251 34.750 61.667 35.250 M24.031 36.203 C 23.922 36.311,23.842 36.591,23.853 36.825 C 23.868 37.171,23.887 37.188,23.954 36.917 C 23.999 36.733,24.113 36.488,24.208 36.371 C 24.435 36.091,24.285 35.949,24.031 36.203 M63.833 36.361 C 63.833 36.515,64.681 37.375,64.757 37.298 C 64.797 37.258,64.606 37.011,64.332 36.748 C 64.058 36.486,63.833 36.312,63.833 36.361 M65.479 37.542 C 65.605 37.702,65.904 37.823,66.145 37.811 L 66.583 37.788 66.167 37.711 C 65.938 37.669,65.637 37.548,65.500 37.442 C 65.282 37.275,65.280 37.288,65.479 37.542 M23.531 37.703 C 23.422 37.811,23.333 38.014,23.333 38.154 C 23.333 38.328,23.417 38.288,23.600 38.026 C 23.893 37.609,23.845 37.388,23.531 37.703 M66.833 37.861 C 66.833 38.015,67.681 38.875,67.757 38.798 C 67.797 38.758,67.606 38.511,67.332 38.248 C 67.058 37.986,66.833 37.812,66.833 37.861 M68.098 39.191 C 68.147 39.269,68.334 39.333,68.515 39.333 C 68.696 39.333,68.887 39.446,68.940 39.583 C 68.992 39.721,69.200 39.833,69.401 39.833 C 69.602 39.833,69.949 40.055,70.174 40.326 C 70.402 40.601,70.752 40.822,70.964 40.826 C 71.173 40.830,71.387 40.946,71.440 41.083 C 71.492 41.221,71.717 41.333,71.940 41.333 C 72.162 41.333,72.387 41.446,72.440 41.583 C 72.492 41.721,72.700 41.833,72.901 41.833 C 73.102 41.833,73.449 42.055,73.674 42.326 C 73.899 42.597,74.237 42.822,74.424 42.826 C 74.612 42.830,74.950 43.055,75.174 43.326 C 75.418 43.620,75.749 43.822,75.991 43.826 C 76.394 43.833,76.393 43.839,75.833 44.417 C 75.522 44.737,75.142 45.000,74.988 45.000 C 74.834 45.000,74.614 45.112,74.500 45.250 C 74.386 45.387,74.165 45.500,74.009 45.500 C 73.853 45.500,73.543 45.706,73.321 45.958 L 72.917 46.417 73.344 46.042 C 73.579 45.835,73.889 45.667,74.032 45.667 C 74.175 45.667,74.386 45.554,74.500 45.417 C 74.614 45.279,74.833 45.167,74.987 45.167 C 75.319 45.167,76.557 43.946,76.392 43.781 C 76.329 43.718,76.154 43.667,76.003 43.667 C 75.852 43.667,75.513 43.442,75.250 43.167 C 74.987 42.892,74.649 42.667,74.500 42.667 C 74.351 42.667,74.013 42.442,73.750 42.167 C 73.487 41.892,73.144 41.667,72.989 41.667 C 72.834 41.667,72.614 41.554,72.500 41.417 C 72.386 41.279,72.161 41.167,72.000 41.167 C 71.839 41.167,71.614 41.054,71.500 40.917 C 71.386 40.779,71.166 40.667,71.011 40.667 C 70.856 40.667,70.513 40.442,70.250 40.167 C 69.987 39.892,69.644 39.667,69.489 39.667 C 69.334 39.667,69.121 39.562,69.015 39.435 C 68.807 39.184,67.954 38.957,68.098 39.191 M72.102 46.637 C 72.056 46.712,72.239 46.741,72.509 46.701 C 72.779 46.661,73.000 46.600,73.000 46.564 C 73.000 46.437,72.185 46.503,72.102 46.637 M69.111 48.111 C 69.050 48.172,69.001 48.303,69.003 48.403 C 69.004 48.525,69.045 48.522,69.128 48.394 C 69.195 48.290,69.400 48.168,69.583 48.122 C 69.906 48.041,69.905 48.038,69.569 48.019 C 69.378 48.009,69.172 48.050,69.111 48.111 M68.583 48.952 C 68.073 49.075,67.916 49.303,68.406 49.209 C 68.644 49.164,68.879 49.061,68.929 48.980 C 68.979 48.899,68.996 48.842,68.968 48.853 C 68.940 48.863,68.767 48.908,68.583 48.952 M59.560 53.750 C 59.508 53.887,59.289 54.000,59.075 54.000 C 58.861 54.000,58.647 54.064,58.598 54.143 C 58.460 54.367,59.397 54.153,59.587 53.917 C 59.681 53.801,59.906 53.668,60.087 53.622 C 60.379 53.548,60.373 53.536,60.036 53.519 C 59.827 53.509,59.613 53.612,59.560 53.750 M57.875 54.901 C 57.669 55.119,57.500 55.354,57.500 55.423 C 57.500 55.492,57.688 55.346,57.917 55.099 C 58.288 54.699,58.416 54.494,58.292 54.503 C 58.269 54.504,58.081 54.684,57.875 54.901 " stroke="none" fill="#646464" fill-rule="evenodd"></path><path id="path3" d="M28.167 18.830 C 27.479 19.275,26.467 19.921,25.917 20.267 C 25.367 20.613,24.486 21.182,23.960 21.531 C 22.723 22.353,22.959 22.429,19.116 19.969 C 16.115 18.047,15.206 17.890,15.824 19.400 C 15.940 19.684,16.098 20.217,16.174 20.583 C 16.350 21.437,16.878 23.476,17.342 25.101 C 17.600 26.005,17.468 26.346,16.622 26.960 C 16.234 27.241,15.432 27.934,14.840 28.499 C 14.248 29.065,13.568 29.629,13.328 29.753 C 12.848 30.001,11.667 31.240,11.667 31.495 C 11.667 31.890,12.475 32.000,15.447 32.009 C 19.800 32.022,19.501 31.861,20.690 34.833 C 21.222 36.162,21.732 37.400,21.824 37.583 C 21.916 37.767,22.134 38.292,22.308 38.750 C 22.798 40.036,23.157 39.964,23.731 38.465 C 26.413 31.464,25.989 32.005,28.805 31.988 C 29.875 31.981,31.162 31.909,31.667 31.827 C 32.171 31.745,32.940 31.628,33.375 31.566 C 34.078 31.466,34.629 30.833,34.013 30.833 C 33.929 30.833,33.328 30.346,32.679 29.750 C 32.030 29.154,31.433 28.667,31.353 28.667 C 31.274 28.667,30.664 28.179,30.000 27.583 C 29.336 26.988,28.735 26.500,28.666 26.500 C 28.295 26.500,28.145 25.520,28.396 24.726 C 28.536 24.281,28.772 23.429,28.920 22.833 C 29.068 22.238,29.296 21.368,29.428 20.902 C 29.559 20.436,29.667 19.853,29.667 19.608 C 29.667 19.363,29.754 19.023,29.860 18.853 C 30.495 17.836,29.720 17.826,28.167 18.830 M29.486 19.517 C 29.420 20.077,29.283 20.617,29.183 20.717 C 29.082 20.818,28.997 21.166,28.994 21.492 C 28.991 21.817,28.881 22.271,28.750 22.500 C 28.619 22.729,28.506 23.179,28.500 23.500 C 28.494 23.821,28.381 24.271,28.250 24.500 C 27.772 25.336,27.925 26.261,28.625 26.777 C 28.969 27.030,29.639 27.596,30.115 28.035 C 30.591 28.474,31.052 28.833,31.139 28.833 C 31.227 28.833,31.662 29.179,32.108 29.601 C 32.553 30.023,33.098 30.513,33.320 30.689 C 34.067 31.282,32.536 31.644,28.750 31.770 C 26.120 31.858,26.109 31.861,25.756 32.705 C 25.592 33.096,25.362 33.642,25.244 33.917 C 25.127 34.192,24.905 34.754,24.752 35.167 C 24.599 35.579,24.367 36.129,24.237 36.389 C 24.107 36.648,24.000 37.033,24.000 37.243 C 24.000 37.454,23.887 37.719,23.750 37.833 C 23.613 37.947,23.500 38.149,23.500 38.281 C 23.500 39.995,22.463 38.821,21.411 35.917 C 21.245 35.458,21.059 35.008,20.998 34.917 C 20.937 34.825,20.716 34.262,20.506 33.667 C 19.860 31.832,19.864 31.834,16.116 31.831 C 11.912 31.828,11.407 31.645,12.708 30.596 C 13.006 30.356,13.775 29.710,14.417 29.161 C 15.058 28.611,16.052 27.780,16.626 27.315 C 17.792 26.367,17.989 25.930,17.599 25.149 C 17.453 24.855,17.331 24.383,17.328 24.099 C 17.325 23.816,17.213 23.438,17.078 23.260 C 16.943 23.082,16.833 22.681,16.833 22.368 C 16.833 22.056,16.728 21.564,16.599 21.275 C 16.470 20.986,16.321 20.487,16.267 20.167 C 16.213 19.846,16.122 19.377,16.065 19.125 C 15.935 18.551,16.400 18.492,17.045 19.000 C 17.279 19.183,17.521 19.333,17.584 19.333 C 17.647 19.333,17.935 19.502,18.224 19.708 C 18.513 19.914,18.955 20.195,19.205 20.333 C 19.456 20.471,20.338 21.015,21.166 21.542 C 22.985 22.700,22.722 22.697,24.348 21.583 C 25.084 21.079,25.738 20.665,25.802 20.662 C 25.865 20.659,26.211 20.434,26.571 20.162 C 26.931 19.890,27.293 19.667,27.374 19.667 C 27.456 19.667,27.763 19.483,28.058 19.258 C 28.526 18.901,29.222 18.543,29.511 18.511 C 29.563 18.505,29.552 18.958,29.486 19.517 M46.251 26.331 C 46.195 26.423,46.255 26.456,46.387 26.405 C 46.517 26.355,46.668 26.431,46.723 26.574 C 46.778 26.717,47.010 26.833,47.240 26.833 C 47.510 26.833,47.787 27.010,48.026 27.333 C 48.230 27.608,48.459 27.833,48.535 27.833 C 48.612 27.833,48.436 27.571,48.144 27.250 C 47.840 26.916,47.454 26.667,47.241 26.667 C 47.036 26.667,46.826 26.554,46.773 26.417 C 46.663 26.131,46.401 26.088,46.251 26.331 M49.093 27.875 C 49.246 28.127,49.517 28.333,49.695 28.333 C 49.873 28.333,50.221 28.549,50.468 28.812 C 50.868 29.239,51.955 29.666,51.735 29.309 C 51.687 29.231,51.483 29.163,51.282 29.160 C 51.081 29.156,50.733 28.931,50.508 28.660 C 50.283 28.388,49.957 28.167,49.785 28.167 C 49.612 28.167,49.322 27.998,49.142 27.792 L 48.814 27.417 49.093 27.875 M52.333 29.788 C 52.471 29.840,52.643 29.984,52.717 30.108 C 52.790 30.232,53.026 30.333,53.240 30.333 C 53.455 30.333,53.674 30.446,53.727 30.583 C 53.780 30.721,54.005 30.833,54.227 30.833 C 54.449 30.833,54.674 30.946,54.727 31.083 C 54.780 31.221,54.979 31.333,55.171 31.333 C 55.362 31.333,55.721 31.549,55.968 31.812 C 56.368 32.239,57.455 32.666,57.235 32.309 C 57.187 32.231,56.983 32.163,56.782 32.160 C 56.581 32.156,56.233 31.931,56.008 31.660 C 55.783 31.388,55.435 31.167,55.234 31.167 C 55.033 31.167,54.826 31.054,54.773 30.917 C 54.720 30.779,54.495 30.667,54.273 30.667 C 54.051 30.667,53.826 30.554,53.773 30.417 C 53.720 30.279,53.495 30.167,53.273 30.167 C 53.051 30.167,52.826 30.054,52.773 29.917 C 52.720 29.779,52.544 29.673,52.380 29.680 C 52.147 29.690,52.137 29.713,52.333 29.788 M57.812 32.784 C 57.938 32.834,58.331 33.174,58.687 33.541 C 59.042 33.907,59.333 34.151,59.333 34.084 C 59.333 33.857,58.042 32.666,57.811 32.680 C 57.619 32.691,57.619 32.707,57.812 32.784 M68.608 39.166 C 68.805 39.245,69.015 39.390,69.076 39.488 C 69.137 39.586,69.318 39.667,69.479 39.667 C 69.639 39.667,69.987 39.892,70.250 40.167 C 70.513 40.442,70.856 40.667,71.011 40.667 C 71.166 40.667,71.386 40.779,71.500 40.917 C 71.614 41.054,71.839 41.167,72.000 41.167 C 72.161 41.167,72.386 41.279,72.500 41.417 C 72.614 41.554,72.834 41.667,72.989 41.667 C 73.144 41.667,73.487 41.892,73.750 42.167 C 74.013 42.442,74.351 42.667,74.500 42.667 C 74.649 42.667,74.987 42.892,75.250 43.167 C 75.513 43.442,75.861 43.667,76.021 43.667 C 76.182 43.667,76.357 43.737,76.411 43.824 C 76.554 44.055,75.377 45.167,74.989 45.167 C 74.806 45.167,74.613 45.279,74.560 45.417 C 74.508 45.554,74.300 45.667,74.099 45.667 C 73.898 45.667,73.551 45.888,73.326 46.160 C 73.101 46.431,72.752 46.656,72.550 46.660 C 72.348 46.663,72.123 46.772,72.050 46.901 C 71.977 47.029,71.729 47.169,71.500 47.211 C 71.095 47.286,71.096 47.289,71.547 47.311 C 71.822 47.324,72.050 47.232,72.106 47.083 C 72.159 46.946,72.367 46.833,72.567 46.833 C 72.768 46.833,73.116 46.612,73.341 46.340 C 73.569 46.066,73.918 45.844,74.130 45.840 C 74.339 45.837,74.554 45.721,74.606 45.583 C 74.659 45.446,74.853 45.333,75.037 45.333 C 75.488 45.333,76.733 44.079,76.607 43.751 C 76.554 43.613,76.361 43.500,76.178 43.500 C 75.995 43.500,75.615 43.275,75.333 43.000 C 75.052 42.725,74.706 42.500,74.565 42.500 C 74.423 42.500,74.083 42.275,73.808 42.000 C 73.533 41.725,73.196 41.500,73.059 41.500 C 72.922 41.500,72.697 41.387,72.560 41.250 C 72.422 41.112,72.165 41.000,71.988 41.000 C 71.811 41.000,71.667 40.926,71.667 40.837 C 71.667 40.747,71.461 40.621,71.209 40.558 C 70.957 40.495,70.539 40.231,70.279 39.972 C 70.020 39.712,69.696 39.500,69.559 39.500 C 69.422 39.500,69.197 39.387,69.060 39.250 C 68.922 39.112,68.684 39.005,68.530 39.011 C 68.321 39.018,68.341 39.058,68.608 39.166 M70.583 47.667 L 70.083 47.794 70.532 47.814 C 70.779 47.824,71.027 47.758,71.083 47.667 C 71.140 47.575,71.163 47.509,71.135 47.520 C 71.107 47.531,70.858 47.597,70.583 47.667 M69.750 48.119 C 69.240 48.242,69.083 48.470,69.573 48.376 C 69.811 48.331,70.046 48.227,70.096 48.147 C 70.146 48.066,70.163 48.009,70.135 48.019 C 70.107 48.030,69.933 48.075,69.750 48.119 M68.833 48.998 C 68.696 49.077,68.452 49.183,68.292 49.233 C 68.131 49.282,68.001 49.419,68.003 49.536 C 68.004 49.682,68.044 49.692,68.128 49.567 C 68.195 49.467,68.456 49.334,68.708 49.272 C 68.960 49.211,69.167 49.087,69.167 48.997 C 69.167 48.807,69.163 48.807,68.833 48.998 M67.111 49.778 C 67.050 49.839,67.001 49.970,67.003 50.069 C 67.004 50.192,67.045 50.189,67.128 50.061 C 67.195 49.957,67.400 49.834,67.583 49.789 C 67.906 49.708,67.905 49.705,67.569 49.686 C 67.378 49.675,67.172 49.717,67.111 49.778 M64.097 51.440 C 64.019 51.645,64.046 51.672,64.205 51.546 C 64.321 51.454,64.529 51.336,64.667 51.286 C 64.837 51.222,64.803 51.189,64.559 51.180 C 64.363 51.173,64.155 51.290,64.097 51.440 M62.606 52.417 C 62.554 52.554,62.302 52.677,62.047 52.689 C 61.634 52.710,61.626 52.720,61.972 52.786 C 62.186 52.827,62.486 52.751,62.639 52.618 C 62.792 52.486,63.029 52.335,63.167 52.285 C 63.337 52.222,63.303 52.189,63.059 52.180 C 62.863 52.173,62.659 52.279,62.606 52.417 M61.083 53.167 L 60.583 53.294 61.032 53.314 C 61.279 53.324,61.527 53.258,61.583 53.167 C 61.640 53.075,61.663 53.009,61.635 53.020 C 61.607 53.031,61.358 53.097,61.083 53.167 M60.250 53.620 C 60.067 53.665,59.804 53.796,59.667 53.912 C 59.529 54.028,59.304 54.165,59.167 54.215 C 58.958 54.292,58.961 54.309,59.188 54.320 C 59.337 54.327,59.553 54.221,59.667 54.083 C 59.781 53.946,60.011 53.833,60.177 53.833 C 60.344 53.833,60.527 53.758,60.583 53.667 C 60.640 53.575,60.663 53.509,60.635 53.519 C 60.607 53.530,60.433 53.575,60.250 53.620 M57.848 55.230 L 57.445 55.750 57.922 55.297 C 58.184 55.047,58.365 54.814,58.324 54.777 C 58.284 54.740,58.069 54.944,57.848 55.230 M49.250 60.000 L 48.750 60.127 49.198 60.147 C 49.445 60.158,49.693 60.092,49.750 60.000 C 49.807 59.908,49.830 59.842,49.802 59.853 C 49.773 59.864,49.525 59.930,49.250 60.000 M47.573 61.012 C 47.204 61.399,46.971 61.508,46.625 61.458 C 46.373 61.421,46.167 61.453,46.167 61.529 C 46.167 61.916,47.140 61.626,47.667 61.083 C 47.978 60.762,48.194 60.500,48.147 60.500 C 48.101 60.500,47.842 60.730,47.573 61.012 " stroke="none" fill="#8c8c8c" fill-rule="evenodd"></path><path id="path4" d="M29.353 19.375 C 29.373 20.284,29.438 20.197,29.540 19.125 C 29.573 18.781,29.540 18.500,29.467 18.500 C 29.393 18.500,29.342 18.894,29.353 19.375 M28.872 21.667 C 28.872 21.988,28.906 22.119,28.948 21.958 C 28.990 21.798,28.990 21.535,28.948 21.375 C 28.906 21.215,28.872 21.346,28.872 21.667 M28.375 23.583 C 28.377 23.950,28.411 24.080,28.451 23.873 C 28.491 23.666,28.490 23.366,28.448 23.206 C 28.406 23.047,28.374 23.217,28.375 23.583 M29.667 27.750 C 29.978 28.071,30.270 28.333,30.315 28.333 C 30.361 28.333,30.144 28.071,29.833 27.750 C 29.522 27.429,29.230 27.167,29.185 27.167 C 29.139 27.167,29.356 27.429,29.667 27.750 M60.542 34.782 C 60.702 34.823,60.965 34.823,61.125 34.782 C 61.285 34.740,61.154 34.705,60.833 34.705 C 60.512 34.705,60.381 34.740,60.542 34.782 " stroke="none" fill="#7c7c7c" fill-rule="evenodd"></path></g></svg>