<?xml version="1.0" encoding="UTF-8"?>
<!DOCTYPE svg PUBLIC "-//W3C//DTD SVG 1.1//EN" "http://www.w3.org/Graphics/SVG/1.1/DTD/svg11.dtd">
<svg xmlns="http://www.w3.org/2000/svg" version="1.1" width="310px" height="310px" style="shape-rendering:geometricPrecision; text-rendering:geometricPrecision; image-rendering:optimizeQuality; fill-rule:evenodd; clip-rule:evenodd" xmlns:xlink="http://www.w3.org/1999/xlink">
<g><path style="opacity:0.989" fill="#1c73e8" d="M 137.5,14.5 C 197.409,10.5378 243.575,33.5378 276,83.5C 295.694,119.021 300.027,156.354 289,195.5C 269.439,251.7 230.273,284.533 171.5,294C 111.569,298.45 65.4023,275.617 33,225.5C 13.3059,189.979 8.97254,152.646 20,113.5C 39.7936,57.3725 78.9602,24.3725 137.5,14.5 Z"/></g>
<g><path style="opacity:1" fill="#f9fafe" d="M 174.5,75.5 C 176.515,76.9238 178.848,77.5905 181.5,77.5C 197.532,83.1153 210.699,92.782 221,106.5C 223.78,111.062 226.28,115.728 228.5,120.5C 229.025,124.533 230.358,128.2 232.5,131.5C 236.127,145.612 236.46,159.945 233.5,174.5C 232.076,176.515 231.41,178.848 231.5,181.5C 219.535,211.624 197.535,229.458 165.5,235C 153.857,236.214 142.524,235.381 131.5,232.5C 128.2,230.358 124.533,229.025 120.5,228.5C 106.556,222.595 95.3891,213.261 87,200.5C 83.2584,194.35 80.0917,188.017 77.5,181.5C 77.5905,178.848 76.9238,176.515 75.5,174.5C 72.5395,159.945 72.8729,145.612 76.5,131.5C 78.6418,128.2 79.9751,124.533 80.5,120.5C 98.0495,85.7182 126.383,70.2182 165.5,74C 168.478,74.696 171.478,75.196 174.5,75.5 Z"/></g>
<g><path style="opacity:1" fill="#98aeef" d="M 174.5,75.5 C 177.152,75.4095 179.485,76.0762 181.5,77.5C 178.848,77.5905 176.515,76.9238 174.5,75.5 Z"/></g>
<g><path style="opacity:1" fill="#1d73e8" d="M 172.5,89.5 C 174.936,90.871 177.603,91.871 180.5,92.5C 198.255,99.921 210.588,112.588 217.5,130.5C 217.69,133.855 218.69,136.855 220.5,139.5C 222.023,150.563 221.689,161.563 219.5,172.5C 218.129,174.936 217.129,177.603 216.5,180.5C 200.852,212.495 175.185,225.828 139.5,220.5C 136.855,218.69 133.855,217.69 130.5,217.5C 112.588,210.588 99.921,198.255 92.5,180.5C 91.871,177.603 90.871,174.936 89.5,172.5C 87.3105,161.563 86.9772,150.563 88.5,139.5C 90.3104,136.855 91.3104,133.855 91.5,130.5C 99.2304,111.103 112.897,97.7698 132.5,90.5C 135.152,90.5905 137.485,89.9238 139.5,88.5C 150.563,86.9772 161.563,87.3105 172.5,89.5 Z"/></g>
<g><path style="opacity:1" fill="#95acef" d="M 139.5,88.5 C 137.485,89.9238 135.152,90.5905 132.5,90.5C 134.515,89.0762 136.848,88.4095 139.5,88.5 Z"/></g>
<g><path style="opacity:1" fill="#a4b6f1" d="M 172.5,89.5 C 175.716,89.3455 178.383,90.3455 180.5,92.5C 177.603,91.871 174.936,90.871 172.5,89.5 Z"/></g>
<g><path style="opacity:1" fill="#fefefe" d="M 127.5,109.5 C 151.66,120.247 175.327,132.08 198.5,145C 203.977,149.049 204.81,153.882 201,159.5C 178.07,172.049 154.903,184.216 131.5,196C 126.262,197.035 122.429,195.202 120,190.5C 119.333,165.833 119.333,141.167 120,116.5C 121.211,112.666 123.711,110.333 127.5,109.5 Z"/></g>
<g><path style="opacity:1" fill="#c1ccf5" d="M 228.5,120.5 C 231,123.66 232.333,127.327 232.5,131.5C 230.358,128.2 229.025,124.533 228.5,120.5 Z"/></g>
<g><path style="opacity:1" fill="#becaf4" d="M 80.5,120.5 C 79.9751,124.533 78.6418,128.2 76.5,131.5C 76.6667,127.327 78,123.66 80.5,120.5 Z"/></g>
<g><path style="opacity:1" fill="#8aa4ee" d="M 91.5,130.5 C 91.3104,133.855 90.3104,136.855 88.5,139.5C 88.5275,136.084 89.5275,133.084 91.5,130.5 Z"/></g>
<g><path style="opacity:1" fill="#8aa4ee" d="M 217.5,130.5 C 219.472,133.084 220.472,136.084 220.5,139.5C 218.69,136.855 217.69,133.855 217.5,130.5 Z"/></g>
<g><path style="opacity:1" fill="#a4b6f1" d="M 89.5,172.5 C 90.871,174.936 91.871,177.603 92.5,180.5C 90.3455,178.383 89.3455,175.716 89.5,172.5 Z"/></g>
<g><path style="opacity:1" fill="#a4b6f1" d="M 219.5,172.5 C 219.655,175.716 218.655,178.383 216.5,180.5C 217.129,177.603 218.129,174.936 219.5,172.5 Z"/></g>
<g><path style="opacity:1" fill="#98aeef" d="M 75.5,174.5 C 76.9238,176.515 77.5905,178.848 77.5,181.5C 76.0762,179.485 75.4095,177.152 75.5,174.5 Z"/></g>
<g><path style="opacity:1" fill="#98aeef" d="M 233.5,174.5 C 233.59,177.152 232.924,179.485 231.5,181.5C 231.41,178.848 232.076,176.515 233.5,174.5 Z"/></g>
<g><path style="opacity:1" fill="#8aa4ee" d="M 130.5,217.5 C 133.855,217.69 136.855,218.69 139.5,220.5C 136.084,220.472 133.084,219.472 130.5,217.5 Z"/></g>
<g><path style="opacity:1" fill="#c1ccf5" d="M 120.5,228.5 C 124.533,229.025 128.2,230.358 131.5,232.5C 127.327,232.333 123.66,231 120.5,228.5 Z"/></g>
</svg>
