<?xml version="1.0" encoding="UTF-8"?>
<!DOCTYPE svg PUBLIC "-//W3C//DTD SVG 1.1//EN" "http://www.w3.org/Graphics/SVG/1.1/DTD/svg11.dtd">
<svg xmlns="http://www.w3.org/2000/svg" version="1.1" width="570px" height="178px" style="shape-rendering:geometricPrecision; text-rendering:geometricPrecision; image-rendering:optimizeQuality; fill-rule:evenodd; clip-rule:evenodd" xmlns:xlink="http://www.w3.org/1999/xlink">
<g><path style="opacity:0.987" fill="#1a72e7" d="M 74.5,-0.5 C 84.1667,-0.5 93.8333,-0.5 103.5,-0.5C 151.092,10.096 176.425,39.7627 179.5,88.5C 177.614,129.416 158.28,157.749 121.5,173.5C 120.197,172.282 119.197,172.615 118.5,174.5C 117.097,174.64 115.597,174.64 114,174.5C 113.692,175.308 113.192,175.975 112.5,176.5C 109.875,174.896 108.875,175.23 109.5,177.5C 108.833,177.5 108.167,177.5 107.5,177.5C 106.167,176.167 104.833,176.167 103.5,177.5C 94.5,177.5 85.5,177.5 76.5,177.5C 75.0813,176.549 73.4147,176.216 71.5,176.5C 61.2794,175.364 51.6127,171.864 42.5,166C 41.8742,165.25 41.3742,164.416 41,163.5C 39.927,164.28 38.7604,164.113 37.5,163C 37.8333,162.667 38.1667,162.333 38.5,162C 37.3066,160.905 35.9733,160.072 34.5,159.5C 25.5842,152.149 18.0842,144.149 12,135.5C 11.0857,133.336 9.919,131.336 8.5,129.5C 9.6087,128.035 9.1087,127.035 7,126.5C 6.44269,124.385 5.60936,122.385 4.5,120.5C 4.5,118.833 4.5,117.167 4.5,115.5C 3.83333,115.167 3.16667,114.833 2.5,114.5C 3.87536,112.837 3.54202,111.503 1.5,110.5C 2.32557,109.549 2.49224,108.549 2,107.5C 1.34569,108.696 0.845686,108.696 0.5,107.5C 1.52022,105.568 1.68688,103.568 1,101.5C 0.617425,102.056 0.117425,102.389 -0.5,102.5C -0.5,101.833 -0.5,101.167 -0.5,100.5C 0.833333,92.8333 0.833333,85.1667 -0.5,77.5C -0.5,76.5 -0.5,75.5 -0.5,74.5C 0.117425,74.6107 0.617425,74.944 1,75.5C 1.57575,73.6226 1.40909,71.7892 0.5,70C 1.8205,67.1766 2.8205,64.6766 3.5,62.5C 4.79032,55.1828 7.62366,48.1828 12,41.5C 12.7504,40.8742 13.5838,40.3742 14.5,40C 14.1667,39.6667 13.8333,39.3333 13.5,39C 20.8022,30.6968 28.4689,22.6968 36.5,15C 48.2243,7.29734 60.891,2.13068 74.5,-0.5 Z"/></g>
<g><path style="opacity:0.922" fill="#fefffe" d="M 475.5,36.5 C 486.989,35.1551 491.823,40.1551 490,51.5C 489.535,52.9308 488.701,54.0975 487.5,55C 476.279,58.9874 470.445,55.1541 470,43.5C 470.938,40.4025 472.772,38.0691 475.5,36.5 Z"/></g>
<g><path style="opacity:1" fill="#fafafd" d="M 79.5,37.5 C 111.23,34.5987 131.73,48.2653 141,78.5C 144.386,110.25 130.886,130.75 100.5,140C 68.7496,143.386 48.2496,129.886 39,99.5C 35.7336,67.6642 49.2336,46.9976 79.5,37.5 Z"/></g>
<g><path style="opacity:0.935" fill="#fefffe" d="M 206.5,37.5 C 211.511,37.3341 216.511,37.5007 221.5,38C 234.297,58.423 246.464,79.2564 258,100.5C 270.041,79.5846 282.207,58.7513 294.5,38C 299.751,37.1963 304.918,37.363 310,38.5C 310.5,73.8318 310.667,109.165 310.5,144.5C 305.238,144.805 300.072,144.471 295,143.5C 294.667,118.5 294.333,93.5 294,68.5C 284.333,85.5 274.667,102.5 265,119.5C 263.178,121.045 261.011,121.712 258.5,121.5C 256.571,121.46 254.738,121.127 253,120.5C 242.667,102.5 232.333,84.5 222,66.5C 222.434,92.4745 222.6,118.475 222.5,144.5C 217.238,144.805 212.072,144.471 207,143.5C 206.5,108.168 206.333,72.8349 206.5,37.5 Z"/></g>
<g><path style="opacity:0.008" fill="#fefffe" d="M 326.5,38.5 C 327.833,39.1667 327.833,39.1667 326.5,38.5 Z"/></g>
<g><path style="opacity:0.014" fill="#fefffe" d="M 326.5,39.5 C 326.672,40.4916 326.338,41.1583 325.5,41.5C 325.328,40.5084 325.662,39.8417 326.5,39.5 Z"/></g>
<g><path style="opacity:0.029" fill="#fefffe" d="M 325.5,41.5 C 325.631,42.2389 325.464,42.9056 325,43.5C 324.308,42.5632 324.475,41.8966 325.5,41.5 Z"/></g>
<g><path style="opacity:1" fill="#2274e8" d="M 63.5,56.5 C 68.5752,55.3977 72.9086,53.0644 76.5,49.5C 97.0572,44.0767 113.557,50.0767 126,67.5C 136.11,89.2853 132.277,108.119 114.5,124C 100.528,132.332 85.8615,133.666 70.5,128C 47.665,112.822 41.8317,92.6555 53,67.5C 56.002,63.3319 59.502,59.6652 63.5,56.5 Z"/></g>
<g><path style="opacity:1" fill="#5f8ee9" d="M 76.5,49.5 C 72.9086,53.0644 68.5752,55.3977 63.5,56.5C 66.7995,52.3487 71.1329,50.0153 76.5,49.5 Z"/></g>
<g><path style="opacity:0.024" fill="#1250a3" d="M 3.5,62.5 C 2.83333,61.1667 2.83333,61.1667 3.5,62.5 Z"/></g>
<g><path style="opacity:0.937" fill="#fefffe" d="M 422.5,68.5 C 433.149,67.1397 443.149,68.973 452.5,74C 456.27,77.0971 459.27,80.7638 461.5,85C 457.942,87.6094 453.942,89.4427 449.5,90.5C 442.454,82.5565 433.788,80.3899 423.5,84C 418.421,86.655 417.421,90.3217 420.5,95C 431.276,98.3603 441.943,102.027 452.5,106C 461.928,112.62 464.762,121.454 461,132.5C 454.709,142.563 445.542,147.23 433.5,146.5C 417.797,146.819 406.797,139.819 400.5,125.5C 404.764,122.523 409.431,121.023 414.5,121C 420.502,132.005 429.502,135.338 441.5,131C 447.16,127.378 447.826,123.044 443.5,118C 433.404,114.975 423.404,111.642 413.5,108C 402.203,100.437 399.703,90.604 406,78.5C 410.427,73.2113 415.927,69.8779 422.5,68.5 Z"/></g>
<g><path style="opacity:0.935" fill="#fefffe" d="M 569.5,87.5 C 569.5,88.8333 569.5,90.1667 569.5,91.5C 565.851,92.8279 562.185,94.1612 558.5,95.5C 555.542,94.6196 553.709,92.6196 553,89.5C 547.245,82.9634 540.078,80.7967 531.5,83C 520.417,87.4604 514.75,95.7937 514.5,108C 517.223,130.073 528.89,137.073 549.5,129C 552.24,125.639 555.073,122.472 558,119.5C 561.801,120.987 565.635,122.32 569.5,123.5C 569.5,125.5 569.5,127.5 569.5,129.5C 558.423,145.251 543.423,150.417 524.5,145C 504.348,135.533 496.181,119.699 500,97.5C 504.819,78.256 517.153,68.5894 537,68.5C 544.515,67.8955 551.349,69.7289 557.5,74C 562.108,78.0995 566.108,82.5995 569.5,87.5 Z"/></g>
<g><path style="opacity:1" fill="#fafbfe" d="M 77.5,68.5 C 89.9411,75.2231 102.274,82.2231 114.5,89.5C 102.307,97.4281 89.9732,105.095 77.5,112.5C 76.1693,105.532 75.5026,98.1984 75.5,90.5C 75.5026,82.8016 76.1693,75.4682 77.5,68.5 Z"/></g>
<g><path style="opacity:0.951" fill="#fefffe" d="M 325.5,70.5 C 330.762,70.1953 335.928,70.5286 341,71.5C 341.333,88.5 341.667,105.5 342,122.5C 344.269,129.808 349.269,133.142 357,132.5C 366.028,132.485 372.028,128.152 375,119.5C 376.423,103.215 376.923,86.882 376.5,70.5C 381.43,70.1975 386.263,70.5308 391,71.5C 391.5,95.8311 391.667,120.164 391.5,144.5C 386.821,144.666 382.155,144.499 377.5,144C 376.736,141.931 376.236,139.764 376,137.5C 367.545,146.057 357.378,148.89 345.5,146C 333.645,142.137 327.145,133.97 326,121.5C 325.5,104.503 325.333,87.5033 325.5,70.5 Z"/></g>
<g><path style="opacity:0.92" fill="#fefffe" d="M 472.5,70.5 C 477.762,70.1953 482.928,70.5286 488,71.5C 488.5,95.8311 488.667,120.164 488.5,144.5C 483.238,144.805 478.072,144.471 473,143.5C 472.5,119.169 472.333,94.8356 472.5,70.5 Z"/></g>
<g><path style="opacity:1" fill="#9d93db" d="M 77.5,68.5 C 76.1693,75.4682 75.5026,82.8016 75.5,90.5C 75.5026,98.1984 76.1693,105.532 77.5,112.5C 76.791,113.404 75.791,113.737 74.5,113.5C 74.5,98.1667 74.5,82.8333 74.5,67.5C 75.791,67.2627 76.791,67.596 77.5,68.5 Z"/></g>
<g><path style="opacity:0.008" fill="#114894" d="M 34.5,159.5 C 33.8333,160.167 33.8333,160.167 34.5,159.5 Z"/></g>
<g><path style="opacity:0.192" fill="#145ab7" d="M 69.5,177.5 C 69.8417,176.662 70.5084,176.328 71.5,176.5C 71.5,176.833 71.5,177.167 71.5,177.5C 70.8333,177.5 70.1667,177.5 69.5,177.5 Z"/></g>
</svg>
